<svg xmlns="http://www.w3.org/2000/svg" viewBox="0 0 300 200"><defs><style>.cls-2{fill:#ff0c2b}</style></defs><g id="Ebene_2" data-name="Ebene 2"><g id="Layer_4" data-name="Layer 4"><path fill="#f9fbfb" d="M0 0h300v199.92H0z"/><path class="cls-2" d="M165.23 0h-30.46v79.72H0v40.56h134.77v79.64h30.46v-79.64H300V79.72H165.23V0z"/><path class="cls-2" d="M201.62 134.18L300 199.92v-15.14l-75.77-50.6h-22.61zM100.17 66.37L.85 0H0v14.78l77.24 51.59h22.93zM.19 200h21.54l98.82-65.82h-21.9L.19 200zM277.55 0l-99.72 66.37h22.62L300 .07V0h-22.45z"/><path d="M0 23.06v43.41h64.98L0 23.06zm124.38 37.88V0H33.13l91.25 60.94zm109.75 5.53H300v-44l-65.87 44zM174.74 0v60.94L265.99 0h-91.25zM0 133.53v43.41l64.98-43.41H0zM124.38 200v-60.94L33.13 200h91.25zM300 177.53v-44h-65.87l65.87 44zM174.74 200h91.25l-91.25-60.94V200z" fill="#0037c1"/></g></g></svg>