<svg data-name="Layer 1" xmlns="http://www.w3.org/2000/svg" viewBox="0 0 100 40"><path d="M1.81 31.47a.84.84 0 00-.13-.27.63.63 0 00-.21-.2.73.73 0 00-.3-.07.59.59 0 00-.31.07.53.53 0 00-.21.18 1.11 1.11 0 00-.12.27 1.53 1.53 0 000 .3 1.06 1.06 0 000 .31.66.66 0 00.12.27.46.46 0 00.21.18.63.63 0 00.32.07.59.59 0 00.31-.07.61.61 0 00.2-.19.81.81 0 00.11-.27 1.12 1.12 0 000-.32 1.35 1.35 0 000-.29M.51 29.85V31a.51.51 0 01.28-.26 1 1 0 01.42-.09A1 1 0 012 31a1.43 1.43 0 01.19.37 1.64 1.64 0 010 .88 1.18 1.18 0 01-.19.35.92.92 0 01-.31.24 1 1 0 01-.44.09H.87a.72.72 0 01-.19-.11.73.73 0 01-.14-.16v.29H.15v-3zm3.62 3.03v-.35a.65.65 0 01-.29.3.82.82 0 01-.42.1 1 1 0 01-.36-.06.5.5 0 01-.23-.16.6.6 0 01-.13-.25 1.66 1.66 0 010-.33v-1.44H3v1.48a.41.41 0 00.45.44.65.65 0 00.29 0 .48.48 0 00.2-.14.78.78 0 00.12-.22.8.8 0 000-.27v-1.29h.36v2.19zm1.23-2.19V31a.77.77 0 01.72-.39 1 1 0 01.36.05.58.58 0 01.23.17.66.66 0 01.13.25 1.69 1.69 0 010 .33v1.44h-.33V31.4a.45.45 0 00-.12-.33A.44.44 0 006 31a.84.84 0 00-.29.05.62.62 0 00-.2.15.43.43 0 00-.12.22.77.77 0 000 .27v1.24H5v-2.24zm2.32 1.41a.89.89 0 00.12.26.59.59 0 00.52.25.62.62 0 00.31-.07.64.64 0 00.21-.19.76.76 0 00.16-.26 1 1 0 000-.3 1.12 1.12 0 000-.32.57.57 0 00-.12-.26.55.55 0 00-.26-.21.79.79 0 00-.32 0 .59.59 0 00-.3 0 .46.46 0 00-.2.19.83.83 0 00-.12.27 1.63 1.63 0 000 .31 1 1 0 000 .3m1.3.78v-.3H9a.53.53 0 01-.28.27 1.16 1.16 0 01-.42.08 1 1 0 01-.44-.09.92.92 0 01-.32-.26 1 1 0 01-.19-.36 1.61 1.61 0 01-.06-.44 1.51 1.51 0 01.06-.44 1 1 0 01.16-.31.92.92 0 01.31-.24 1 1 0 01.44-.1h.18a.76.76 0 01.2.06 1 1 0 01.18.1A.61.61 0 019 31v-1.15h.36v3zm2.38-1.52a.53.53 0 00-.13-.2A.64.64 0 0011 31a.7.7 0 00-.25-.05.62.62 0 00-.25.05.56.56 0 00-.2.14.91.91 0 00-.13.19 1 1 0 00-.05.24h1.26a.53.53 0 00-.06-.24m.09 1.41a1 1 0 01-.62.19 1.08 1.08 0 01-.46-.09.82.82 0 01-.32-.23 1.2 1.2 0 01-.2-.37 1.7 1.7 0 01-.07-.46 1.35 1.35 0 01.07-.46 1.09 1.09 0 01.22-.36 1 1 0 01.33-.24.91.91 0 01.41-.09.85.85 0 01.49.13 1.11 1.11 0 01.31.3 1.46 1.46 0 01.16.41 1.54 1.54 0 010 .42h-1.57a1.27 1.27 0 000 .28.76.76 0 00.13.23.69.69 0 00.21.16 1 1 0 00.31 0 .63.63 0 00.38-.1.5.5 0 00.19-.32h.36a.89.89 0 01-.32.55m1.03-.3a.35.35 0 00.14.13.36.36 0 00.18.07.78.78 0 00.22 0h.35a.45.45 0 00.13-.11.28.28 0 000-.16.25.25 0 00-.11-.22 1.27 1.27 0 00-.26-.11l-.35-.08a2 2 0 01-.35-.11.68.68 0 01-.26-.18.49.49 0 01-.11-.33.55.55 0 01.08-.29.69.69 0 01.19-.19.76.76 0 01.26-.11 1.55 1.55 0 01.29 0 1.87 1.87 0 01.35 0 .75.75 0 01.28.11.55.55 0 01.19.21.67.67 0 01.08.33h-.36a.29.29 0 000-.17.34.34 0 00-.12-.12l-.16-.06h-.34a.33.33 0 00-.15 0 .24.24 0 00-.11.09.18.18 0 000 .13.21.21 0 00.06.16.69.69 0 00.17.1l.23.07.25.06.27.07a.82.82 0 01.23.11.69.69 0 01.16.18.53.53 0 01.06.26.67.67 0 01-.08.33.63.63 0 01-.22.21.79.79 0 01-.3.12 1.84 1.84 0 01-.33 0 1.34 1.34 0 01-.35 0 .86.86 0 01-.29-.13.56.56 0 01-.21-.22.75.75 0 01-.08-.35h.36a.39.39 0 000 .2m3.65.49l-.44-1.74h-.01l-.44 1.74h-.39l-.71-2.19h.4l.5 1.79h.01l.44-1.79h.39l.46 1.79h.01l.49-1.79h.38l-.7 2.19h-.39zM19 31.33a.57.57 0 00-.33-.33.65.65 0 00-.5 0 .45.45 0 00-.19.14.5.5 0 00-.13.19 1.05 1.05 0 00-.06.24H19a.69.69 0 00-.05-.24m.08 1.41a1 1 0 01-.62.19 1.06 1.06 0 01-.45-.09.86.86 0 01-.33-.23 1 1 0 01-.19-.37 1.7 1.7 0 01-.08-.46 1.34 1.34 0 01.08-.46 1.07 1.07 0 01.21-.36 1 1 0 01.33-.24 1 1 0 01.41-.09.83.83 0 01.49.13 1 1 0 01.31.3 1.21 1.21 0 01.16.41 2.12 2.12 0 010 .42h-1.57a.86.86 0 000 .28.57.57 0 00.12.23.73.73 0 00.22.16.91.91 0 00.31 0 .6.6 0 00.37-.1.51.51 0 00.2-.32h.35a.81.81 0 01-.32.55m.79.19h.36v-2.19h-.36zm0-2.59h.36v-.44h-.36zm1.86.4V31h-.44v1.37a.3.3 0 000 .1.07.07 0 000 .06h.38v.32h-.27a.82.82 0 01-.24 0 .26.26 0 01-.16-.07.24.24 0 01-.1-.14.85.85 0 010-.25V31h-.37v-.31h.37V30h.36v.66zm1.87.64a.57.57 0 00-.33-.33.66.66 0 00-.22 0 .7.7 0 00-.25.05.52.52 0 00-.19.14.5.5 0 00-.13.19.69.69 0 000 .24h1.26a1.05 1.05 0 00-.06-.24m.09 1.41a1 1 0 01-.62.19 1.08 1.08 0 01-.46-.09.86.86 0 01-.33-.23 1.18 1.18 0 01-.19-.37 1.7 1.7 0 01-.08-.46 1.34 1.34 0 01.08-.46 1.07 1.07 0 01.21-.36 1.12 1.12 0 01.33-.24 1 1 0 01.42-.09.82.82 0 01.48.13 1 1 0 01.31.3 1.21 1.21 0 01.16.41 2.12 2.12 0 010 .42h-1.68a.65.65 0 000 .28.72.72 0 00.12.23.73.73 0 00.22.16 1 1 0 00.31 0 .65.65 0 00.38-.1.54.54 0 00.19-.32H24a.84.84 0 01-.31.55m.95-.35a.33.33 0 00.13.13.44.44 0 00.19.07.75.75 0 00.21 0h.35a.28.28 0 00.13-.11.23.23 0 00.06-.16.25.25 0 00-.11-.22 1.16 1.16 0 00-.27-.11l-.33-.11a1.79 1.79 0 01-.35-.11.61.61 0 01-.26-.18.44.44 0 01-.11-.33.54.54 0 01.07-.29.86.86 0 01.19-.19.81.81 0 01.27-.11 1.45 1.45 0 01.29 0 1.76 1.76 0 01.34 0 .63.63 0 01.28.11.48.48 0 01.19.21.8.8 0 01.09.33h-.36a.38.38 0 00-.06-.17.34.34 0 00-.12-.12l-.17-.03H25a.42.42 0 00-.16 0 .31.31 0 00-.11.09.25.25 0 000 .13.19.19 0 00.07.16.62.62 0 00.16.1l.23.07.26.06.26.07a.7.7 0 01.23.11.73.73 0 01.06.21.53.53 0 01.06.26.58.58 0 01-.09.33.53.53 0 01-.21.21.79.79 0 01-.3.12h-.34a1.34 1.34 0 01-.35 0 1 1 0 01-.29-.13.61.61 0 01-.2-.22.9.9 0 01-.09-.35h.36a.39.39 0 00.06.2M27.5 31v-.31h.37v-.33A.51.51 0 0128 30a.65.65 0 01.45-.13h.23v.31h-.2a.41.41 0 00-.21.05.27.27 0 00-.07.2v.31h.43V31h-.43v1.88h-.36V31zm1.8 1.14a.72.72 0 00.14.26.69.69 0 00.22.16.62.62 0 00.27 0 .58.58 0 00.26 0 .6.6 0 00.22-.16.93.93 0 00.15-.26 1.23 1.23 0 00.05-.35 1.25 1.25 0 00-.05-.36.93.93 0 00-.15-.26.6.6 0 00-.22-.16.58.58 0 00-.26-.06.63.63 0 00-.27.06.69.69 0 00-.22.16.72.72 0 00-.14.26 1 1 0 00-.06.36 1 1 0 00.06.35m-.37-.81a.91.91 0 01.2-.36.94.94 0 01.34-.25 1.08 1.08 0 01.46-.08 1.11 1.11 0 01.46.08 1 1 0 01.53.61 1.35 1.35 0 01.07.46 1.33 1.33 0 01-.07.45.91.91 0 01-.2.36 1 1 0 01-.33.24 1.11 1.11 0 01-.46.09 1.08 1.08 0 01-.46-.09 1 1 0 01-.34-.24.91.91 0 01-.2-.36 1.33 1.33 0 01-.07-.45 1.35 1.35 0 01.07-.46m2.81-.64v.46a1 1 0 01.33-.4.8.8 0 01.48-.11V31a1 1 0 00-.37.06.62.62 0 00-.25.17.8.8 0 00-.13.28 1.43 1.43 0 000 .38v1h-.36v-2.2zm1.37 1.7a.33.33 0 00.13.13.44.44 0 00.19.07.75.75 0 00.21 0h.35a.28.28 0 00.13-.11.22.22 0 00.05-.16.25.25 0 00-.1-.22 1.16 1.16 0 00-.27-.1l-.34-.08a1.79 1.79 0 01-.35-.11.71.71 0 01-.27-.18.48.48 0 01-.1-.33.54.54 0 01.07-.29.86.86 0 01.19-.19.81.81 0 01.27-.11 1.45 1.45 0 01.29 0 1.76 1.76 0 01.34 0 .63.63 0 01.28.11.48.48 0 01.19.21.8.8 0 01.09.33h-.36a.38.38 0 00-.06-.17.34.34 0 00-.12-.12l-.16-.07h-.34a.42.42 0 00-.15 0 .31.31 0 00-.11.09.25.25 0 000 .13.19.19 0 00.07.16.62.62 0 00.16.1l.23.07.26.06.26.07a.7.7 0 01.23.11.73.73 0 01.17.18.53.53 0 01.06.26.58.58 0 01-.09.33.53.53 0 01-.21.21.79.79 0 01-.3.12h-.34a1.34 1.34 0 01-.35 0 1 1 0 01-.29-.13.61.61 0 01-.2-.22.9.9 0 01-.09-.35h.36a.39.39 0 00.06.2m3.12-1.32a.53.53 0 00-.37-.07.61.61 0 00-.32.08.48.48 0 00-.21.19.83.83 0 00-.12.27 1.66 1.66 0 000 .32 1 1 0 000 .3.76.76 0 00.11.26.59.59 0 00.2.18.65.65 0 00.29.06.56.56 0 00.42-.14.6.6 0 00.18-.39h.37a1 1 0 01-.3.63 1 1 0 01-.67.22 1.23 1.23 0 01-.44-.08.85.85 0 01-.32-.23 1 1 0 01-.2-.36 1.53 1.53 0 01-.06-.45 1.7 1.7 0 01.06-.46 1.08 1.08 0 01.19-.37.9.9 0 01.33-.25 1.06 1.06 0 01.45-.1 1.29 1.29 0 01.35.05.71.71 0 01.29.14.77.77 0 01.21.23.9.9 0 01.1.34h-.37a.53.53 0 00-.18-.32m1.34-1.27V31a.3.3 0 01.12-.17.52.52 0 01.17-.12.66.66 0 01.2-.06.69.69 0 01.2 0 1.23 1.23 0 01.36.06.58.58 0 01.23.17.75.75 0 01.13.25 1.69 1.69 0 010 .33v1.44h-.36v-1.5a.49.49 0 00-.11-.33.45.45 0 00-.33-.12.84.84 0 00-.21.05.62.62 0 00-.2.15.66.66 0 00-.12.22.77.77 0 000 .27v1.24h-.36v-3zm3.48 3.03v-.35a.72.72 0 01-.3.3.77.77 0 01-.42.1 1 1 0 01-.36-.06.63.63 0 01-.23-.16.75.75 0 01-.13-.25 1.69 1.69 0 010-.33v-1.44H40v1.48a.41.41 0 00.12.32.45.45 0 00.33.12.61.61 0 00.28 0 .48.48 0 00.2-.14.61.61 0 00.07-.27 1.17 1.17 0 000-.27v-1.24h.36v2.19zm1.22-2.19V31a.76.76 0 01.71-.39.92.92 0 01.36.05.61.61 0 01.24.17.53.53 0 01.12.25 1.15 1.15 0 010 .33v1.44h-.36V31.4A.42.42 0 0043 31a.84.84 0 00-.29.05.75.75 0 00-.2.15.66.66 0 00-.12.22.77.77 0 000 .27v1.24H42v-2.24zm3.21 1.82a.61.61 0 00.2-.19.81.81 0 00.11-.27 1.15 1.15 0 000-.31 1.43 1.43 0 000-.29 1.12 1.12 0 00-.11-.25.7.7 0 00-.2-.18.62.62 0 00-.29-.07.65.65 0 00-.29.07.49.49 0 00-.2.18.53.53 0 00-.12.25 1.54 1.54 0 000 .3 1.53 1.53 0 000 .3.81.81 0 00.11.27.5.5 0 00.19.19.55.55 0 00.29.08.62.62 0 00.31-.08m.46 1a1 1 0 01-.77.27 1.73 1.73 0 01-.32 0 1.17 1.17 0 01-.28-.11.85.85 0 01-.22-.2.54.54 0 01-.09-.31h.36a.25.25 0 00.06.17.53.53 0 00.14.11.64.64 0 00.18.06h.19a.67.67 0 00.3-.06.55.55 0 00.2-.17.57.57 0 00.12-.26 1.76 1.76 0 000-.34v-.14a.68.68 0 01-.28.3 1 1 0 01-.41.09 1 1 0 01-.43-.09.89.89 0 01-.3-.24 1.17 1.17 0 01-.19-.35 1.49 1.49 0 01-.06-.43 1.9 1.9 0 010-.4 1.24 1.24 0 01.17-.37 1.1 1.1 0 01.32-.28 1 1 0 01.48-.1.82.82 0 01.38.09.59.59 0 01.27.27v-.31h.34v2a1.19 1.19 0 01-.25.81M47 32.39a.27.27 0 00.13.13.4.4 0 00.19.07.75.75 0 00.21 0h.35a.35.35 0 00.13-.11.28.28 0 00.05-.16.25.25 0 00-.1-.22 1.38 1.38 0 00-.27-.11l-.35-.08a1.69 1.69 0 01-.34-.11.64.64 0 01-.27-.18.48.48 0 01-.1-.33.54.54 0 01.07-.29.69.69 0 01.19-.19.81.81 0 01.27-.11 1.35 1.35 0 01.29 0 1.76 1.76 0 01.34 0 .69.69 0 01.28.11.55.55 0 01.19.21.8.8 0 01.09.33H48a.38.38 0 00-.06-.17.34.34 0 00-.12-.12l-.13-.06h-.34a.42.42 0 00-.15 0 .31.31 0 00-.11.09.18.18 0 000 .13.21.21 0 00.06.16.69.69 0 00.17.1l.23.07.26.06.26.07a.82.82 0 01.23.11.55.55 0 01.16.18.53.53 0 01.06.26.58.58 0 01-.08.33.56.56 0 01-.22.21.79.79 0 01-.3.12 1.84 1.84 0 01-.33 0 1.34 1.34 0 01-.35 0 .86.86 0 01-.29-.13.63.63 0 01-.21-.22.75.75 0 01-.08-.35H47a.32.32 0 00.06.2m2.16-1.7V31a.77.77 0 01.72-.39 1 1 0 01.36.05.63.63 0 01.36.42 1.69 1.69 0 010 .33v1.44h-.36V31.4a.42.42 0 00-.45-.45.78.78 0 00-.28.05.62.62 0 00-.2.15.54.54 0 00-.13.22 1.1 1.1 0 000 .27v1.24h-.36v-2.19zm3.49.64a.53.53 0 00-.13-.2.64.64 0 00-.19-.13.7.7 0 00-.25-.05.71.71 0 00-.26.05.52.52 0 00-.19.14.64.64 0 00-.13.19.69.69 0 00-.05.24h1.26a1.05 1.05 0 00-.06-.24m.09 1.41a1 1 0 01-.62.19 1.08 1.08 0 01-.46-.09.82.82 0 01-.32-.23 1 1 0 01-.2-.37 1.7 1.7 0 01-.07-.46 1.35 1.35 0 01.07-.46 1 1 0 01.22-.36 1.08 1.08 0 01.32-.24 1 1 0 01.42-.09.8.8 0 01.48.13.89.89 0 01.31.3 1.23 1.23 0 01.17.41 1.54 1.54 0 010 .42h-1.61a1.27 1.27 0 000 .28.76.76 0 00.13.23.58.58 0 00.21.16 1 1 0 00.31 0 .65.65 0 00.38-.1.5.5 0 00.19-.32h.36a.89.89 0 01-.32.55m1.69-2V31H54v1.37a.31.31 0 000 .1.07.07 0 000 .06h.38v.32h-.27a.86.86 0 01-.24 0 .26.26 0 01-.16-.07.28.28 0 01-.09-.14.85.85 0 010-.25V31h-.38v-.31h.38V30H54v.66zm1.55.31h-1.24v-.31h1.71v.24l-1.34 1.63h1.4v.32h-1.85v-.28l1.32-1.6zM1.46 37.21H.83l-.12.06a.24.24 0 00-.08.09.29.29 0 000 .14.32.32 0 000 .14l.08.08H1a.55.55 0 00.28-.06.47.47 0 00.14-.14.58.58 0 00.06-.17.72.72 0 000-.13zm-1.39-.45a.72.72 0 01.1-.35.83.83 0 01.24-.22.93.93 0 01.33-.12 1.47 1.47 0 01.36 0h.33a1.5 1.5 0 01.32.09.59.59 0 01.22.19.53.53 0 01.09.32v1.13a2.46 2.46 0 000 .28.53.53 0 00.06.21h-.59v-.11a.37.37 0 010-.11.81.81 0 01-.34.21 1.39 1.39 0 01-.4.06 1 1 0 01-.3 0 .46.46 0 01-.23-.12.53.53 0 01-.2-.22.65.65 0 01-.06-.31.57.57 0 01.07-.31.55.55 0 01.17-.2.8.8 0 01.23-.1A1.31 1.31 0 01.74 37 1.24 1.24 0 011 37h.23a.38.38 0 00.17-.08.16.16 0 00.05-.14.28.28 0 000-.15.2.2 0 00-.09-.09.22.22 0 00-.12-.05h-.17a.47.47 0 00-.28.08.32.32 0 00-.12.25zm3.03-.67v.3a.63.63 0 01.29-.27.88.88 0 01.4-.12 1.16 1.16 0 01.4.06.65.65 0 01.24.19.65.65 0 01.12.28 1.45 1.45 0 010 .37v1.35H4V37a.72.72 0 00-.09-.4.31.31 0 00-.3-.14.43.43 0 00-.36.15.85.85 0 00-.11.48v1.15h-.6v-2.15zm3.2 1.63a.54.54 0 00.16-.14.66.66 0 00.09-.19.62.62 0 000-.23 1.09 1.09 0 000-.26.66.66 0 00-.08-.21.57.57 0 00-.16-.15.49.49 0 00-.25-.06.54.54 0 00-.22.05.5.5 0 00-.15.14.72.72 0 00-.09.2 1 1 0 000 .24.85.85 0 000 .23.49.49 0 00.08.21.46.46 0 00.15.16.41.41 0 00.23.06.56.56 0 00.23-.05m.82.73a.64.64 0 01-.15.31.91.91 0 01-.34.25 1.49 1.49 0 01-.61.1 1.24 1.24 0 01-.33 0 1 1 0 01-.3-.12.8.8 0 01-.23-.22.68.68 0 01-.11-.32h.6a.35.35 0 00.17.23.53.53 0 00.28.07.46.46 0 00.38-.15.69.69 0 00.11-.39v-.29a.64.64 0 01-.28.26 1 1 0 01-.38.08.9.9 0 01-.42-.09.76.76 0 01-.3-.23 1.2 1.2 0 01-.2-.4 1.86 1.86 0 010-.42 1.35 1.35 0 010-.41 1.06 1.06 0 01.18-.35.88.88 0 01.75-.36.84.84 0 01.37.08.61.61 0 01.28.27v-.29h.57v2a1.25 1.25 0 010 .31M9 36.6a.42.42 0 00-.33-.12.47.47 0 00-.39.17.35.35 0 00-.08.16.39.39 0 000 .14h1a.76.76 0 00-.2-.35m-.68 1.16a.53.53 0 00.39.13.57.57 0 00.29-.09.45.45 0 00.16-.19h.53a1 1 0 01-.39.56 1.2 1.2 0 01-.64.17 1.4 1.4 0 01-.47-.08 1.09 1.09 0 01-.35-.26 1 1 0 01-.22-.36 1.45 1.45 0 01-.08-.47 1.34 1.34 0 01.08-.46 1.1 1.1 0 01.23-.37 1.21 1.21 0 01.35-.24 1.14 1.14 0 01.46-.1 1.07 1.07 0 01.49.11 1 1 0 01.34.29 1.18 1.18 0 01.19.41 1.6 1.6 0 01.05.49H8.14a.63.63 0 00.15.43m4.37-1.64l-.4 1.49h-.01l-.37-1.49h-.59l-.36 1.49h-.01l-.4-1.49h-.64l.7 2.19h.62l.37-1.47h.01l.39 1.47h.62l.7-2.19h-.63zm2.25 1.12h-.64l-.11.06a.24.24 0 00-.08.09.29.29 0 000 .14.32.32 0 000 .14l.08.08a.33.33 0 00.12 0h.14a.55.55 0 00.28-.06.47.47 0 00.14-.14.58.58 0 00.06-.17v-.13zm-1.4-.45a.72.72 0 01.11-.35.64.64 0 01.24-.22.82.82 0 01.32-.12 1.5 1.5 0 01.37 0h.33a1.26 1.26 0 01.31.09.62.62 0 01.23.19.53.53 0 01.09.32v1.13a2.46 2.46 0 000 .28.53.53 0 00.06.21H15a.23.23 0 010-.11v-.11a.75.75 0 01-.34.21 1.34 1.34 0 01-.4.06.92.92 0 01-.29 0 .55.55 0 01-.24-.12.64.64 0 01-.16-.2.84.84 0 01-.05-.29.68.68 0 01.06-.31.67.67 0 01.17-.2.87.87 0 01.24-.1 1.31 1.31 0 01.27-.06 1.24 1.24 0 01.27 0h.23a.34.34 0 00.16-.08.17.17 0 00.06-.14.28.28 0 000-.15.2.2 0 00-.09-.09.26.26 0 00-.12-.05h-.15a.44.44 0 00-.28.08.32.32 0 00-.12.25zm3.04-.67v.3a.7.7 0 01.3-.27.85.85 0 01.38-.09 1.07 1.07 0 01.39.06.62.62 0 01.25.19.65.65 0 01.12.28 1.45 1.45 0 010 .37v1.35h-.61V37a.73.73 0 00-.08-.4.34.34 0 00-.3-.14.42.42 0 00-.36.15.85.85 0 00-.11.48v1.15H16v-2.15zm3.45.83a.73.73 0 00-.09-.22.41.41 0 00-.16-.16.43.43 0 00-.24-.06.49.49 0 00-.25.06.44.44 0 00-.17.16.85.85 0 00-.09.22 2.28 2.28 0 000 .26 1.15 1.15 0 000 .26.92.92 0 00.09.23.65.65 0 00.17.16.43.43 0 00.24.06.45.45 0 00.41-.22.78.78 0 00.08-.23 1.14 1.14 0 000-.52m0 1.08a.63.63 0 01-.28.26 1 1 0 01-.39.08.83.83 0 01-.43-.1.86.86 0 01-.31-.25 1.21 1.21 0 01-.18-.38 1.31 1.31 0 01-.07-.44 1.25 1.25 0 01.07-.43 1 1 0 01.18-.36.81.81 0 01.3-.25.83.83 0 01.43-.1 1 1 0 01.37.08.75.75 0 01.28.25v-1.11h.6v3h-.58V38zm2.31-1.91v.4h-.44v1.09c0 .1 0 .17.05.2s.1 0 .2 0h.19v.46h-.57a.72.72 0 01-.22-.08.39.39 0 01-.15-.16.48.48 0 01-.06-.26v-1.3h-.36v-.4h.36v-.66h.61v.66zm1.61.51a.41.41 0 00-.32-.12.54.54 0 00-.24.05.52.52 0 00-.16.12.48.48 0 00-.08.16v.14h1a.6.6 0 00-.15-.35m-.68 1.16a.53.53 0 00.39.13.55.55 0 00.32-.09.39.39 0 00.16-.19h.53a1 1 0 01-.39.56 1.2 1.2 0 01-.64.17 1.3 1.3 0 01-.46-.08 1.13 1.13 0 01-.36-.24 1.09 1.09 0 01-.22-.36 1.45 1.45 0 01-.08-.47 1.34 1.34 0 01.08-.46 1.28 1.28 0 01.23-.37 1.13 1.13 0 01.36-.24 1.1 1.1 0 01.4-.12 1.07 1.07 0 01.49.11 1 1 0 01.34.29 1.2 1.2 0 01.2.41 1.6 1.6 0 010 .49h-1.55a.63.63 0 00.15.43m3.54.01a.36.36 0 00.1.11l.15.07h.43a.28.28 0 00.1-.09.25.25 0 000-.13c0-.09-.06-.16-.18-.2a3.46 3.46 0 00-.51-.14l-.25-.07a.82.82 0 01-.23-.11.57.57 0 01-.15-.16.49.49 0 01-.06-.25.59.59 0 01.08-.34.58.58 0 01.22-.22 1 1 0 01.3-.11 2.07 2.07 0 01.35 0 2 2 0 01.35 0 1 1 0 01.3.12.73.73 0 01.22.21.8.8 0 01.1.34h-.57a.3.3 0 00-.13-.24.65.65 0 00-.29-.06H27a.19.19 0 00-.1 0 .16.16 0 00-.12.17.18.18 0 00.06.13.53.53 0 00.15.08l.22.06.25.05.26.08a.57.57 0 01.22.11.52.52 0 01.16.17.53.53 0 01.06.26.69.69 0 01-.09.36.66.66 0 01-.23.24.82.82 0 01-.32.12 1.47 1.47 0 01-.36 0 1.58 1.58 0 01-.38 0 .83.83 0 01-.32-.13.63.63 0 01-.23-.23.7.7 0 01-.11-.37h.58a.31.31 0 000 .17m3.3.54V38a.64.64 0 01-.3.27.85.85 0 01-.38.09 1.07 1.07 0 01-.39-.06.7.7 0 01-.25-.18.69.69 0 01-.12-.29 1.4 1.4 0 010-.37v-1.37h.61v1.24a.7.7 0 00.08.4.34.34 0 00.3.14.42.42 0 00.36-.15.85.85 0 00.11-.48v-1.15h.6v2.19zm1.63-2.19v.41a.76.76 0 01.12-.19.75.75 0 01.16-.15l.2-.1a.83.83 0 01.22 0h.14v.56h-.22a.74.74 0 00-.28 0 .49.49 0 00-.19.16.64.64 0 00-.1.22 1.2 1.2 0 000 .28v1h-.6v-2.19zm2.44 0l-.46 1.5h-.01l-.46-1.5h-.63l.75 2.19h.67l.74-2.19h-.6zm2.18.51a.42.42 0 00-.33-.12.54.54 0 00-.24.05.61.61 0 00-.15.12.35.35 0 00-.08.16.39.39 0 000 .14h1a.76.76 0 00-.15-.35m-.68 1.16a.53.53 0 00.39.13.54.54 0 00.31-.09.39.39 0 00.16-.19H37a1 1 0 01-.39.56 1.14 1.14 0 01-.63.17 1.36 1.36 0 01-.47-.08 1 1 0 01-.35-.24 1.11 1.11 0 01-.23-.36 1.45 1.45 0 01-.07-.47 1.14 1.14 0 01.08-.46 1.1 1.1 0 01.23-.37 1 1 0 01.35-.24 1.14 1.14 0 01.46-.09 1.1 1.1 0 01.49.11 1.05 1.05 0 01.34.29 1.18 1.18 0 01.19.41 1.6 1.6 0 010 .49h-1.58a.63.63 0 00.15.43m1.81.52H38v-2.19h-.6zm0-2.53H38v-.5h-.6zm1.09-.5h.6v3.03h-.6zm1.1 0h.6v3.03h-.6zM42 37.21h-.64l-.11.06a.18.18 0 00-.08.09.29.29 0 000 .14.32.32 0 000 .14.2.2 0 00.08.08.33.33 0 00.12 0h.14a.49.49 0 00.27-.06.41.41 0 00.15-.14.37.37 0 000-.17 1.05 1.05 0 000-.13zm-1.4-.45a.72.72 0 01.11-.35.64.64 0 01.24-.22.82.82 0 01.32-.12 1.47 1.47 0 01.36 0h.34a1.4 1.4 0 01.31.09.71.71 0 01.23.19.53.53 0 01.09.32v1.13a2.53 2.53 0 000 .28 1.42 1.42 0 00.06.21h-.61a.43.43 0 010-.11.36.36 0 010-.11.81.81 0 01-.34.21 1.34 1.34 0 01-.4.06.92.92 0 01-.29 0 .55.55 0 01-.24-.12.53.53 0 01-.16-.2.65.65 0 01-.06-.29.68.68 0 01.07-.31.55.55 0 01.17-.2.87.87 0 01.24-.1 1.31 1.31 0 01.26-.12h.5a.34.34 0 00.16-.08.17.17 0 00.06-.14.27.27 0 000-.15.24.24 0 00-.08-.09.29.29 0 00-.13-.05h-.15a.49.49 0 00-.28.08.39.39 0 00-.12.25zm3.06-.67v.3a.7.7 0 01.3-.27.81.81 0 01.37-.09 1.12 1.12 0 01.4.06.66.66 0 01.37.47 2.1 2.1 0 010 .37v1.35h-.61V37a.83.83 0 00-.08-.4.34.34 0 00-.3-.14.41.41 0 00-.36.15.85.85 0 00-.11.48v1.15h-.61v-2.15zm2.99.39a.48.48 0 00-.24.07.52.52 0 00-.16.17.92.92 0 00-.09.23 2.11 2.11 0 000 .25 1.94 1.94 0 000 .24.73.73 0 00.09.22.61.61 0 00.15.17.48.48 0 00.24.06.43.43 0 00.33-.12.56.56 0 00.15-.33h.58a1 1 0 01-.34.67 1.09 1.09 0 01-.72.23 1.33 1.33 0 01-.45-.08 1.07 1.07 0 01-.35-.23 1.09 1.09 0 01-.22-.36 1.12 1.12 0 01-.08-.45 1.41 1.41 0 01.07-.47 1 1 0 01.22-.38 1 1 0 01.35-.25 1.21 1.21 0 01.48-.09 1.5 1.5 0 01.37 0 1 1 0 01.33.16.79.79 0 01.23.25.88.88 0 01.1.37h-.59a.41.41 0 00-.45-.38m2.72.17a.42.42 0 00-.33-.12.54.54 0 00-.24.05.61.61 0 00-.15.12.35.35 0 00-.08.16.39.39 0 000 .14h1a.76.76 0 00-.15-.35m-.68 1.16a.53.53 0 00.39.13.54.54 0 00.31-.09.39.39 0 00.16-.19h.54a1 1 0 01-.4.56 1.14 1.14 0 01-.63.17 1.36 1.36 0 01-.47-.08 1 1 0 01-.35-.24 1.11 1.11 0 01-.23-.36 1.45 1.45 0 01-.07-.47 1.14 1.14 0 01.08-.46 1 1 0 01.58-.61 1.14 1.14 0 01.46-.09 1.1 1.1 0 01.49.11 1.05 1.05 0 01.34.29 1.18 1.18 0 01.19.41 1.34 1.34 0 010 .49h-1.59a.63.63 0 00.15.43m4.51.52V38a.64.64 0 01-.3.27.81.81 0 01-.37.09 1.16 1.16 0 01-.4-.06.76.76 0 01-.24-.18.86.86 0 01-.13-.29 2.05 2.05 0 010-.37v-1.37h.6v1.24a.8.8 0 00.08.4.34.34 0 00.31.14.4.4 0 00.35-.15.77.77 0 00.11-.48v-1.15h.61v2.19zm1.61-2.19v.3a.7.7 0 01.3-.27.81.81 0 01.37-.09 1.12 1.12 0 01.4.06.65.65 0 01.24.19.8.8 0 01.13.28 2.13 2.13 0 010 .37v1.35h-.6V37a.83.83 0 00-.08-.4.34.34 0 00-.3-.14.41.41 0 00-.36.15.77.77 0 00-.11.48v1.15h-.61v-2.15zm3.48.83a.73.73 0 00-.09-.22.41.41 0 00-.16-.16.48.48 0 00-.66.16.85.85 0 00-.09.22 1.14 1.14 0 000 .52.67.67 0 00.1.23.61.61 0 00.16.16.48.48 0 00.24.06.46.46 0 00.25-.06.41.41 0 00.16-.16.79.79 0 00.09-.23 1.7 1.7 0 000-.52m0 1.08a.59.59 0 01-.28.26.93.93 0 01-.39.08.88.88 0 01-.43-.1 1.07 1.07 0 01-.29-.24 1.21 1.21 0 01-.18-.38 1.61 1.61 0 01-.06-.44 1.54 1.54 0 01.06-.43 1 1 0 01.18-.36.93.93 0 01.31-.25.82.82 0 01.42-.1.91.91 0 01.37.08.68.68 0 01.28.25v-1.12h.6v3h-.57V38zm3.51-1.91v.4h-.45v1.09a.3.3 0 000 .2.3.3 0 00.21 0h.19v.46h-.62a.63.63 0 01-.22-.08.29.29 0 01-.15-.16.48.48 0 01-.06-.26v-1.3h-.36v-.4h.36v-.66h.6v.66zm1.61.51a.42.42 0 00-.33-.12.47.47 0 00-.39.17.35.35 0 00-.08.16.39.39 0 000 .14h1a.76.76 0 00-.15-.35m-.68 1.16a.53.53 0 00.39.13.57.57 0 00.32-.09.45.45 0 00.16-.19h.53a1 1 0 01-.39.56 1.2 1.2 0 01-.64.17 1.4 1.4 0 01-.47-.08 1.09 1.09 0 01-.35-.24 1 1 0 01-.22-.36 1.22 1.22 0 01-.08-.47 1.14 1.14 0 01.08-.46 1.1 1.1 0 01.23-.37 1.21 1.21 0 01.35-.24 1.14 1.14 0 01.41-.12 1.07 1.07 0 01.49.11 1 1 0 01.34.29 1.18 1.18 0 01.19.41 1.6 1.6 0 010 .49h-1.54a.63.63 0 00.15.43m2.27.01a.36.36 0 00.1.11l.15.07h.43a.28.28 0 00.1-.09.25.25 0 000-.13c0-.09-.06-.16-.18-.2a3.46 3.46 0 00-.51-.14l-.25-.07a.82.82 0 01-.23-.11.57.57 0 01-.15-.16.49.49 0 01-.06-.25.59.59 0 01.08-.34.66.66 0 01.22-.22 1 1 0 01.3-.11 2.07 2.07 0 01.35 0 2 2 0 01.35 0 1 1 0 01.3.12.63.63 0 01.22.21.68.68 0 01.1.34h-.57a.28.28 0 00-.13-.24.64.64 0 00-.28-.06h-.04a.2.2 0 00-.11 0 .16.16 0 00-.12.17.18.18 0 00.06.13.53.53 0 00.15.08l.22.06.25.05.25.04a.57.57 0 01.22.11.52.52 0 01.16.17.53.53 0 01.06.26.69.69 0 01-.09.36.73.73 0 01-.22.24.87.87 0 01-.33.12 1.47 1.47 0 01-.36 0 1.64 1.64 0 01-.38 0 .83.83 0 01-.32-.13.63.63 0 01-.23-.23.62.62 0 01-.1-.37H65a.31.31 0 000 .17m3-1.61v.4h-.44v1.09c0 .1 0 .17.05.2s.1 0 .2 0H68v.46h-.62a.72.72 0 01-.22-.08.39.39 0 01-.15-.16.48.48 0 01-.06-.26v-1.3h-.35v-.4h.4v-.66h.61v.66zm1.78 2.19V38a.56.56 0 01-.3.27.81.81 0 01-.37.09 1.16 1.16 0 01-.4-.06.76.76 0 01-.24-.18.86.86 0 01-.13-.29 2.05 2.05 0 010-.37v-1.37h.6v1.24a.7.7 0 00.09.4.31.31 0 00.3.14.4.4 0 00.35-.15.77.77 0 00.11-.48v-1.15h.61v2.19zm1.61-2.19v.3a.7.7 0 01.3-.27.84.84 0 01.37-.09 1.09 1.09 0 01.4.06.58.58 0 01.24.19.56.56 0 01.13.28 2.1 2.1 0 010 .37v1.35h-.61V37a.83.83 0 00-.08-.4.34.34 0 00-.3-.14.41.41 0 00-.36.15.85.85 0 00-.11.48v1.15h-.6v-2.15zm3.19 1.63a.58.58 0 00.17-.14.66.66 0 00.09-.19.91.91 0 000-.23 2.11 2.11 0 000-.26.67.67 0 00-.09-.21.54.54 0 00-.15-.15.49.49 0 00-.25-.06.48.48 0 00-.22.05.5.5 0 00-.15.14.72.72 0 00-.09.2 1 1 0 000 .24 1.64 1.64 0 000 .23 1 1 0 00.08.21.44.44 0 00.39.22.51.51 0 00.22-.05m.83.73a.75.75 0 01-.15.31 1 1 0 01-.35.25 1.44 1.44 0 01-.6.1 1.24 1.24 0 01-.33 0 1.05 1.05 0 01-.31-.12.8.8 0 01-.23-.22.67.67 0 01-.1-.32h.6a.34.34 0 00.16.23.57.57 0 00.29.07.44.44 0 00.37-.15.56.56 0 00.11-.39v-.29a.57.57 0 01-.27.26 1 1 0 01-.38.08.94.94 0 01-.43-.09.66.66 0 01-.29-.23 1 1 0 01-.17-.36 1.86 1.86 0 010-.42 1.35 1.35 0 01.06-.41 1.06 1.06 0 01.18-.35.89.89 0 01.3-.24.84.84 0 01.4-.09.89.89 0 01.38.08.59.59 0 01.27.27v-.29h.58v2a2 2 0 010 .31" fill="#3b3b3a"/><path d="M50.84 4.35h.06l4 11.2h-8.13zm-1.69-2.89l-9.35 24h3.27l2.69-7.23h10.15l2.63 7.23h3.53l-9.38-24zm-32.05 9.2a5.93 5.93 0 00.9-3.32 5.42 5.42 0 00-.82-3.06 6.29 6.29 0 00-2-1.95 4.15 4.15 0 00-1.3-.5 12.69 12.69 0 00-1.63-.25c-.58-.06-1.17-.09-1.77-.1s-1.15 0-1.66 0H.13v24h11.6a7.76 7.76 0 003.15-.59 6.89 6.89 0 002.28-1.54 6.49 6.49 0 001.4-2.21 7.2 7.2 0 00.44-2.56 6 6 0 00-1.18-3.77 5.53 5.53 0 00-3.39-2v-.06a5.5 5.5 0 002.64-2.07m-13.75 3.8h7.3a10.4 10.4 0 012 .18 4.84 4.84 0 011.67.64 3.35 3.35 0 011.16 1.23 3.91 3.91 0 01.43 1.95 4.15 4.15 0 01-1.19 3.16 4.61 4.61 0 01-3.31 1.14h-8zM14.83 8a3.47 3.47 0 01-1.2 2.88 6.35 6.35 0 01-3.92.95H3.32V4.15h6.39a15.33 15.33 0 012 .12 4.34 4.34 0 011.63.52 2.9 2.9 0 011.11 1.14 4.25 4.25 0 01.41 2m14.07-6.47h3.2v24.01h-3.2zM75 4.74a6.7 6.7 0 00-4.1-1.16 9.46 9.46 0 00-2 .2 5.29 5.29 0 00-1.73.67A3.65 3.65 0 0066 5.71a4 4 0 00-.45 2 2.53 2.53 0 00.65 1.8 4.86 4.86 0 001.75 1.13 14.79 14.79 0 002.47.72c.92.19 1.86.4 2.81.62s1.89.49 2.81.79A9.67 9.67 0 0178.48 14a5.58 5.58 0 012.41 4.91 6 6 0 01-.89 3.25 7.07 7.07 0 01-2.2 2.22 9.47 9.47 0 01-3 1.24 14.54 14.54 0 01-3.3.38 14.31 14.31 0 01-3.81-.5 9.63 9.63 0 01-3.17-1.5 7.4 7.4 0 01-2.15-2.63 8.36 8.36 0 01-.79-3.78h3a5.35 5.35 0 00.59 2.61 5.47 5.47 0 001.57 1.8A6.69 6.69 0 0069 23a10.45 10.45 0 002.62.33 11.38 11.38 0 002.17-.2 6.13 6.13 0 002-.69 3.8 3.8 0 001.41-1.32 4 4 0 00.49-2.12 3.06 3.06 0 00-.69-2 5 5 0 00-1.75-1.26 13.27 13.27 0 00-2.47-.79L70 14.29c-1-.21-1.89-.46-2.81-.74a10 10 0 01-2.47-1.11A5.23 5.23 0 0163 10.66a5.22 5.22 0 01-.66-2.74 6.43 6.43 0 01.74-3.15 6.44 6.44 0 012-2.18 8.68 8.68 0 012.79-1.28A12.29 12.29 0 0171 .89a12.84 12.84 0 013.43.43 8.05 8.05 0 012.81 1.38 6.75 6.75 0 011.88 2.37 8.62 8.62 0 01.76 3.42h-3A5 5 0 0075 4.74m5.79-3.28v2.69h8.01v21.32H92V4.15h8V1.46H80.79z" fill="#70706f"/><path fill="#a8a8a9" d="M33.01 1.46h11.71v2.69H33.01z"/><path fill="#eb5d6c" d="M19.03 12.12h9.02v2.69h-9.02z"/><path fill="#ffe600" d="M33.01 12.12h9.02v2.69h-9.02z"/></svg>