<svg xmlns="http://www.w3.org/2000/svg" viewBox="0 0 235.26 55.15"><defs><clipPath id="clip-path" transform="translate(-3.18 -2.62)"><path fill="none" d="M0 0h242v61H0z"/></clipPath><style>.cls-2{clip-path:url(#clip-path)}.cls-27{fill:#f36018}.cls-16{letter-spacing:.01em}.cls-19{letter-spacing:.28em}.cls-23{letter-spacing:.01em}</style></defs><g id="Ebene_2" data-name="Ebene 2"><g class="cls-2" id="Ebene_1-2" data-name="Ebene 1"><g class="cls-2"><text transform="translate(148.41 43.18)" font-family="MicrosoftSansSerif,Microsoft Sans Serif" fill="#f36018" font-size="9.97"><tspan letter-spacing="-.03em">I</tspan><tspan x="2.5" y="0" letter-spacing="0">n</tspan><tspan x="8.05" y="0" letter-spacing=".01em">t</tspan><tspan x="10.88" y="0">e</tspan><tspan x="16.43" y="0" letter-spacing=".01em">r</tspan><tspan x="19.89" y="0">na</tspan><tspan x="30.98" y="0" letter-spacing=".02em">t</tspan><tspan x="33.92" y="0">ion</tspan><tspan x="47.29" y="0" letter-spacing="-.02em">a</tspan><tspan x="52.66" y="0" letter-spacing=".26em">l</tspan><tspan x="57.57" y="0">H</tspan><tspan x="64.77" y="0" letter-spacing=".02em">e</tspan><tspan x="70.56" y="0" letter-spacing="-.01em">a</tspan><tspan x="75.96" y="0" letter-spacing=".01em">l</tspan><tspan x="78.34" y="0" letter-spacing=".02em">t</tspan><tspan x="81.3" y="0">h</tspan></text><text transform="translate(88.32 52.55)" font-size="7.63" fill="#4d2b1a" font-family="MicrosoftSansSerif,Microsoft Sans Serif"><tspan class="cls-16">a</tspan><tspan x="4.31" y="0" letter-spacing=".28em">t</tspan><tspan x="8.6" y="0" letter-spacing=".02em">t</tspan><tspan class="cls-16" x="10.88" y="0">h</tspan><tspan class="cls-19" x="15.19" y="0">e</tspan><tspan x="21.6" y="0" letter-spacing="-.01em">U</tspan><tspan class="cls-16" x="27.03" y="0">ni</tspan><tspan x="33.15" y="0" letter-spacing="0">v</tspan><tspan x="36.96" y="0" letter-spacing=".01em">e</tspan><tspan class="cls-16" x="41.26" y="0">r</tspan><tspan class="cls-23" x="43.87" y="0">s</tspan><tspan class="cls-16" x="47.76" y="0">i</tspan><tspan x="49.56" y="0" letter-spacing=".03em">t</tspan><tspan x="51.9" y="0" letter-spacing=".29em">y</tspan><tspan class="cls-16" x="57.9" y="0">Ho</tspan><tspan class="cls-23" x="67.78" y="0">s</tspan><tspan x="71.67" y="0" letter-spacing=".01em">pita</tspan><tspan class="cls-19" x="84.29" y="0">l</tspan><tspan class="cls-16" x="88.19" y="0">Heidelbe</tspan><tspan x="118.94" y="0">rg</tspan></text><path class="cls-27" d="M132.81 27h-3.36v18.84h3.36V32.31q2.56-3 5.13-3a3.28 3.28 0 012.71 1 5.31 5.31 0 01.83 3.33v12.2h3.36V33.49q0-7-6.39-7a7.4 7.4 0 00-5.64 2.83V27" transform="translate(-3.18 -2.62)"/><path class="cls-27" d="M53.63 24.08l-6.55 14.78-6.55-14.78h-3.64l8.7 18.89h2.99l8.69-18.89h-3.64"/><path class="cls-27" d="M36.06 34.32H25.44a6.74 6.74 0 011.84-4.09 5.15 5.15 0 016.94 0 6.88 6.88 0 011.84 4.08M39.6 37v-.8q0-4.72-2.41-7.3a8.42 8.42 0 00-6.46-2.58 8.33 8.33 0 00-6.39 2.63 10.17 10.17 0 00-2.45 7.25 10 10 0 002.52 7.27 8.91 8.91 0 006.7 2.53 9.27 9.27 0 005.49-1.59 6.28 6.28 0 002.65-4.5h-3.48a3 3 0 01-1.49 2.56 5.77 5.77 0 01-3.17.9 5.37 5.37 0 01-3.93-1.59 7.29 7.29 0 01-1.8-4.78zm34.99 3.62a6.23 6.23 0 01-2.45 2 7.22 7.22 0 01-3.2.75 4.78 4.78 0 01-2.88-.78A2.55 2.55 0 0165 40.41q0-4 7.3-4h2.3v4.19m3.34 5V33.38q0-4.23-2-5.67a9.65 9.65 0 00-5.66-1.44q-7.77 0-8.15 5.82h3.34c.1-2.14 1.64-3.2 4.63-3.2a6.17 6.17 0 013.12.6A2.45 2.45 0 0174.37 31a13.64 13.64 0 01.22 3H73q-11.41 0-11.42 6.62a4.88 4.88 0 001.82 3.93A7 7 0 0068 46a9.31 9.31 0 006.61-2.38v1.94zM94.91 36a9.74 9.74 0 01-1.28 5.54 4 4 0 01-3.45 1.87 6.63 6.63 0 01-5-2.3v-9q2.3-3.22 5.09-3.23a3.87 3.87 0 013.39 1.8 9.62 9.62 0 011.2 5.3m3.48 0a11.31 11.31 0 00-2-7.09 7.15 7.15 0 00-11.11.11v-2.31h-3.36v28.42h3.36v-11A7.36 7.36 0 0090.39 46a7.17 7.17 0 005.73-2.7 11.05 11.05 0 002.27-7.3zm23.82 4.9a6.17 6.17 0 01-2.43 2 7.33 7.33 0 01-3.21.75 4.78 4.78 0 01-2.88-.78 2.57 2.57 0 01-1.07-2.22c0-2.64 2.43-4 7.3-4h2.29v4.19m3.35 5V33.63c0-2.81-.67-4.7-2-5.66a9.65 9.65 0 00-5.66-1.44q-7.78 0-8.15 5.82h3.3q.15-3.2 4.63-3.2a6.17 6.17 0 013.12.6 2.43 2.43 0 011.25 1.52 14.69 14.69 0 01.21 2.95h-1.63q-11.41 0-11.42 6.62a4.91 4.91 0 001.82 3.93 7 7 0 004.63 1.52 9.27 9.27 0 006.6-2.39v1.94z" transform="translate(-3.18 -2.62)"/><path class="cls-27" d="M98.8 16.32h3.36v26.87H98.8z"/><path d="M55.67 13.38c-4.65-8.13-13-13-23.29-13a27.12 27.12 0 100 54.24m16.44-43.76A27.45 27.45 0 002.04 37.8M39.88 5.67a26.76 26.76 0 00-28 44.62" stroke="#f36018" stroke-width=".91" fill="none"/></g></g></g></svg>