<svg version="1.1" id="Ebene_1" xmlns="http://www.w3.org/2000/svg" xmlns:xlink="http://www.w3.org/1999/xlink" x="0" y="0" viewBox="0 0 351.3 218.8" xml:space="preserve"><style>.st1,.st2{clip-path:url(#SVGID_2_)}.st2{fill:#ffe50b}</style><defs><path id="SVGID_1_" d="M-10.8 29.9h373v223h-373z"/></defs><clipPath id="SVGID_2_"><use xlink:href="#SVGID_1_" overflow="visible"/></clipPath><path d="M204.9 80v-1.5h2.5v2.1c.3-.5 1.2-2.4 4.3-2.4 1.2 0 4.8.4 4.8 4.5v8.9H214v-8.3c0-.9-.1-1.6-.7-2.2-.6-.6-1.5-.9-2.4-.9-1.8 0-3.5 1.3-3.5 3.9v7.5h-2.5V80zm17 5.4c-.1 2.7 1.1 4.7 3.8 4.7 1.6 0 2.9-.8 3.1-2.7h2.5c-.1.7-.2 1.7-1.1 2.7-.6.6-1.9 1.7-4.6 1.7-4.2 0-6.2-2.5-6.2-6.7 0-2.6.5-4.7 2.6-6.1 1.3-.9 2.9-1 3.7-1 6 0 5.9 5.2 5.8 7.3h-9.6zm7.1-1.7c0-1.2-.2-3.9-3.3-3.9-1.6 0-3.6 1-3.7 3.9h7zm4.2-5.3h2.4v-2.7l2.5-.8v3.5h3v1.8h-3V88c0 .6 0 1.7 1.8 1.7.5 0 1-.1 1.2-.1v1.9c-.5.1-1.2.2-2.1.2-2.3 0-3.4-.7-3.4-2.8v-8.7h-2.4v-1.8zm9.6 10.6l7.2-8.7h-6.8v-1.8h9.6v2l-7.4 9.1h7.4v1.9h-10zm14.1-10.5l3.2 10.4 3.4-10.4h3.3l3 10.3 3.4-10.3h2.6l-4.7 13h-2.9L265 80.8l-3.4 10.7h-3l-4.4-13zm23 6.9c-.1 2.7 1.1 4.7 3.8 4.7 1.6 0 2.9-.8 3.1-2.7h2.5c-.1.7-.2 1.7-1.1 2.7-.6.6-1.9 1.7-4.6 1.7-4.2 0-6.2-2.5-6.2-6.7 0-2.6.5-4.7 2.6-6.1 1.3-.9 2.9-1 3.7-1 6 0 5.9 5.2 5.8 7.3h-9.6zm7.1-1.7c0-1.2-.2-3.9-3.3-3.9-1.6 0-3.6 1-3.7 3.9h7zm6.3-2.6c0-.9-.1-1.8-.1-2.7h2.5l.1 2.5c.5-1.8 2.1-2.4 3.2-2.6.8-.1 1.3-.1 1.7-.1v2.4c-.1-.1-.3-.1-.5-.1h-.7c-3 0-3.6 1.7-3.6 4v7h-2.5V81.1zm10.1-8.5h2.5v11.2l5-5.3h3.3l-5.7 5.5 6 7.5h-3.3l-5.3-7v7h-2.5zM207.1 111v8.4c0 1.3.3 2.9 2.8 2.9 1.3 0 2.4-.4 3.1-1.5.6-.8.6-1.8.6-2.4V111h2.6v10.6c0 .3.1 1.7.1 2.4h-2.6l-.1-2.2c-.5.9-1.4 2.4-4.3 2.4-3.3 0-4.8-1.8-4.8-4.4V111h2.6zm14.1 1.5V111h2.5v2.1c.3-.5 1.2-2.4 4.3-2.4 1.2 0 4.8.4 4.8 4.5v8.9h-2.6v-8.3c0-.9-.1-1.6-.7-2.2-.6-.6-1.5-.9-2.4-.9-1.8 0-3.5 1.3-3.5 3.9v7.5h-2.5v-11.6zm15.7-7.2h3v2.7h-3v-2.7zm.2 5.7h2.5v13.1h-2.5V111zm5.9 0h2.8l4.3 10.4 4.1-10.4h2.8l-5.9 13.1h-2.5zm18.4 7c-.1 2.7 1.1 4.7 3.8 4.7 1.6 0 2.9-.8 3.1-2.7h2.5c-.1.7-.2 1.7-1.1 2.7-.6.6-1.9 1.7-4.6 1.7-4.2 0-6.2-2.6-6.2-6.7 0-2.6.5-4.7 2.6-6.1 1.3-.9 2.9-1 3.6-1 6 0 5.9 5.2 5.8 7.3h-9.5zm7-1.7c0-1.3-.2-3.9-3.3-3.9-1.6 0-3.6 1-3.7 3.9h7zm6.4-2.6c0-.9-.1-1.8-.1-2.7h2.5l.1 2.5c.5-1.8 2.1-2.4 3.2-2.6.7-.1 1.3-.1 1.7-.1v2.4c-.1-.1-.3-.1-.5-.1h-.7c-3 0-3.7 1.7-3.7 4v7h-2.5v-10.4zm12.2 6.5c0 1 .5 2.4 2.9 2.4 1 0 1.8-.2 2.3-.8.3-.3.4-.8.4-1.2 0-1.3-.9-1.5-2.9-2-2.8-.6-5.1-1.2-5.1-3.9 0-2.4 2.1-4 5.2-4 1.7 0 4 .5 4.8 2 .3.7.3 1.4.3 1.9h-2.6c.1-2-1.7-2.1-2.6-2.1-.4 0-2.7 0-2.7 1.9 0 1.2 1.2 1.5 1.9 1.7 3.7.9 4.5 1.1 5.3 1.8.7.7 1 1.6 1 2.4 0 1.5-.8 2.7-1.8 3.3-1.2.7-2.6.9-4 .9-2.7 0-5.3-1.1-5.2-4.2h2.8zm11.6-14.9h3v2.7h-3v-2.7zm.3 5.7h2.5v13.1h-2.5V111zm5.3-.1h2.4v-2.7l2.5-.8v3.5h3v1.8h-3v7.8c0 .6 0 1.7 1.8 1.7.5 0 1-.1 1.2-.1v1.9c-.5.1-1.2.2-2.1.2-2.3 0-3.4-.7-3.4-2.8v-8.7h-2.4v-1.8zm19.1 13.2c-.2-.7-.2-1.3-.2-2-1.2 2.2-3 2.4-4.1 2.4-3.1 0-4.7-1.7-4.7-3.9 0-1 .4-2.7 2.3-3.8 1.4-.8 3.6-.9 4.6-.9.6 0 1 0 1.8.1 0-1.6 0-2.3-.5-2.9-.5-.6-1.6-.9-2.3-.9-2.5 0-2.7 1.7-2.7 2.2H315c.1-.7.2-1.6.9-2.5 1-1.1 2.9-1.4 4.3-1.4 1.9 0 4 .6 4.7 1.9.4.8.5 1.4.5 2l-.1 6.2c0 .2 0 2 .2 3.3h-2.2zm-6.9-18.8h2.4v2.7h-2.4v-2.7zm5.2 12.3c-1 0-4.8 0-4.8 2.7 0 .8.5 2.3 2.8 2.3 1.3 0 2.2-.5 2.8-1.4.6-.9.6-1.6.6-3.4-.4-.1-.8-.2-1.4-.2m-.1-12.3h2.5v2.7h-2.5v-2.7zm6.4 5.6h2.4v-2.7l2.5-.8v3.5h3v1.8h-3v7.8c0 .6 0 1.7 1.8 1.7.5 0 1-.1 1.2-.1v1.9c-.5.1-1.2.2-2.1.2-2.3 0-3.4-.7-3.4-2.8v-8.7h-2.4v-1.8zm12.4 9.3c0 1 .5 2.4 2.9 2.4 1 0 1.8-.2 2.3-.8.3-.3.4-.8.4-1.2 0-1.3-.9-1.5-2.9-2-2.8-.6-5.1-1.2-5.1-3.9 0-2.4 2.1-4 5.2-4 1.7 0 4 .5 4.8 2 .3.7.3 1.4.3 1.9h-2.6c.1-2-1.7-2.1-2.6-2.1-.4 0-2.7 0-2.7 1.9 0 1.2 1.2 1.5 1.9 1.7 3.7.9 4.5 1.1 5.3 1.8.7.7 1 1.6 1 2.4 0 1.5-.8 2.7-1.8 3.3-1.2.7-2.6.9-4 .9-2.7 0-5.3-1.1-5.2-4.2h2.8zm-136 25.7c0-.8-.1-1.6-.1-2.5h3.8l.1 1.7c.4-.6 1.5-2 4.2-2 3.1 0 4 1.9 4.2 2.5 1.1-2.1 2.9-2.4 4.3-2.4 2.7 0 3.8 1.6 4.1 2.1.7 1.1.7 2.7.7 3.9v7.4h-4v-7.7c0-1.4-.2-3-2.3-3-2.4 0-2.4 2.2-2.4 4.1v6.6h-4v-7.8c0-1 0-2.9-2.2-2.9-2.5 0-2.5 2.1-2.5 3v7.7h-4v-10.7zm27.5 5.1c0 .9 0 3.5 2.7 3.5 1 0 2-.4 2.3-1.8h3.6c-.1.6-.2 1.7-1.3 2.9-1 1-2.7 1.5-4.7 1.5-1.1 0-3.3-.2-4.7-1.6-1.2-1.3-1.7-3-1.7-5.1 0-2.1.5-4.7 2.8-6.2 1-.7 2.3-1.1 3.8-1.1 1.9 0 4.2.7 5.4 3.2.9 1.8.9 3.7.8 4.8h-9zm5.1-2.4c0-.6-.1-2.9-2.3-2.9-1.7 0-2.4 1.4-2.5 2.9h4.8zm15.5-10.8h4v16.7c0 .8.1 1.6.1 2.1h-4l-.1-1.9c-.3.5-.5 1-1.4 1.5-1 .6-2 .7-2.6.7-3.6 0-5.7-2.4-5.7-6.5 0-4.3 2.4-7.1 5.9-7.1 2.4 0 3.4 1.3 3.8 1.8v-7.3zm-3 16.6c1.1 0 2.1-.7 2.5-1.5.6-1.1.6-2.4.6-3.1 0-2.6-1.2-4-2.9-4-2.6 0-2.9 3.1-2.9 4.4 0 2.2.7 4.2 2.7 4.2m10.2-16.6h4.2v3.4h-4.2v-3.4zm.2 5.6h3.9v13.2h-3.9v-13.2zm6.5 9.8l6.8-7.2h-6.6v-2.6h11v3.4l-6.8 7.1h7.1v2.7h-11.5zm14.1-15.4h4.2v3.4h-4.2v-3.4zm.1 5.6h3.9v13.2h-3.9v-13.2zm7.5 2.4c0-.1 0-1.5-.1-2.4h3.8l.1 2c.4-.6 1.4-2.3 4.4-2.3 2.6 0 3.8 1.6 4.1 2.5.3.8.4 1.5.4 3.9v7.1h-4v-8.2c0-.5 0-1-.2-1.4-.3-.6-.9-1.1-1.9-1.1-.9 0-1.6.4-2.1 1-.2.3-.5 1-.5 2v7.7h-4v-10.8z" clip-path="url(#SVGID_2_)" fill="#3c3c3b"/><path class="st1" d="M78 99.2l-.1.2h.2zm75.5.2h34v-1.3h-34.4l-.5.5zm-39.1-1.3H79.2l-.3.3 1 1h34.5zm-37.5 0H39.3v1.3h36.8l1-1zm111.8 0H203v1.2h-14.3zm-36.5 36.7h34.7l.5-.5-.7-.8h-34.5zm-109.3-1.3l-1.2 1.3h37.4v-1.3zm108 0h-34l-1 1 .3.3h34.7zm37.9.3l-.1.1v.3l.3.3-.3.2v.1h13v-1.3h-13v.3zm-186-.3v1.3h37.1l1.2-1.3zm305 35.7H188.7v.6h-1.2v-.6h-34.1l-1 1 .3.2h155.1zm-268 0v1.2h37.5l1.3-1.2zm40.5 0l-1.2 1.2h35.3v-1.2z"/><path class="st1" d="M77.9 99.4l.1-.2-.9-.8-1 1-35 34.1-1.2 1.3-37.1 36.1.9.9 38-37 1.2-1.3zm45.7-44.7l-.9-.9-7 6.9v1.8zM78.9 98.4l.3-.3 35.2-34.4v-1.8L78 97.5zm36.8 74.5V136l-.7-.6-.6.5v69.7l1.3-1.3z"/><path class="st1" d="M114.4 98.1v35l.6.5.7-.7V64.2l-1.3-1.2.9-.9.4.4v-1.8l-1.3 1.2v1.8zm0 119.8h1.3v-11.8l-1.3 1.2zm37.8-120.6V63h-1.3v33.9l.9.8zm0 71.4V99.9l-.4-.5-.9.8v68.5l.6.6zm-1.3 2.9v35.2h1.3v-35.1l-.7-.6zm36.6-39l1.2 1.2V29.9h-1.2v69.5zm1.2 1.3l-.2.2.2.1zm-1.2 2.1v33.8h1.2v-35.1z"/><path class="st2" d="M149 166.8v.1-.1z"/><path class="st1" d="M188.7 134.7l.3-.2-.3-.3-.2-.1-.6.6-.5-.4-.5.5-34.7 33.9-.7.6.9.9 1-1 34.1-33.2zm-73 69.6l-1.3 1.3-11.1 10.8.9.9 10.2-10 1.3-1.2 35.2-34.5.6-.5-.9-.9"/><path class="st1" d="M150.6 170.2l.9.9.7.6 36 35.1.9-.8-36.4-35.6-.3-.2-.9-.9-.6-.6-1.9-1.8v-.1l-32.8-32-.3-.3-.9.9.7.6m-1.6-1.5l.9-.9-.6-.5-34.5-33.7-1-1-.9-.9-37.8-36.9-.9.9 37.6 36.6.2.3.9.8.1.2m74.5-.8l.5-.5 25.8-25.2-.9-.9-25.8 25.3-.4.4z"/><path class="st1" d="M78.6 169.2l-1.3 1.2L29.6 217l.9.9 48.6-47.5 1.2-1.2 34.1-33.3.6-.5.9-.9 1-1 34-33.3.9-.8-.9-.8m-35.2 34.3l-.7.7-.9.9"/><path class="st1" d="M150.9 98.6l.9.8.4.5 34.5 33.6.7.8.5.4.6-.6.2-.2.1-.1h-.1l-1.2-1.2-34-33.2-.9-.8-.8-.9-.9-.8-35.2-34.4-.4-.4-.9.9 1.3 1.2"/><path class="st2" d="M115.7 172.9h32.1l2.8-2.7-3.4-3.4h-31.5z"/><path clip-path="url(#SVGID_2_)" fill="#eb586a" d="M114.1 134.5l-2.9-2.9H79.1v6.2h31.6z"/><path clip-path="url(#SVGID_2_)" fill="#706f6f" d="M147.9 95.7h-32.2v6.1h31.8l3.4-3.2z"/></svg>