<svg xmlns="http://www.w3.org/2000/svg" viewBox="0 0 151.7 76.11"><defs><style>.cls-1{fill:#1d1d1b}</style></defs><g id="Ebene_2" data-name="Ebene 2"><g id="Ebene_2-2" data-name="Ebene 2"><path class="cls-1" d="M55.78 3.55a2.94 2.94 0 01-.13.93 2.25 2.25 0 01-.36.69 2 2 0 01-.54.47 2.5 2.5 0 01-.63.27 2.19 2.19 0 01.75.28 2.34 2.34 0 01.61.52 2.4 2.4 0 01.41.74 2.52 2.52 0 01.16.93 2.89 2.89 0 01-.21 1.11 2.22 2.22 0 01-.65.88 3.18 3.18 0 01-1.1.58 5.75 5.75 0 01-1.59.2h-2.1V.93h2a5.43 5.43 0 011.55.19 2.92 2.92 0 011.05.52 2.06 2.06 0 01.61.83 3.06 3.06 0 01.17 1.08zm-1.3 0A1.49 1.49 0 0054 2.42 2.31 2.31 0 0052.38 2h-.68v3.49h.66A2.25 2.25 0 0053.94 5a1.84 1.84 0 00.54-1.41zm.19 4.73A1.68 1.68 0 0054.13 7a2.29 2.29 0 00-1.56-.48h-.87v3.59h.8a2.51 2.51 0 001.66-.45 1.7 1.7 0 00.51-1.34zm8 2.86h-1.1v-.8a1.24 1.24 0 01-.19.26 1.8 1.8 0 01-.38.33 2.66 2.66 0 01-.56.27 2.05 2.05 0 01-.72.12 2.54 2.54 0 01-.86-.14 1.53 1.53 0 01-.65-.45 2.19 2.19 0 01-.4-.81 4.34 4.34 0 01-.14-1.23V4.05h1.2v4.59a2.14 2.14 0 00.29 1.27 1 1 0 00.9.38 1.38 1.38 0 00.87-.26 2.92 2.92 0 00.57-.51V4.05h1.2zm5.74 0V6.59a2.11 2.11 0 00-.31-1.3 1.1 1.1 0 00-.93-.39 1.45 1.45 0 00-.89.27 3.18 3.18 0 00-.56.52v5.49h-1.25V4.05h1.1v.8a1.82 1.82 0 01.2-.26 1.78 1.78 0 01.38-.32 2.52 2.52 0 01.6-.27 2.13 2.13 0 01.74-.12 2.54 2.54 0 01.86.14 1.61 1.61 0 01.66.46 2.13 2.13 0 01.41.81 4.28 4.28 0 01.15 1.22v4.68zM71 7.72a5 5 0 01.29-1.81 3.33 3.33 0 01.72-1.18 2.77 2.77 0 011-.63 3.75 3.75 0 011.13-.18 3.45 3.45 0 01.6.05 1.65 1.65 0 01.41.13V.68l1.26-.14v10.64h-1.1v-.75a2 2 0 01-.49.55 1.82 1.82 0 01-.52.27 2.29 2.29 0 01-.73.11 2.39 2.39 0 01-1-.2 2.1 2.1 0 01-.8-.64 3.6 3.6 0 01-.54-1.13A6.21 6.21 0 0171 7.72zm2.83 2.57a1.59 1.59 0 00.5-.07 1.42 1.42 0 00.39-.19A1.25 1.25 0 0075 9.8a1.3 1.3 0 00.17-.21V5.2a1.68 1.68 0 00-.35-.2 1.62 1.62 0 00-.54-.08 2.21 2.21 0 00-.78.14 1.58 1.58 0 00-.63.47 2.33 2.33 0 00-.42.85 4.29 4.29 0 00-.16 1.28 4.86 4.86 0 00.13 1.24 2.2 2.2 0 00.35.8 1.3 1.3 0 00.5.44 1.38 1.38 0 00.6.15zm9-3.83v.79c0 .22 0 .42-.06.59H79.1a3.21 3.21 0 00.54 1.86 1.69 1.69 0 001.39.59 2 2 0 00.56-.07A2 2 0 0082 10a2.08 2.08 0 00.31-.21l.19-.16.44.84-.22.22a2 2 0 01-.4.28 2.76 2.76 0 01-.62.25 3.28 3.28 0 01-.88.1 3.11 3.11 0 01-1.21-.22 2.31 2.31 0 01-.92-.69 3.24 3.24 0 01-.59-1.19 6.25 6.25 0 01-.21-1.73 5.29 5.29 0 01.22-1.64 3.39 3.39 0 01.58-1.14 2.29 2.29 0 01.87-.66 2.47 2.47 0 011-.22 2.07 2.07 0 011.61.65 2.86 2.86 0 01.66 1.98zm-2.26-1.61a1.21 1.21 0 00-1 .54 2.87 2.87 0 00-.44 1.54h2.6v-.52a1.92 1.92 0 00-.3-1.15 1 1 0 00-.86-.41zm6.94.64a3.28 3.28 0 00-.43-.36 1.33 1.33 0 00-.82-.23 1.06 1.06 0 00-.73.22.69.69 0 00-.25.54 1 1 0 00.23.66 3.15 3.15 0 00.7.55l.45.27a4.42 4.42 0 011.14.93 1.93 1.93 0 01.42 1.29 1.92 1.92 0 01-.59 1.42 2.27 2.27 0 01-1.68.58 2.88 2.88 0 01-.76-.09 3.11 3.11 0 01-.57-.21 1.93 1.93 0 01-.41-.25 3.42 3.42 0 01-.27-.27l.58-.95.21.21a1.92 1.92 0 00.27.2 1.57 1.57 0 00.92.26 1.23 1.23 0 00.82-.24.74.74 0 00.28-.58A1.14 1.14 0 0087 9a.9.9 0 00-.2-.34 2.21 2.21 0 00-.32-.28L86 8.12l-.44-.28a4.2 4.2 0 01-1-.91 1.83 1.83 0 01-.38-1.21 1.67 1.67 0 01.59-1.32 2.4 2.4 0 01.63-.4 2.46 2.46 0 01.81-.14 2.29 2.29 0 011.23.29 2.8 2.8 0 01.36.26l.23.21zm5.86 5.69V6.59a2.38 2.38 0 00-.25-1.26.9.9 0 00-.82-.39 1.67 1.67 0 00-.52.08 2 2 0 00-.41.18 2 2 0 00-.31.25l-.23.24v5.49h-1.2V4.05h1.1v.8a2.78 2.78 0 01.27-.29 2.37 2.37 0 01.37-.32 2 2 0 01.5-.24 2 2 0 01.67-.11 1.81 1.81 0 011.73 1 2.35 2.35 0 01.28-.32 2.75 2.75 0 01.45-.38 2.66 2.66 0 01.5-.19 2.27 2.27 0 01.65-.09c1.45 0 2.17.84 2.17 2.53v4.78h-1.2V6.59a2.08 2.08 0 00-.31-1.26 1.12 1.12 0 00-.92-.39 1.33 1.33 0 00-.84.25 2.83 2.83 0 00-.53.47 3.39 3.39 0 010 .35v5.17zm7.95 0h-1.2V4.05h1.2zm-.59-8.85a.75.75 0 01-.59-.24.88.88 0 01-.23-.62.85.85 0 01.23-.61.83.83 0 011.17 0 .85.85 0 01.22.61.87.87 0 01-.22.62.75.75 0 01-.58.24zm6.33 8.85V6.59a2.18 2.18 0 00-.3-1.3 1.12 1.12 0 00-.93-.39 1.41 1.41 0 00-.89.27 2.94 2.94 0 00-.57.52v5.49h-1.2V4.05h1.1v.8a1.57 1.57 0 01.19-.26 2.07 2.07 0 01.38-.32 2.52 2.52 0 01.57-.28 2.17 2.17 0 01.74-.12A2.54 2.54 0 01107 4a1.61 1.61 0 01.66.46 2.14 2.14 0 01.42.81 4.71 4.71 0 01.14 1.22v4.68zm4.21 0h-1.21V4.05h1.21zm-.6-8.85a.76.76 0 01-.59-.24.88.88 0 01-.23-.62.85.85 0 01.23-.61.83.83 0 011.17 0 .85.85 0 01.22.61.87.87 0 01-.22.62.75.75 0 01-.58.24zm5.51 3.16a2.71 2.71 0 00-.43-.36 1.31 1.31 0 00-.82-.23 1 1 0 00-.72.22.7.7 0 00-.26.54 1 1 0 00.23.66 3.24 3.24 0 00.71.55l.45.27a4.59 4.59 0 011.14.93 1.93 1.93 0 01.42 1.29 1.92 1.92 0 01-.59 1.42 2.28 2.28 0 01-1.69.58 2.75 2.75 0 01-.75-.09 3.54 3.54 0 01-.58-.21 2.22 2.22 0 01-.41-.25l-.26-.27.58-.95.21.21a1.92 1.92 0 00.31.23 1.48 1.48 0 00.4.19 1.6 1.6 0 00.52.07 1.21 1.21 0 00.81-.24.72.72 0 00.29-.58 1.38 1.38 0 00-.07-.43 1.05 1.05 0 00-.2-.34 1.87 1.87 0 00-.33-.28l-.44-.3-.45-.28a4.59 4.59 0 01-1-.91 1.88 1.88 0 01-.38-1.21A1.78 1.78 0 01113 5a1.66 1.66 0 01.44-.58 2.2 2.2 0 011.47-.53 2.9 2.9 0 01.71.08 2.81 2.81 0 01.52.21 2.12 2.12 0 01.35.26l.23.21zm5.17-.49h-1.56v4a1.94 1.94 0 00.2 1 .73.73 0 00.65.27 1.27 1.27 0 00.46-.07 1.43 1.43 0 00.28-.14l.17 1a2.43 2.43 0 01-.36.19 2 2 0 01-.76.12 1.77 1.77 0 01-1.38-.51 2.51 2.51 0 01-.46-1.7V5h-.86v-.8l.86-.18.13-2h1.07v2h1.71zm5.84 1.43v.79c0 .22 0 .42-.06.59h-3.64A3.14 3.14 0 00124 9.7a1.69 1.69 0 001.38.59 2 2 0 00.57-.07 2.24 2.24 0 00.44-.18 2.08 2.08 0 00.31-.21l.19-.16.44.84-.22.22a2 2 0 01-.4.28 2.67 2.67 0 01-.63.25 3.2 3.2 0 01-.87.1 3.11 3.11 0 01-1.21-.22 2.34 2.34 0 01-.93-.69 3.39 3.39 0 01-.58-1.19 6.25 6.25 0 01-.21-1.73 5.64 5.64 0 01.21-1.64 3.4 3.4 0 01.59-1.14 2.26 2.26 0 01.86-.66 2.52 2.52 0 011.06-.22 2.07 2.07 0 011.61.65 2.86 2.86 0 01.58 1.94zm-2.26-1.61a1.2 1.2 0 00-1 .54 2.87 2.87 0 00-.45 1.54h2.6v-.49a1.92 1.92 0 00-.3-1.15 1 1 0 00-.85-.41zm7 .26a.74.74 0 00-.19-.08 1.45 1.45 0 00-.4 0 1.26 1.26 0 00-.89.3 1.85 1.85 0 00-.45.7v5.23h-1.2V4.05h1.1V5a3.11 3.11 0 01.2-.41 1.48 1.48 0 01.3-.36 1.44 1.44 0 01.42-.24 1.7 1.7 0 01.59-.09 1.58 1.58 0 01.41 0l.24.08zm2.4 6.07h-1.21v-7.1h1.21zm-.6-8.85a.8.8 0 01-.6-.24.92.92 0 01-.22-.62.89.89 0 01.22-.61.8.8 0 01.6-.24.75.75 0 01.58.24.85.85 0 01.22.61.87.87 0 01-.22.62.75.75 0 01-.58.27zm7.43 8.85h-1.1v-.8a1.24 1.24 0 01-.19.26 2.1 2.1 0 01-.38.33 2.92 2.92 0 01-.56.27 2.11 2.11 0 01-.73.12 2.52 2.52 0 01-.85-.14 1.53 1.53 0 01-.65-.45 2.37 2.37 0 01-.41-.81 4.73 4.73 0 01-.14-1.23V4.05h1.21v4.59a2.07 2.07 0 00.29 1.27 1 1 0 00.89.38 1.41 1.41 0 00.88-.26 2.92 2.92 0 00.57-.51V4.05h1.2zm5.59 0V6.59a2.37 2.37 0 00-.26-1.26.89.89 0 00-.81-.39 1.69 1.69 0 00-.53.08 2.2 2.2 0 00-.41.18 2 2 0 00-.31.25l-.22.24v5.49H143V4.05h1.1v.8c.05-.08.13-.17.22-.29a2.07 2.07 0 01.38-.32 1.81 1.81 0 01.52-.26 2 2 0 01.67-.11 1.8 1.8 0 011.72 1 3.34 3.34 0 01.28-.32 3.38 3.38 0 01.41-.31 2.92 2.92 0 01.54-.23 2.29 2.29 0 01.66-.09c1.44 0 2.17.84 2.17 2.53v4.78h-1.21V6.59a2 2 0 00-.31-1.26 1.1 1.1 0 00-.92-.39 1.33 1.33 0 00-.84.25 2.83 2.83 0 00-.53.47 3.27 3.27 0 01.05.35v5.17zM53.15 20H51.7v6.16h-1.21V20h-.86v-.8l.86-.16v-1.42a2.7 2.7 0 01.17-1 2 2 0 01.43-.69 1.65 1.65 0 01.62-.38 2.37 2.37 0 01.76-.12 1.78 1.78 0 01.65.1 2.08 2.08 0 01.36.17l-.25 1a2.07 2.07 0 00-.26-.13 1.12 1.12 0 00-.4-.06.8.8 0 00-.65.27 1.55 1.55 0 00-.22 1V19h1.6zm6.18 6.16h-1.1v-.8c0 .05-.1.14-.2.25a1.56 1.56 0 01-.38.33 2.82 2.82 0 01-.55.28 2.15 2.15 0 01-.73.11 2.32 2.32 0 01-.86-.14 1.5 1.5 0 01-.64-.45 2.06 2.06 0 01-.41-.81 4.31 4.31 0 01-.14-1.22V19h1.2v4.59a2.18 2.18 0 00.29 1.27 1.06 1.06 0 00.9.38 1.43 1.43 0 00.87-.26 3.3 3.3 0 00.57-.52V19h1.2zM56.38 17a.72.72 0 01-.21.55.71.71 0 01-1 0A.72.72 0 0155 17a.75.75 0 01.21-.55.74.74 0 011 0 .75.75 0 01.17.55zm2.29 0a.72.72 0 01-.21.55.69.69 0 01-.51.21.67.67 0 01-.5-.21.72.72 0 01-.21-.55.75.75 0 01.21-.55.7.7 0 01.5-.2.73.73 0 01.51.2.75.75 0 01.21.55zm5.64 3.11a.74.74 0 00-.19-.08 2 2 0 00-.4 0 1.22 1.22 0 00-.89.31 1.77 1.77 0 00-.45.66v5.23h-1.2V19h1.1v1a1.88 1.88 0 01.19-.41 1.43 1.43 0 01.3-.35 1.27 1.27 0 01.42-.25 1.7 1.7 0 01.59-.09 1.45 1.45 0 01.4.05l.25.07zm9.63-1.56a3 3 0 01-.13.94 2.29 2.29 0 01-.37.69 1.78 1.78 0 01-.53.46 2.85 2.85 0 01-.63.27 2.36 2.36 0 01.75.28 2.76 2.76 0 01.61.52 2.68 2.68 0 01.57 1.67A2.85 2.85 0 0174 24.5a2.32 2.32 0 01-.65.88 3.11 3.11 0 01-1.1.58 5.37 5.37 0 01-1.59.21h-2.1V15.91h2a5.81 5.81 0 011.55.19 2.78 2.78 0 011.06.53 1.86 1.86 0 01.6.82 2.85 2.85 0 01.17 1.08zm-1.31 0a1.54 1.54 0 00-.5-1.17 2.31 2.31 0 00-1.59-.46h-.69v3.54h.67A2.22 2.22 0 0072.1 20a1.85 1.85 0 00.53-1.43zm.2 4.73a1.7 1.7 0 00-.55-1.28 2.27 2.27 0 00-1.55-.48h-.88v3.6h.81a2.41 2.41 0 001.65-.46 1.7 1.7 0 00.52-1.36zM77 26.17h-1.2V19H77zm-.59-8.86a.78.78 0 01-.6-.24 1 1 0 010-1.23.78.78 0 01.6-.24.77.77 0 01.58.24 1 1 0 010 1.23.77.77 0 01-.58.24zM80 24.5a1.1 1.1 0 00.13.63.52.52 0 00.44.17h.27l.17-.06.11.89-.33.12a2.22 2.22 0 01-.64.07 1.31 1.31 0 01-1-.37 1.84 1.84 0 01-.37-1.32v-8.97l1.2-.13zm1.87-1.8a5 5 0 01.29-1.81 3.16 3.16 0 01.73-1.17 2.42 2.42 0 011-.63 3.51 3.51 0 011.76-.09 2.35 2.35 0 01.42.13v-3.47l1.2-.13v10.64h-1.1v-.76a1.88 1.88 0 01-.16.25 2 2 0 01-.33.31 1.94 1.94 0 01-.52.26 2 2 0 01-.73.11 2.38 2.38 0 01-1-.19 2.09 2.09 0 01-.79-.64 3.5 3.5 0 01-.55-1.13 6.23 6.23 0 01-.19-1.68zm2.83 2.58a1.54 1.54 0 00.5-.08 1.76 1.76 0 00.39-.18 1.64 1.64 0 00.27-.24 1 1 0 00.18-.2v-4.4a1.91 1.91 0 00-.38-.18 1.75 1.75 0 00-.55-.07 2.07 2.07 0 00-.78.14 1.5 1.5 0 00-.63.47 2.28 2.28 0 00-.42.84 4.29 4.29 0 00-.16 1.28 4.86 4.86 0 00.13 1.24 2.2 2.2 0 00.35.8 1.36 1.36 0 00.5.44 1.39 1.39 0 00.63.14zm9.37.89H93v-.8a1.62 1.62 0 01-.19.25 1.77 1.77 0 01-.38.33 2.65 2.65 0 01-.56.28 2.05 2.05 0 01-.72.11 2.35 2.35 0 01-.86-.14 1.44 1.44 0 01-.64-.45 2.06 2.06 0 01-.41-.81 4.31 4.31 0 01-.14-1.22V19h1.2v4.59a2.18 2.18 0 00.29 1.27 1.06 1.06 0 00.9.38 1.45 1.45 0 00.87-.26 3.3 3.3 0 00.57-.52V19h1.2zm5.74 0v-4.59a2.09 2.09 0 00-.31-1.3 1.07 1.07 0 00-.92-.4 1.46 1.46 0 00-.9.27 3.6 3.6 0 00-.56.52v5.5H96V19h1v.8a1 1 0 01.19-.26 1.62 1.62 0 01.39-.33 2.25 2.25 0 01.56-.27 2.13 2.13 0 01.74-.12 2.32 2.32 0 01.86.14 1.5 1.5 0 01.66.45 2.2 2.2 0 01.41.81 4.3 4.3 0 01.15 1.23v4.68zM108 20h-.89a2.4 2.4 0 01.34 1.28 2.76 2.76 0 01-.18 1 2.28 2.28 0 01-.52.76 2.36 2.36 0 01-.79.48 2.82 2.82 0 01-1 .16h-.2a.65.65 0 01-.19 0 2.13 2.13 0 00-.38.24.57.57 0 00-.19.43.48.48 0 00.17.37.94.94 0 00.56.14h.91a4 4 0 01.93.1 2 2 0 01.75.34 1.55 1.55 0 01.5.58 1.93 1.93 0 01.18.87 2.28 2.28 0 01-.24 1.05 2.49 2.49 0 01-.7.82 3 3 0 01-1.08.53 4.89 4.89 0 01-1.43.2 2.67 2.67 0 01-1.74-.5 1.78 1.78 0 01-.59-1.44 1.67 1.67 0 01.14-.69 2.31 2.31 0 01.34-.5 1.51 1.51 0 01.39-.34l.32-.2a1.16 1.16 0 01-.46-1 1 1 0 01.11-.49 1.3 1.3 0 01.25-.34 1.85 1.85 0 01.29-.22l.21-.11a2 2 0 01-.88-.79 2.56 2.56 0 01-.34-1.39 2.81 2.81 0 01.19-1.05 2.28 2.28 0 01.52-.75 2.2 2.2 0 01.77-.45 3.21 3.21 0 011-.14 2.46 2.46 0 01.94.18h2.18zm-3.31 6a3 3 0 01-.55 0 1.51 1.51 0 00-.26.18 1.1 1.1 0 00-.23.25 1.14 1.14 0 00-.17.35 1.33 1.33 0 00-.07.47q0 1.14 1.26 1.14a2.54 2.54 0 001.61-.42 1.26 1.26 0 00.52-1 .8.8 0 00-.33-.73 1.61 1.61 0 00-.88-.22zm1.59-4.69a1.43 1.43 0 00-.37-1.1 1.23 1.23 0 00-.85-.33 1.27 1.27 0 00-.89.33 1.39 1.39 0 00-.37 1.1 1.4 1.4 0 00.37 1.1 1.23 1.23 0 00.86.32 1.24 1.24 0 00.88-.32 1.44 1.44 0 00.32-1.16zM55.14 41.15H54v-.8a1.57 1.57 0 01-.19.26 1.78 1.78 0 01-.38.32 2.36 2.36 0 01-.55.28 2.15 2.15 0 01-.73.12 2.58 2.58 0 01-.86-.14 1.55 1.55 0 01-.64-.46 2 2 0 01-.41-.8 4.38 4.38 0 01-.14-1.23V34h1.2v4.59a2.14 2.14 0 00.29 1.27 1.06 1.06 0 00.9.38 1.45 1.45 0 00.87-.26 2.92 2.92 0 00.57-.51V34h1.2zm5.74 0v-4.59a2.11 2.11 0 00-.31-1.3 1.09 1.09 0 00-.92-.39 1.45 1.45 0 00-.9.26 3.6 3.6 0 00-.56.52v5.5H57V34h1.1v.8a1 1 0 01.19-.26 2.57 2.57 0 01.38-.33 3 3 0 01.57-.27 2.13 2.13 0 01.74-.12 2.54 2.54 0 01.86.14 1.69 1.69 0 01.66.45 2.18 2.18 0 01.41.82 4.28 4.28 0 01.15 1.22v4.68zm2.67-3.46a5 5 0 01.29-1.81 3.33 3.33 0 01.72-1.18 2.64 2.64 0 011-.63 3.77 3.77 0 011.13-.19 2.64 2.64 0 01.6.06 1.68 1.68 0 01.41.12v-3.41l1.21-.14v10.64h-1.1v-.76a1.37 1.37 0 01-.17.25 1.36 1.36 0 01-.32.31 2 2 0 01-1.25.38 2.39 2.39 0 01-1-.2 2.09 2.09 0 01-.79-.64 3.4 3.4 0 01-.55-1.13 6.21 6.21 0 01-.18-1.67zm2.83 2.57a1.35 1.35 0 00.5-.08 1.76 1.76 0 00.39-.18 1.25 1.25 0 00.27-.23.92.92 0 00.17-.21v-4.4a1.68 1.68 0 00-.38-.18 1.65 1.65 0 00-.54-.07 2.29 2.29 0 00-.78.14 1.58 1.58 0 00-.63.47 2.33 2.33 0 00-.42.85 4.22 4.22 0 00-.16 1.27 4.94 4.94 0 00.13 1.25 2.27 2.27 0 00.35.8 1.34 1.34 0 00.5.43 1.39 1.39 0 00.6.14zm7.78.89V30.9h5l-.09 1h-3.62v3.79h3.38v1h-3.38v4.41zm6-3.57a5.36 5.36 0 01.23-1.69 3.19 3.19 0 01.61-1.16 2.27 2.27 0 01.91-.67 2.66 2.66 0 011.09-.22 2.7 2.7 0 011.1.22 2.09 2.09 0 01.87.67 3.16 3.16 0 01.59 1.16 6.54 6.54 0 010 3.4 3.09 3.09 0 01-.61 1.17 2.38 2.38 0 01-.92.66 2.87 2.87 0 01-1.1.21 2.79 2.79 0 01-1.09-.21 2.25 2.25 0 01-.88-.66 3.42 3.42 0 01-.59-1.16 6.08 6.08 0 01-.26-1.72zm4.38 0a3.91 3.91 0 00-.42-2.07 1.29 1.29 0 00-1.15-.64 1.3 1.3 0 00-1.16.64 4 4 0 00-.41 2.07 3.76 3.76 0 00.42 2.05 1.31 1.31 0 001.16.63 1.3 1.3 0 001.15-.63 3.86 3.86 0 00.36-2.05zm5.9-2.51L90.2 35a1.53 1.53 0 00-.41 0 1.24 1.24 0 00-.88.31 1.77 1.77 0 00-.45.66v5.23h-1.21V34h1.1v1a1.87 1.87 0 01.2-.4 1.12 1.12 0 01.29-.36 1.46 1.46 0 01.42-.25 1.74 1.74 0 01.59-.09 1.47 1.47 0 01.41 0l.25.07zm4.2.39a2.71 2.71 0 00-.43-.36 1.28 1.28 0 00-.81-.23 1.06 1.06 0 00-.73.22.68.68 0 00-.26.53 1 1 0 00.23.66 3.24 3.24 0 00.71.56l.45.27a4.59 4.59 0 011.14.93 1.92 1.92 0 01.42 1.28 1.94 1.94 0 01-.59 1.43 2.34 2.34 0 01-1.69.58 2.8 2.8 0 01-.75-.09 3.54 3.54 0 01-.63-.24 2.23 2.23 0 01-.41-.26c-.1-.1-.19-.18-.26-.26l.58-.95.21.21a1.92 1.92 0 00.31.23 2.1 2.1 0 00.4.18 1.35 1.35 0 00.52.08 1.25 1.25 0 00.82-.24.75.75 0 00.28-.58 1.45 1.45 0 00-.07-.44.94.94 0 00-.2-.33 1.87 1.87 0 00-.33-.28l-.44-.3-.45-.28a4.59 4.59 0 01-1-.91 1.91 1.91 0 01-.37-1.22 1.73 1.73 0 01.15-.73 1.79 1.79 0 01.44-.58 2.17 2.17 0 01.66-.39 2.38 2.38 0 01.81-.14 2.36 2.36 0 011.23.29 2.12 2.12 0 01.35.25l.23.22zm6.09-.06a1 1 0 00-.14-.13 1.25 1.25 0 00-.24-.18 2 2 0 00-.36-.16 1.9 1.9 0 00-1.19.08 1.33 1.33 0 00-.58.45 2.19 2.19 0 00-.39.81 4.62 4.62 0 00-.14 1.21 5.44 5.44 0 00.13 1.32 2.66 2.66 0 00.34.86 1.35 1.35 0 00.55.46 1.75 1.75 0 00.7.14 1.49 1.49 0 00.84-.19 3.1 3.1 0 00.41-.32l.49.84a1.52 1.52 0 01-.22.21 1.5 1.5 0 01-.36.24 2.77 2.77 0 01-.54.21 3.22 3.22 0 01-.74.08 3.17 3.17 0 01-1.11-.2 2.17 2.17 0 01-.91-.63 3.1 3.1 0 01-.6-1.16 6 6 0 01-.23-1.77 5 5 0 01.27-1.74 3.25 3.25 0 01.7-1.15 2.58 2.58 0 011-.64 3.11 3.11 0 011.07-.2 3.6 3.6 0 01.7.07 2.38 2.38 0 01.52.19 1.25 1.25 0 01.36.24l.23.21zm5.66 5.75v-4.59a2.18 2.18 0 00-.3-1.3 1.1 1.1 0 00-.93-.39 1.42 1.42 0 00-.89.26 3.2 3.2 0 00-.56.52v5.5h-1.21v-10.5l1.21-.14v4.24l.18-.24a1.81 1.81 0 01.35-.3 2.72 2.72 0 01.54-.26 2.47 2.47 0 01.75-.11 1.89 1.89 0 011.49.61 3 3 0 01.55 2v4.68zm8 0h-1.1v-.8a1.57 1.57 0 01-.19.26 2.07 2.07 0 01-.38.32 2.44 2.44 0 01-.56.28 2.11 2.11 0 01-.73.12 2.52 2.52 0 01-.85-.14 1.65 1.65 0 01-.65-.46 2.16 2.16 0 01-.41-.8 4.79 4.79 0 01-.14-1.23V34h1.2v4.59a2.14 2.14 0 00.29 1.27 1.09 1.09 0 00.9.38 1.48 1.48 0 00.88-.26 2.92 2.92 0 00.57-.51V34h1.2zm5.74 0v-4.59a2.18 2.18 0 00-.31-1.3 1.1 1.1 0 00-.93-.39 1.44 1.44 0 00-.89.26 3.72 3.72 0 00-.57.52v5.5h-1.2V34h1.1v.8a1.39 1.39 0 01.2-.26 1.84 1.84 0 01.38-.33 3 3 0 01.57-.27 2.09 2.09 0 01.74-.12 2.58 2.58 0 01.86.14 1.69 1.69 0 01.66.45 2.33 2.33 0 01.41.82 4.28 4.28 0 01.15 1.22v4.68zm8.11-6.2h-.89a2.68 2.68 0 01.15 2.3 2.06 2.06 0 01-.52.77 2.2 2.2 0 01-.78.47 2.88 2.88 0 01-1 .17h-.39a1.49 1.49 0 00-.38.24.56.56 0 00-.19.43.45.45 0 00.17.36.9.9 0 00.56.14h.9a4 4 0 01.94.11 2.14 2.14 0 01.75.33 1.6 1.6 0 01.5.59 1.88 1.88 0 01.18.86 2.17 2.17 0 01-.25 1 2.35 2.35 0 01-.69.82 3.31 3.31 0 01-1.08.54 4.9 4.9 0 01-1.43.19 2.67 2.67 0 01-1.74-.5 1.78 1.78 0 01-.59-1.43 1.47 1.47 0 01.14-.69 2 2 0 01.33-.51 2.07 2.07 0 01.4-.34l.31-.2a1.18 1.18 0 01-.45-1 1 1 0 01.11-.49 1.5 1.5 0 01.25-.34 1.28 1.28 0 01.28-.21 1.45 1.45 0 01.22-.11 2.08 2.08 0 01-.89-.8 3 3 0 01-.14-2.43 2.1 2.1 0 01.52-.76 2.34 2.34 0 01.77-.44 2.89 2.89 0 01.94-.15 2.47 2.47 0 011 .18h2.17zm-3.32 6a2.84 2.84 0 01-.54 0 1.51 1.51 0 00-.26.18 1.43 1.43 0 00-.24.25 1.63 1.63 0 00-.17.35 1.68 1.68 0 00-.06.47c0 .76.42 1.15 1.26 1.15a2.56 2.56 0 001.61-.43 1.26 1.26 0 00.52-1 .82.82 0 00-.33-.74 1.61 1.61 0 00-.88-.21zm1.6-4.7a1.44 1.44 0 00-.37-1.1 1.2 1.2 0 00-.85-.32 1.27 1.27 0 00-.89.32 1.41 1.41 0 00-.38 1.1 1.38 1.38 0 00.38 1.1 1.23 1.23 0 00.86.33 1.27 1.27 0 00.88-.33 1.41 1.41 0 00.32-1.12z"/><path fill="#f8d200" d="M39.24 51.14h1.87v24.97h-4.37V51.14h2.5z"/><path fill="#e30613" d="M39.24 26.04h1.87v25.1h-4.37v-25.1h2.5z"/><path class="cls-1" d="M25.37 9.92c1.28 2 2.28 2 3.79 2a10.69 10.69 0 01-2.47-2.82l-2.33-3.74a5.56 5.56 0 00-1.72-3 3.46 3.46 0 00.7-.35c-1.53 0-3-.77-3.87-.77a.79.79 0 00-.88.74c0 .47.52 1 1.42 1a4.47 4.47 0 00.74-.08 3.55 3.55 0 01.88 2.1c0 1.64-2 2.91-3.93 2.91h-.33A4.46 4.46 0 0116.6 6c0-1.3.84-2.36.84-3.65A2.39 2.39 0 0016.9.87a2.19 2.19 0 00.57-.69 1.41 1.41 0 01-.55.07C16 .25 15.2 0 14.45 0c-.43 0-.54.13-.54.26v.11a2.72 2.72 0 00-.49-.13 4.11 4.11 0 00-.72-.06c-.91 0-1.24.38-1.24.71A2.82 2.82 0 0012 2.06a2.76 2.76 0 011-.3 1.43 1.43 0 011.14 1 4.28 4.28 0 01-.72 0 5.31 5.31 0 01-1.61-.32s.25.45.75.63a10.06 10.06 0 001.8.37.8.8 0 01-.35.4h-.12A8 8 0 0112 3.41c0 .35.88 1.11 1.68 1.4a8.91 8.91 0 00-1.89 3h-.33c-2 0-3.93-1.27-3.93-2.91a3.55 3.55 0 01.88-2.16 4.47 4.47 0 00.75.08c.89 0 1.38-.48 1.41-.95a.78.78 0 00-.88-.74c-.83 0-2.34.77-3.87.77a3.76 3.76 0 00.7.35 5.54 5.54 0 00-1.71 3L2.47 9.1A10.69 10.69 0 010 11.91c1.51 0 2.51 0 3.79-2L5 8a6.73 6.73 0 00.32.73l-2.39 3.82a10.66 10.66 0 01-2.47 2.81c1.51 0 2.51 0 3.79-2l2.05-3.27c.15.16.32.32.49.48l-2.9 4.63A10.66 10.66 0 011.42 18c1.51 0 2.51 0 3.79-2L8 11.51l.57.33-3.41 5.51a10.54 10.54 0 01-2.47 2.81c1.51 0 2.51 0 3.79-2L10 12.5l.64.23-4 6.41A10.89 10.89 0 014.19 22C5.7 22 6.7 22 8 20l4.27-6.83h.13a3.7 3.7 0 01.19 1.05c0 2.15-1.41 4.05-3.1 5.51a1.31 1.31 0 00.47.06 5.84 5.84 0 00.74 0A18.75 18.75 0 019 22.37a12.32 12.32 0 00-1.89-.18c-.55 0-.61.33-.61.61a1.44 1.44 0 00.5 1.13c.1-.26.3-.6 1.32-.6h.11c-.3.34-1.23 1.09-1.23 1.7a1.11 1.11 0 001 1 1.07 1.07 0 010-.34 2.6 2.6 0 01.8-1.47 2.08 2.08 0 000 .25c0 1.16.1 1.7.84 1.7a1.2 1.2 0 00.7-.26 1.59 1.59 0 01-.51-1.44v-.57a2.69 2.69 0 000-.49 4.16 4.16 0 01.58 0s1-.08 1.3.46c.28-.26.7-.63.7-1s-.13-.58-.67-.58c-.21 0-.85.13-1.39.13a13.81 13.81 0 011.35-1.95 1.5 1.5 0 00.51.79 5.57 5.57 0 011-2.64 12.87 12.87 0 01.19 2.3c0 2.89-.7 5-2.17 5.43a1.27 1.27 0 001 .63c.54 0 .83-.61 1.13-1.18.16.42.59 1.46 1 1.46s.86-1 1-1.46c.3.57.59 1.18 1.13 1.18a1.27 1.27 0 001-.63c-1.47-.41-2.17-2.54-2.17-5.43a12.87 12.87 0 01.19-2.3 5.36 5.36 0 011 2.64 1.5 1.5 0 00.51-.79 13.81 13.81 0 011.35 1.95c-.54 0-1.18-.13-1.39-.13-.54 0-.66.31-.66.58s.41.77.69 1c.26-.54 1.31-.46 1.31-.46a4 4 0 01.57 0 4 4 0 000 .49v.57a1.59 1.59 0 01-.51 1.44 1.2 1.2 0 00.7.26c.74 0 .85-.54.85-1.7a1.93 1.93 0 000-.25 2.6 2.6 0 01.8 1.47 1.07 1.07 0 010 .34 1.11 1.11 0 001-1c0-.61-.94-1.36-1.23-1.7h.1c1 0 1.22.34 1.33.6a1.47 1.47 0 00.5-1.13c0-.28-.06-.61-.61-.61a12.44 12.44 0 00-1.89.18 18.75 18.75 0 01-1.66-2.63 5.84 5.84 0 00.74 0 1.31 1.31 0 00.47-.06c-1.69-1.46-3.1-3.36-3.1-5.51a3.41 3.41 0 01.2-1.05h.13L21.18 20c1.28 2 2.28 2 3.79 2a10.89 10.89 0 01-2.47-2.81l-4-6.41.64-.23 3.54 5.68c1.28 2 2.28 2 3.79 2A10.54 10.54 0 0124 17.35l-3.44-5.51c.19-.1.38-.22.57-.33L24 16c1.28 2 2.28 2 3.79 2a10.85 10.85 0 01-2.47-2.81l-2.89-4.63q.26-.24.48-.48l2.05 3.28c1.28 2 2.28 2 3.79 2a10.85 10.85 0 01-2.47-2.81l-2.43-3.81a4.26 4.26 0 00.32-.74zM6.26 5.54a4.15 4.15 0 011.4-2.87l.26.06A3.71 3.71 0 006.85 5c0 2.09 2.23 3.9 4.74 3.9v.55a7.85 7.85 0 000 .87C8.77 10.34 6.26 8 6.26 5.54zm3.86 17.07v.05h.05a8.46 8.46 0 001.45-.1h.34c.2 0 .36 0 .36.28a1.06 1.06 0 01-.39.6 1.78 1.78 0 00-1.3-.34 6.48 6.48 0 00-.85.08H9.7v.09a4.92 4.92 0 010 .65v.57a2.09 2.09 0 00.33 1.36.85.85 0 01-.22 0c-.42 0-.55-.18-.55-1.4v-.85a3.31 3.31 0 00-1.31 2 .87.87 0 01-.4-.6c0-.35.53-.88 1.13-1.48L9 23.2l.05-.05h-.12a2.17 2.17 0 00-.58-.1 1.8 1.8 0 00-1.35.39 1.44 1.44 0 01-.17-.64.39.39 0 01.07-.25.34.34 0 01.24-.06 15 15 0 012 .19 17.43 17.43 0 001.86-3 .66.66 0 01.31-.06c.28 0 .36.19.44.48a9.8 9.8 0 00-1.63 2.51zm7.71-3a.66.66 0 01.31.06 17.43 17.43 0 001.86 3 15 15 0 012-.19.31.31 0 01.23.06.34.34 0 01.07.25 1.44 1.44 0 01-.17.64 1.78 1.78 0 00-1.32-.43 2.17 2.17 0 00-.58.1h-.12l.4.4c.6.6 1.13 1.13 1.13 1.48a.89.89 0 01-.39.6 3.33 3.33 0 00-1.32-2h-.05v.85c0 1.22-.13 1.4-.55 1.4a.85.85 0 01-.22 0 2 2 0 00.33-1.36v-.57a4.92 4.92 0 01.05-.65v-.09h-.09a6.31 6.31 0 00-.84-.08 1.8 1.8 0 00-1.31.34 1.06 1.06 0 01-.39-.6c0-.26.16-.28.36-.28h.34a8.46 8.46 0 001.45.1v-.05a9.8 9.8 0 00-1.65-2.51c.11-.27.19-.46.47-.46zM14.52 3A2.58 2.58 0 0014 2a1.44 1.44 0 00-1.07-.57 2.72 2.72 0 00-.84.21 2.37 2.37 0 01-.26-.73c0-.18.31-.37.89-.37 1.29 0 2.06.58 2.06 1.56a2.34 2.34 0 01-.26.9zm.58-1.27a1.8 1.8 0 00-.31-.73c0-.25.11-.49.52-.29-.22.22-.05.62-.05.62s.45-.21.35-.5c.67.17.19 1.05-.51.91zm2.51 8.62a8.14 8.14 0 00.05-.87v-.55c2.49 0 4.67-1.83 4.67-3.9a3.71 3.71 0 00-1.07-2.31l.26-.06a4.15 4.15 0 011.4 2.87c-.02 2.47-2.49 4.78-5.31 4.83zm23.5-9.15v24.97h-4.37V1.2h4.37z"/></g></g></svg>