<svg xmlns="http://www.w3.org/2000/svg" viewBox="0 0 1282.89 345.35"><defs><style>.cls-1{fill:#14476d}.cls-2{fill:#e1740d}.cls-3{fill:#f1b33e}</style></defs><g id="Ebene_2" data-name="Ebene 2"><g id="Layer_1" data-name="Layer 1"><path class="cls-1" d="M494.37 71.14h-34.7v30.84h-15.64V28.51h15.64v28.86h34.7V28.51h15.75v73.47h-15.75V71.14m31.28-42.63h51.98v13.44h-36.34v15.97h35.58v13.44h-35.58v17.07h36.34v13.55h-51.98V28.51zm65.31 0h15.64v73.46h-15.64zm60.25 59.7c14.54 0 23-10.46 23-22.91 0-13-7.93-23-23-23h-13.33v45.91zm-29-59.7h29c23 0 39 14.65 39 36.79s-16 36.68-39 36.68h-29zm80.22 0h51.99v13.44h-36.35v15.97h35.57v13.44h-35.57v17.07h36.35v13.55h-51.99V28.51zm65.31 0h15.64v59.7h31.06v13.77h-46.7V28.51zm94.5 60.14c6 0 9.47-3.42 9.47-8.7 0-4.63-3.3-8.59-9.47-8.59h-20.15v17.29zM861.69 58c5.29 0 8.59-3.41 8.59-8.15 0-4.52-3.3-8-8.59-8h-19.6V58zm-35.25-29.49h38.66c14 0 21.15 8.92 21.15 18.73 0 9.25-5.72 15.42-12.66 16.85 7.82 1.21 14.1 8.81 14.1 18.06 0 11-7.38 19.83-21.37 19.83h-39.88zm74.13 0h51.99v13.44h-36.35v15.97h35.58v13.44h-35.58v17.07h36.35v13.55h-51.99V28.51zM997.94 42h-16.41v20.22h16.41c6.28 0 11-4 11-10.14s-4.72-10.08-11-10.08m-5 33.7h-11.41V102h-15.65V28.51h34.37c15.31 0 24.67 10 24.67 23.68 0 13-8.15 19.94-16.08 21.81l16.52 28h-17.95zm80.44-48.4c15.2 0 24.78 7.38 30.4 16.08l-13 7a20.88 20.88 0 00-17.41-9.25c-13.32 0-23 10.24-23 24.12s9.7 24.12 23 24.12a24.77 24.77 0 0015.86-5.62v-8.87h-19.6V61.44h35v28.09a40.78 40.78 0 01-31.28 13.88c-21.48 0-39.1-15-39.1-38.11s17.62-38 39.1-38M445.36 138.66h9.14v73.46h-9.14zm36.56 14.21v59.25h-9.14v-73.46h9.36l42.3 58.04v-58.04h9.14v73.46h-8.81l-42.85-59.25zm70.93 41.96A31.05 31.05 0 00576 205.29c13.11 0 17.3-7 17.3-12.66 0-8.81-8.93-11.24-18.62-13.88-11.78-3.09-24.89-6.39-24.89-20.82 0-12.11 10.79-20.38 25.22-20.38 11.24 0 19.94 3.75 26.11 10.25l-5.51 6.72c-5.51-6.06-13.22-8.82-21.26-8.82-8.81 0-15.09 4.74-15.09 11.68 0 7.38 8.48 9.58 17.85 12.12 12 3.19 25.66 6.93 25.66 22.36 0 10.68-7.27 21.58-27.1 21.58-12.77 0-22.14-4.84-28.19-11.67zm82.17-48.02h-23.24v-8.15h55.73v8.15h-23.35v65.31h-9.14v-65.31zm45.71-8.15h9.14v73.46h-9.14zm45.6 8.15h-23.24v-8.15h55.73v8.15h-23.35v65.31h-9.14v-65.31zm45.67-8.15h9.14v44.71c0 13.44 7.27 21.92 20.82 21.92s20.82-8.48 20.82-21.92v-44.71H832v44.82c0 18.29-10 30-30 30s-30-11.78-30-29.85zm96.41 8.15h-23.24v-8.15h55.74v8.15h-23.35v65.31h-9.15v-65.31zm45.72-8.15h48.13v8.15h-38.99v23.68h38.22v8.15h-38.22v25.33h38.99v8.15h-48.13v-73.46zm126.78 6.94c-16.53 0-27 12.66-27 29.85s10.46 29.84 27 29.84 27-12.77 27-29.84-10.57-29.85-27-29.85m0-8.16c21.69 0 36.45 16.31 36.45 38s-14.76 38-36.45 38-36.46-16.3-36.46-38 14.65-38 36.46-38m51.87 1.22h48.13v8.15h-38.99v23.68h38.22v8.15h-38.22v33.48h-9.14v-73.46zM480.16 247.59c13 0 22 5.73 28.53 13.77l-7.27 4.51a27.1 27.1 0 00-21.26-10.13c-16.08 0-28.31 12.34-28.31 29.85s12.23 30 28.31 30a29 29 0 0019.72-7.93v-15h-25.23v-8.15H509V311a38.27 38.27 0 01-28.86 12.67c-20.93 0-37.78-15.31-37.78-38.11s16.85-38 37.78-38m44.85 1.24h9.14v65.32h34.14v8.15h-43.28V248.8zm87.01 6.94c-16.52 0-27 12.67-27 29.85s10.46 29.85 27 29.85 27-12.78 27-29.85-10.58-29.85-27-29.85m0-8.15c21.7 0 36.46 16.3 36.46 38s-14.76 38-36.46 38-36.46-16.3-36.46-38 14.65-38 36.46-38m83.49 66.53c8.59 0 13.66-4.85 13.66-12.67 0-6.72-4.63-12.67-13.66-12.67H673v25.34zm-.44-33.49c8.26 0 12.67-5.06 12.67-11.78S703.31 257 695.05 257H673v23.68zm-31.17-31.83h32.71c12.78 0 20.6 7.71 20.6 18.73 0 9.25-6.17 15.42-12.89 16.85 7.82 1.21 14.32 9.25 14.32 18.06 0 11.79-7.82 19.83-21.26 19.83h-33.48zm82.06 49.02h31.83L761.91 257zm34.58 8.18h-37.23l-6.49 16.3h-10.14l29.52-73.47h11.34l29.63 73.47H787zm27.32-57.2h9.14v65.32h34.14v8.15h-43.28V248.8zm138.89 39.76h-42.96v33.71h-9.14V248.8h9.14v31.61h42.96V248.8h9.14v73.47h-9.14v-33.71zm27.42-39.76h48.13v8.15H983.3v23.68h38.21v8.15H983.3v25.34h38.98v8.15h-48.13V248.8zm75.45 49.02h31.83L1065.57 257zm34.59 8.15H1047l-6.5 16.3h-10.13l29.51-73.47h11.35l29.63 73.47h-10.14zm27.31-57.17h9.14v65.32h34.15v8.15h-43.29V248.8zm64.44 8.15h-23.25v-8.15h55.74v8.15h-23.35v65.32h-9.14v-65.32zm97.8-8.15v31.62h-42.95V248.8h-9.15v73.47h9.15v-33.71h42.95v33.71h9.15V248.8h-9.15z"/><path class="cls-2" d="M289.6 130.58v-9.7a32.84 32.84 0 013.63-15 21.53 21.53 0 01-18.87-.28 19.28 19.28 0 00-9.55 16.64v8.16a2.13 2.13 0 002.13 2.13h2.77a2.29 2.29 0 012.28 2.29V155a3.2 3.2 0 001.85 2.91 15.39 15.39 0 006.54 1.46h7.45a15.44 15.44 0 006.55-1.46 3.21 3.21 0 001.84-2.91v-13.26a12.75 12.75 0 01-6.62-11.16"/><path class="cls-3" d="M356.47 130.58v-9.7a32.27 32.27 0 00-3.7-15 22.47 22.47 0 0019.3-.28 19.21 19.21 0 019.77 16.64v8.16a2.16 2.16 0 01-2.18 2.13h-2.84a2.31 2.31 0 00-2.33 2.29V155a3.2 3.2 0 01-1.89 2.91 16.08 16.08 0 01-6.69 1.46h-7.62a16.09 16.09 0 01-6.7-1.46 3.19 3.19 0 01-1.88-2.91v-13.26a12.72 12.72 0 006.76-11.16"/><path class="cls-2" d="M284.11 72.68a13.34 13.34 0 000 26.67m0 0a13.34 13.34 0 000-26.67"/><path class="cls-3" d="M362.42 99.35a13.45 13.45 0 10-8.92-3.49 13.24 13.24 0 008.92 3.49"/><path d="M334.32 101.12a25.78 25.78 0 01-23.17 0 22.89 22.89 0 00-11.34 19.76v9.7a2.53 2.53 0 002.53 2.53h3.29a2.72 2.72 0 012.72 2.72v23.93a3.81 3.81 0 002.19 3.46 18.2 18.2 0 007.77 1.73h8.85a18.24 18.24 0 007.78-1.73 3.81 3.81 0 002.19-3.46v-23.93a2.72 2.72 0 012.71-2.72h3.29a2.54 2.54 0 002.54-2.53v-9.7a22.89 22.89 0 00-11.35-19.76m-11.58-7.46a15.85 15.85 0 10-15.85-15.84 15.84 15.84 0 0015.85 15.84" fill="#ec963e"/><path class="cls-1" d="M340 174.47a27.89 27.89 0 01-13 3.2h-7.78a26.19 26.19 0 01-12.94-3.43l-5.28-3.06-.33 6c-1.67 29.47-12.23 56.7-30 77.88-2.52 3-5.19 5.89-8 8.64a128.17 128.17 0 01-97.36 37c-70.6-4.11-124.67-64.89-120.57-135.49s67.64-124.69 137.99-120.7V.3C87.52-5.29 5.85 67.58.3 162.63s67.28 176.88 162.32 182.42c3.4.2 6.79.3 10.15.3a172.24 172.24 0 00120-48.91l.19.22a171.62 171.62 0 0052.49-115.76l.44-9.53z"/></g></g></svg>