<svg xmlns="http://www.w3.org/2000/svg" width="1000" height="176.291"><defs><clipPath clipPathUnits="userSpaceOnUse" id="c"><path d="M0 0h595.276v841.89H0V0z"/></clipPath><clipPath clipPathUnits="userSpaceOnUse" id="b"><path d="M0 0h595.276v841.89H0V0z"/></clipPath><clipPath clipPathUnits="userSpaceOnUse" id="a"><path d="M0 0h595.276v841.89H0V0z"/></clipPath></defs><g clip-path="url(#a)" transform="matrix(4.89478 0 0 -4.89478 -166 3996.487)"><path d="M75.158 789.011h2.435v5.53h1.238c1.397-.04 2.016-.599 2.416-2.356.359-1.677.698-2.775.898-3.174h2.515c-.26.518-.618 2.076-1.058 3.753-.32 1.298-.898 2.236-1.876 2.595v.06c1.277.44 2.455 1.617 2.455 3.354 0 1.157-.42 2.096-1.158 2.714-.918.76-2.216 1.08-4.152 1.08-1.417 0-2.775-.12-3.713-.3v-13.256zm2.435 11.578c.24.06.739.121 1.517.121 1.598 0 2.616-.7 2.616-2.157 0-1.337-1.018-2.216-2.675-2.216h-1.458v4.252zm9.003-11.578h2.456v5.83c0 .258.02.518.1.738.279.74.958 1.377 1.916 1.377 1.358 0 1.876-1.078 1.876-2.476v-5.469H95.4v5.73c0 3.113-1.737 4.212-3.394 4.212-.62 0-1.198-.16-1.697-.44a3.239 3.239 0 01-1.217-1.098h-.04v5.79h-2.456V789.01zm19.664 4.173c.04.219.08.578.08 1.038 0 2.136-1.039 4.73-4.194 4.73-3.114 0-4.75-2.535-4.75-5.23 0-2.973 1.856-4.91 5.01-4.91 1.398 0 2.555.259 3.394.619l-.359 1.676c-.759-.26-1.558-.44-2.696-.44-1.577 0-2.934.76-2.994 2.517h6.508zm-6.51 1.716c.1.999.74 2.376 2.256 2.376 1.637 0 2.036-1.477 2.016-2.376H99.75zm11.02 3.833h-2.455v-9.722h2.455v9.722zm-1.217 4.052c-.819 0-1.378-.579-1.378-1.338 0-.718.539-1.316 1.358-1.316.858 0 1.397.598 1.397 1.316-.02.759-.539 1.338-1.377 1.338m3.872-13.774h2.456v5.73c0 .28.04.578.12.778.26.74.938 1.437 1.916 1.437 1.337 0 1.856-1.058 1.856-2.456v-5.489h2.456v5.77c0 3.073-1.757 4.172-3.454 4.172-1.616 0-2.675-.919-3.114-1.678h-.06l-.12 1.458h-2.136c.04-.838.08-1.777.08-2.895v-6.827z" fill="#10427a"/></g><path d="M441.565 112.564h24.914v-8.306h-24.914v8.306z" fill="#10427a"/><g clip-path="url(#b)" transform="matrix(4.89478 0 0 -4.89478 -166 3996.487)"><path d="M133.488 789.011v4.811c0 2.215-.04 3.992-.14 5.73l.08.02c.659-1.518 1.537-3.155 2.395-4.633l3.514-5.928h2.555v13.455h-2.276v-4.692c0-2.056.04-3.793.22-5.589h-.04a40.008 40.008 0 01-2.296 4.511l-3.473 5.77h-2.815v-13.455h2.276zm19.384 4.173c.04.219.08.578.08 1.038 0 2.136-1.038 4.73-4.193 4.73-3.114 0-4.75-2.535-4.75-5.23 0-2.973 1.856-4.91 5.01-4.91 1.398 0 2.555.259 3.394.619l-.36 1.676c-.758-.26-1.557-.44-2.695-.44-1.577 0-2.934.76-2.994 2.517h6.508zm-6.508 1.716c.1.999.739 2.376 2.256 2.376 1.637 0 2.036-1.477 2.016-2.376h-4.272zm15.371-3.773a4.872 4.872 0 00-1.936-.379c-1.677 0-2.975 1.138-2.975 3.134-.02 1.777 1.098 3.154 2.975 3.154.878 0 1.457-.18 1.856-.379l.44 1.856c-.56.24-1.478.44-2.376.44-3.414 0-5.41-2.256-5.41-5.171 0-3.014 1.976-4.97 5.01-4.97 1.218 0 2.237.259 2.755.499l-.34 1.816zm4.611 12.077h-2.455v-14.193h2.455v3.314l.82.977 2.793-4.29h3.015l-4.112 5.748 3.613 3.973h-2.955l-2.375-3.135c-.24-.339-.519-.758-.759-1.137h-.04v8.743zm15.471-8.364c0 2.136-.898 4.113-4.013 4.113-1.537 0-2.794-.419-3.513-.859l.479-1.596c.659.418 1.657.718 2.615.718 1.717 0 1.976-1.058 1.976-1.697v-.16c-3.593.02-5.77-1.238-5.77-3.673 0-1.477 1.099-2.895 3.056-2.895 1.277 0 2.295.539 2.874 1.297h.06l.18-1.077h2.216c-.12.599-.16 1.457-.16 2.336v3.493zm-2.395-2.415c0-.18 0-.36-.061-.539a2.016 2.016 0 00-1.936-1.338c-.778 0-1.397.44-1.397 1.398 0 1.477 1.657 1.836 3.394 1.816v-1.337zm4.99-3.414h2.456v5.051c0 .26.02.52.06.738.219 1.118 1.038 1.857 2.196 1.857.299 0 .519-.02.738-.06v2.296c-.2.04-.34.06-.58.06-1.057 0-2.195-.7-2.674-2.056h-.06l-.1 1.836h-2.116c.06-.859.08-1.817.08-3.135v-6.587z" fill="#10427a"/></g><path d="M767.63 112.564h24.92v-8.306h-24.92v8.306z" fill="#10427a"/><g clip-path="url(#c)" transform="matrix(4.89478 0 0 -4.89478 -166 3996.487)"><path d="M197.847 789.011h2.436v4.731l1.217 1.438 3.793-6.169h2.875l-4.931 7.725 4.63 5.73h-3.013l-3.534-4.73c-.32-.46-.658-.94-.978-1.459h-.06v6.19h-2.435V789.01zm11.617 0h2.455v5.051c0 .26.02.52.06.738.22 1.118 1.04 1.857 2.196 1.857.3 0 .52-.02.74-.06v2.296c-.2.04-.34.06-.58.06-1.058 0-2.196-.7-2.675-2.056h-.06l-.1 1.836h-2.116c.06-.859.08-1.817.08-3.135v-6.587zm15.172 4.173c.04.219.08.578.08 1.038 0 2.136-1.038 4.73-4.193 4.73-3.114 0-4.75-2.535-4.75-5.23 0-2.973 1.856-4.91 5.01-4.91 1.397 0 2.555.259 3.394.619l-.359 1.676c-.759-.26-1.558-.44-2.696-.44-1.577 0-2.934.76-2.994 2.517h6.508zm-6.508 1.716c.1.999.74 2.376 2.256 2.376 1.637 0 2.036-1.477 2.016-2.376h-4.272zm11.02 3.833h-2.456v-9.722h2.456v9.722zm-1.218 4.052c-.818 0-1.377-.579-1.377-1.338 0-.718.539-1.316 1.357-1.316.858 0 1.397.598 1.397 1.316-.02.759-.539 1.338-1.377 1.338m3.274-13.295c.719-.4 1.777-.678 2.955-.678 2.575 0 3.952 1.276 3.952 3.054-.02 1.436-.818 2.335-2.595 2.955-1.238.458-1.697.738-1.697 1.356 0 .6.479 1.04 1.358 1.04a4.29 4.29 0 002.056-.56l.499 1.716c-.58.32-1.517.58-2.595.58-2.256 0-3.673-1.317-3.673-3.035 0-1.157.778-2.196 2.675-2.834 1.197-.44 1.597-.759 1.597-1.418 0-.639-.48-1.098-1.557-1.098-.88 0-1.937.38-2.476.72l-.5-1.798zm-197.188 8.982c0 9.89 8.017 17.906 17.906 17.906 3.66 0 7.066-1.1 9.903-2.985l-2.937-4.35a12.554 12.554 0 01-6.922 2.067c-6.968 0-12.616-5.648-12.616-12.616 0-4.294 2.145-8.086 5.42-10.365l-2.983-4.421c-4.693 3.228-7.771 8.637-7.771 14.764" fill="#10427a"/><path d="M62.581 812.86c4.397-3.261 7.246-8.492 7.246-14.388 0-9.89-8.017-17.906-17.906-17.906-3.43 0-6.635.965-9.359 2.638l2.987 4.425a12.551 12.551 0 016.416-1.75c6.967 0 12.616 5.647 12.616 12.615 0 4.079-1.936 7.706-4.94 10.012l2.94 4.355z" fill="#fff200"/></g></svg>