<svg xmlns="http://www.w3.org/2000/svg" viewBox="0 0 151.7 107.92"><defs><style>.cls-1{fill:#1d1d1b}</style></defs><g id="Ebene_2" data-name="Ebene 2"><g id="Ebene_2-2" data-name="Ebene 2"><path class="cls-1" d="M55.78 35.35a3 3 0 01-.13.94 2.51 2.51 0 01-.36.69 2.17 2.17 0 01-.54.47 2.89 2.89 0 01-.63.26 2.21 2.21 0 01.75.29 2.16 2.16 0 01.61.52 2.35 2.35 0 01.41.73 2.52 2.52 0 01.16.93 2.82 2.82 0 01-.21 1.11 2.22 2.22 0 01-.65.88 3 3 0 01-1.1.58 5.37 5.37 0 01-1.59.25h-2.1V32.74h2a5.84 5.84 0 011.55.18 2.78 2.78 0 011.06.53 2 2 0 01.61.82 3.14 3.14 0 01.16 1.08zm-1.3 0a1.52 1.52 0 00-.48-1.13 2.31 2.31 0 00-1.59-.46h-.71v3.54h.66a2.21 2.21 0 001.58-.51 1.81 1.81 0 00.54-1.4zm.19 4.73a1.67 1.67 0 00-.54-1.31 2.25 2.25 0 00-1.56-.49h-.87v3.6h.8a2.51 2.51 0 001.66-.45 1.73 1.73 0 00.51-1.31zm8 2.87h-1.1v-.8a2.16 2.16 0 01-.19.26 1.78 1.78 0 01-.38.32 2.25 2.25 0 01-.56.28 2.05 2.05 0 01-.72.12 2.31 2.31 0 01-.86-.15 1.53 1.53 0 01-.65-.45 2.19 2.19 0 01-.4-.81 4.31 4.31 0 01-.14-1.22v-4.64h1.2v4.59a2.16 2.16 0 00.29 1.27 1.06 1.06 0 00.9.38 1.45 1.45 0 00.87-.26 3.3 3.3 0 00.57-.52v-5.46h1.2zm5.74 0V38.4a2.09 2.09 0 00-.31-1.3 1.08 1.08 0 00-.93-.4 1.45 1.45 0 00-.89.27 3.6 3.6 0 00-.56.52V43h-1.25v-7.14h1.1v.8a1.39 1.39 0 01.2-.26 1.8 1.8 0 01.38-.33 3 3 0 01.57-.27 2.13 2.13 0 01.74-.12 2.32 2.32 0 01.86.14 1.5 1.5 0 01.66.45 2.2 2.2 0 01.41.81 4.3 4.3 0 01.15 1.23V43zM71 39.53a5 5 0 01.29-1.82 3.37 3.37 0 01.72-1.17 2.52 2.52 0 011-.63 3.51 3.51 0 011.73-.14 2.21 2.21 0 01.41.13v-3.42l1.21-.13V43h-1.1v-.76a2.24 2.24 0 01-.17.25 1.91 1.91 0 01-.32.31 2.52 2.52 0 01-.52.27 2.29 2.29 0 01-.73.11 2.39 2.39 0 01-1-.2 2.2 2.2 0 01-.8-.64 3.71 3.71 0 01-.54-1.13 6.21 6.21 0 01-.18-1.68zm2.83 2.57a1.59 1.59 0 00.5-.08 1.76 1.76 0 00.39-.18 1.61 1.61 0 00.27-.23 1.3 1.3 0 00.17-.21V37a1.68 1.68 0 00-.38-.18 1.65 1.65 0 00-.54-.07 2 2 0 00-.78.14 1.5 1.5 0 00-.63.47 2.36 2.36 0 00-.42.84 4.34 4.34 0 00-.16 1.28 4.81 4.81 0 00.13 1.24 2.2 2.2 0 00.35.8 1.22 1.22 0 00.5.44 1.39 1.39 0 00.64.14zm9-3.84v.8c0 .23 0 .42-.06.58H79.1a3.16 3.16 0 00.54 1.86 1.67 1.67 0 001.39.6 1.94 1.94 0 00.56-.08 2 2 0 00.44-.18 1.51 1.51 0 00.31-.2 1.92 1.92 0 00.19-.17l.44.85-.22.22a2.47 2.47 0 01-.4.28 3.35 3.35 0 01-.62.24 3.25 3.25 0 01-.88.11 3.11 3.11 0 01-1.21-.23 2.31 2.31 0 01-.92-.69 3.24 3.24 0 01-.59-1.19 6.2 6.2 0 01-.21-1.73 5.34 5.34 0 01.22-1.64 3.39 3.39 0 01.58-1.14 2.52 2.52 0 01.87-.66 2.63 2.63 0 011-.21 2.07 2.07 0 011.61.64 2.86 2.86 0 01.63 1.94zm-2.26-1.6a1.22 1.22 0 00-1 .53 2.94 2.94 0 00-.44 1.55h2.6v-.52a1.9 1.9 0 00-.3-1.15 1 1 0 00-.86-.41zm6.94.64a4.12 4.12 0 00-.43-.37 1.39 1.39 0 00-.82-.23 1.06 1.06 0 00-.73.23.66.66 0 00-.25.53.92.92 0 00.23.66 3.46 3.46 0 00.7.56l.45.27a4.2 4.2 0 011.14.92 2 2 0 01.42 1.29 1.94 1.94 0 01-.59 1.43 2.31 2.31 0 01-1.68.58 2.88 2.88 0 01-.76-.09 3.11 3.11 0 01-.57-.21 1.93 1.93 0 01-.41-.26 2.27 2.27 0 01-.27-.26l.58-1 .21.21a2.78 2.78 0 00.31.23 2.1 2.1 0 00.4.18 1.62 1.62 0 00.52.08 1.23 1.23 0 00.82-.24.75.75 0 00.28-.58 1.16 1.16 0 00-.07-.44.94.94 0 00-.2-.33 2.26 2.26 0 00-.32-.29l-.47-.24-.44-.29a4 4 0 01-1-.9 1.85 1.85 0 01-.38-1.22 1.81 1.81 0 01.15-.74 1.9 1.9 0 01.44-.58 2.15 2.15 0 01.66-.38 2.23 2.23 0 01.81-.14 2.55 2.55 0 01.72.08 2 2 0 01.51.21 2.8 2.8 0 01.36.25l.23.22zm5.86 5.7v-4.6a2.4 2.4 0 00-.25-1.27.92.92 0 00-.82-.38 1.68 1.68 0 00-.52.07 1.55 1.55 0 00-.41.19 1.5 1.5 0 00-.31.24l-.23.24V43h-1.2v-7.14h1.1v.8a2 2 0 01.22-.29 2.41 2.41 0 01.37-.33 2.3 2.3 0 01.52-.26 2 2 0 01.67-.1 1.79 1.79 0 011.73 1 1.56 1.56 0 01.28-.32 2.25 2.25 0 011-.54 2.27 2.27 0 01.65-.09c1.45 0 2.17.84 2.17 2.52V43h-1.2v-4.6a2.09 2.09 0 00-.31-1.27 1.14 1.14 0 00-.92-.38 1.39 1.39 0 00-.84.24 3.24 3.24 0 00-.53.47V43zm7.95 0h-1.2v-7.14h1.2zm-.59-8.86a.75.75 0 01-.59-.24.85.85 0 01-.23-.62.85.85 0 01.23-.61.83.83 0 011.17 0 1 1 0 010 1.23.75.75 0 01-.58.23zm6.33 8.86v-4.6a2.16 2.16 0 00-.3-1.3 1.1 1.1 0 00-.93-.4 1.41 1.41 0 00-.89.27 3.3 3.3 0 00-.57.52V43h-1.2v-7.14h1.1v.8a1.24 1.24 0 01.19-.26 2.1 2.1 0 01.38-.33 3 3 0 01.57-.27 2.17 2.17 0 01.74-.12 2.32 2.32 0 01.86.14 1.5 1.5 0 01.66.45 2.21 2.21 0 01.42.81 4.73 4.73 0 01.14 1.23V43zm4.21 0h-1.21v-7.14h1.21zm-.6-8.86a.76.76 0 01-.59-.24.85.85 0 01-.23-.62.85.85 0 01.23-.61.83.83 0 011.17 0 1 1 0 010 1.23.75.75 0 01-.58.23zm5.51 3.17a3.26 3.26 0 00-.43-.37 1.37 1.37 0 00-.82-.23 1 1 0 00-.72.23.67.67 0 00-.26.53 1 1 0 00.23.66 3.57 3.57 0 00.71.56l.45.27a4.36 4.36 0 011.14.92 2 2 0 01.42 1.29 1.94 1.94 0 01-.59 1.43 2.32 2.32 0 01-1.69.58 2.75 2.75 0 01-.75-.09 3.54 3.54 0 01-.58-.21 2.23 2.23 0 01-.41-.26 3.18 3.18 0 01-.26-.26l.58-1 .21.21a2.78 2.78 0 00.31.23 1.85 1.85 0 00.4.18 1.58 1.58 0 00.52.08 1.21 1.21 0 00.81-.24.73.73 0 00.29-.58 1.4 1.4 0 00-.07-.44 1.12 1.12 0 00-.2-.33 1.9 1.9 0 00-.33-.29l-.44-.29-.45-.29a4.33 4.33 0 01-1-.9 1.91 1.91 0 01-.38-1.22 1.82 1.82 0 01.16-.74 1.75 1.75 0 01.44-.58 2.27 2.27 0 011.47-.52 2.48 2.48 0 01.71.08 1.89 1.89 0 01.52.21 2.12 2.12 0 01.35.25l.23.22zm5.17-.46h-1.56v3.95a1.9 1.9 0 00.2 1 .73.73 0 00.65.28 1.26 1.26 0 00.46-.08 1.52 1.52 0 00.28-.13l.17 1a1.72 1.72 0 01-.36.19 2 2 0 01-.76.13 1.74 1.74 0 01-1.38-.52 2.51 2.51 0 01-.46-1.7v-4.13h-.86V36l.86-.17.13-2h1.07v2h1.71zm5.84 1.42v.8c0 .23 0 .42-.06.58h-3.64a3.09 3.09 0 00.51 1.85 1.66 1.66 0 001.38.6 2 2 0 00.62-.1 2.24 2.24 0 00.44-.18 1.51 1.51 0 00.31-.2l.19-.17.44.85-.22.22a2.47 2.47 0 01-.4.28 3.26 3.26 0 01-1.5.35 3.11 3.11 0 01-1.21-.23 2.34 2.34 0 01-.93-.69 3.39 3.39 0 01-.58-1.19 6.2 6.2 0 01-.21-1.73 5.68 5.68 0 01.21-1.64 3.4 3.4 0 01.59-1.14 2.48 2.48 0 01.86-.66 2.67 2.67 0 011.06-.21 2.07 2.07 0 011.61.64 2.86 2.86 0 01.53 1.96zm-2.26-1.6a1.22 1.22 0 00-1 .53 2.94 2.94 0 00-.45 1.55h2.6v-.52a1.9 1.9 0 00-.3-1.15 1 1 0 00-.85-.42zm7 .25l-.19-.07a1.4 1.4 0 00-.4-.05 1.22 1.22 0 00-.89.31 1.77 1.77 0 00-.45.66V43h-1.2v-7.14h1.1v1a3.86 3.86 0 01.2-.41 1.43 1.43 0 01.3-.35 1.27 1.27 0 01.42-.25 1.7 1.7 0 01.59-.09 1.53 1.53 0 01.41.05l.24.07zm2.4 6.08h-1.21v-7.14h1.21zm-.6-8.86a.8.8 0 01-.6-.24.88.88 0 01-.22-.62.89.89 0 01.22-.61.8.8 0 01.6-.24.75.75 0 01.58.24 1 1 0 010 1.23.75.75 0 01-.58.23zm7.43 8.86h-1.1v-.8a2.16 2.16 0 01-.19.26 2.07 2.07 0 01-.38.32 2.44 2.44 0 01-.56.28 2.11 2.11 0 01-.73.12 2.3 2.3 0 01-.85-.15 1.53 1.53 0 01-.65-.45 2.37 2.37 0 01-.41-.81 4.71 4.71 0 01-.14-1.22v-4.69h1.21v4.59a2.09 2.09 0 00.29 1.27 1.05 1.05 0 00.89.38 1.48 1.48 0 00.88-.26 3.3 3.3 0 00.57-.52v-5.46h1.2zm5.59 0v-4.6a2.39 2.39 0 00-.26-1.27.9.9 0 00-.81-.38 1.64 1.64 0 00-.94.26 1.5 1.5 0 00-.31.24l-.22.24V43H143v-7.14h1.1v.8a3.19 3.19 0 01.22-.29 2.16 2.16 0 01.9-.59 2 2 0 01.67-.1 1.78 1.78 0 011.72 1 1.94 1.94 0 01.28-.32 2.59 2.59 0 01.41-.31 2.37 2.37 0 01.54-.23 2.29 2.29 0 01.66-.09c1.44 0 2.17.84 2.17 2.52V43h-1.21v-4.6a2 2 0 00-.31-1.27 1.13 1.13 0 00-.92-.38 1.39 1.39 0 00-.84.24 3.24 3.24 0 00-.53.47c0 .11 0 .23.05.35s0 .26 0 .39V43zm-93.6 8.83H51.7V58h-1.21v-6.18h-.86V51l.86-.17v-1.4a2.72 2.72 0 01.17-1 2 2 0 01.43-.68 1.56 1.56 0 01.62-.39 2.37 2.37 0 01.76-.12 1.76 1.76 0 01.65.11 2.3 2.3 0 01.36.16l-.25 1a1.25 1.25 0 00-.26-.13 1.1 1.1 0 00-.4-.07.8.8 0 00-.65.27 1.59 1.59 0 00-.22 1v1.28h1.6zM59.33 58h-1.1v-.8a2 2 0 01-.2.26 2.14 2.14 0 01-.38.33 2.82 2.82 0 01-.55.27 2.15 2.15 0 01-.73.12 2.54 2.54 0 01-.86-.14 1.59 1.59 0 01-.64-.45 2.06 2.06 0 01-.41-.81 4.38 4.38 0 01-.14-1.23v-4.71h1.2v4.59a2.14 2.14 0 00.29 1.27 1.06 1.06 0 00.9.38 1.43 1.43 0 00.87-.26 2.92 2.92 0 00.57-.51v-5.47h1.2zm-2.95-9.18a.74.74 0 01-.21.55.71.71 0 01-1 0 .83.83 0 010-1.1.71.71 0 011 0 .74.74 0 01.21.52zm2.29 0a.74.74 0 01-.21.55.69.69 0 01-.51.21.67.67 0 01-.5-.21.83.83 0 010-1.1A.67.67 0 0158 48a.69.69 0 01.51.21.74.74 0 01.16.58zm5.64 3.1l-.19-.07a1.45 1.45 0 00-.4 0 1.26 1.26 0 00-.89.3 1.77 1.77 0 00-.45.66V58h-1.2v-7.16h1.1v1a1.81 1.81 0 01.19-.4 1.31 1.31 0 01.3-.36 1.46 1.46 0 01.42-.25 2 2 0 01.59-.08 1.49 1.49 0 01.4 0l.25.07zm9.63-1.56a3 3 0 01-.13.94 2.07 2.07 0 01-.37.69 1.81 1.81 0 01-.53.47 2.85 2.85 0 01-.63.27A2.36 2.36 0 0173 53a2.51 2.51 0 01.61.52 2.4 2.4 0 01.41.74 2.51 2.51 0 01.16.92 2.9 2.9 0 01-.18 1.13 2.22 2.22 0 01-.65.87 3.11 3.11 0 01-1.1.58 5.37 5.37 0 01-1.59.21h-2.1V47.72h2a5.84 5.84 0 011.55.18 3.09 3.09 0 011.06.53 2 2 0 01.6.83 2.83 2.83 0 01.17 1.07zm-1.31.05a1.51 1.51 0 00-.5-1.17 2.31 2.31 0 00-1.59-.47h-.69v3.54h.67a2.27 2.27 0 001.58-.5 1.87 1.87 0 00.53-1.43zm.2 4.72a1.68 1.68 0 00-.55-1.31 2.27 2.27 0 00-1.55-.48h-.88v3.56h.81a2.47 2.47 0 001.65-.45 1.71 1.71 0 00.52-1.35zM77 58h-1.2v-7.16H77zm-.59-8.85a.78.78 0 01-.6-.24.88.88 0 01-.22-.63.86.86 0 01.22-.61.81.81 0 01.6-.23.8.8 0 01.58.23.91.91 0 01.22.61.93.93 0 01-.22.63.77.77 0 01-.58.21zM80 56.31a1.08 1.08 0 00.13.62.49.49 0 00.44.18 1 1 0 00.27 0L81 57l.11.89-.33.12a2.17 2.17 0 01-.64.08 1.32 1.32 0 01-1-.38 1.83 1.83 0 01-.37-1.32v-8.92l1.2-.14zm1.87-1.8a5 5 0 01.29-1.81 3.21 3.21 0 01.73-1.18 2.53 2.53 0 011-.63 3.75 3.75 0 011.13-.18 2.69 2.69 0 01.6 0 1.77 1.77 0 01.42.12v-3.36l1.2-.14V58h-1.1v-.76a1.88 1.88 0 01-.16.25 1.66 1.66 0 01-.33.31 2 2 0 01-1.25.38 2.39 2.39 0 01-1-.2 2.09 2.09 0 01-.79-.64 3.4 3.4 0 01-.55-1.13 6.21 6.21 0 01-.16-1.7zm2.83 2.57a1.89 1.89 0 00.5-.07 1.77 1.77 0 00.39-.19 1.25 1.25 0 00.27-.23 1.45 1.45 0 00.18-.21V52a2.69 2.69 0 00-.38-.18 2.11 2.11 0 00-.55-.07 2.29 2.29 0 00-.78.14 1.58 1.58 0 00-.63.47 2.33 2.33 0 00-.42.85 4.22 4.22 0 00-.16 1.27 4.94 4.94 0 00.13 1.25 2.27 2.27 0 00.35.8 1.46 1.46 0 00.5.44 1.38 1.38 0 00.63.11zm9.4.92H93v-.8a1.24 1.24 0 01-.19.26 2.57 2.57 0 01-.38.33 2.66 2.66 0 01-.56.27 2.05 2.05 0 01-.72.12 2.58 2.58 0 01-.86-.14 1.53 1.53 0 01-.64-.45 2.06 2.06 0 01-.41-.81 4.38 4.38 0 01-.14-1.23v-4.71h1.2v4.59a2.14 2.14 0 00.29 1.27 1.06 1.06 0 00.9.38 1.45 1.45 0 00.87-.26 2.92 2.92 0 00.57-.51v-5.47h1.2zm5.74 0v-4.62a2.11 2.11 0 00-.31-1.3 1.09 1.09 0 00-.92-.39 1.52 1.52 0 00-.9.26 4.16 4.16 0 00-.56.52V58H96v-7.16h1v.8a1.13 1.13 0 01.19-.26 2.24 2.24 0 01.39-.33 2.66 2.66 0 01.56-.27 2.13 2.13 0 01.74-.12 2.54 2.54 0 01.86.14 1.69 1.69 0 01.66.45 2.2 2.2 0 01.41.81 4.4 4.4 0 01.15 1.23V58zm8.16-6.22h-.89a2.37 2.37 0 01.34 1.27 2.73 2.73 0 01-.18 1 2.33 2.33 0 01-.52.77 2.51 2.51 0 01-.79.47 2.83 2.83 0 01-1 .17h-.39a1.68 1.68 0 00-.38.24.56.56 0 00-.19.43.45.45 0 00.17.36.87.87 0 00.56.14h.91a4 4 0 01.93.11 2.14 2.14 0 01.75.33 1.58 1.58 0 01.5.59 1.88 1.88 0 01.18.86 2.33 2.33 0 01-.24 1.06 2.46 2.46 0 01-.7.81 3.22 3.22 0 01-1.08.54 4.9 4.9 0 01-1.43.19 2.62 2.62 0 01-1.74-.5 1.78 1.78 0 01-.59-1.43 1.6 1.6 0 01.14-.69 2.66 2.66 0 01.34-.51 2 2 0 01.39-.34l.32-.2a1.15 1.15 0 01-.46-1 .94.94 0 01.11-.49 1.37 1.37 0 01.25-.35 1.32 1.32 0 01.29-.21 1.08 1.08 0 01.21-.11 2 2 0 01-.88-.8 2.53 2.53 0 01-.34-1.39 2.79 2.79 0 01.19-1 2.23 2.23 0 01.52-.76 2.34 2.34 0 01.77-.44 2.91 2.91 0 011-.15 2.46 2.46 0 01.94.18h2.18zm-3.31 6a3 3 0 01-.55 0 1.51 1.51 0 00-.26.18 1.37 1.37 0 00-.23.25 1.27 1.27 0 00-.17.35 1.37 1.37 0 00-.07.47c0 .76.42 1.15 1.26 1.15a2.48 2.48 0 001.61-.43 1.24 1.24 0 00.52-1 .82.82 0 00-.33-.74 1.61 1.61 0 00-.88-.21zm1.59-4.7a1.44 1.44 0 00-.37-1.1 1.27 1.27 0 00-.85-.32 1.31 1.31 0 00-.89.32 1.4 1.4 0 00-.37 1.1 1.38 1.38 0 00.37 1.1 1.23 1.23 0 00.86.33 1.25 1.25 0 00.88-.33 1.41 1.41 0 00.32-1.13zM55.14 73H54v-.8a1.24 1.24 0 01-.19.26 1.8 1.8 0 01-.38.33 2.35 2.35 0 01-.55.27 2.15 2.15 0 01-.73.12 2.35 2.35 0 01-.85-.18 1.44 1.44 0 01-.64-.45 2.06 2.06 0 01-.41-.81 4.34 4.34 0 01-.14-1.23v-4.69h1.2v4.6a2.12 2.12 0 00.29 1.26 1 1 0 00.9.38 1.38 1.38 0 00.87-.26 2.92 2.92 0 00.57-.51v-5.47h1.2zm5.74 0v-4.64a2.13 2.13 0 00-.31-1.3 1.09 1.09 0 00-.92-.39 1.46 1.46 0 00-.9.27 3.6 3.6 0 00-.56.52V73H57v-7.18h1.1v.81a1 1 0 01.19-.26 1.77 1.77 0 01.38-.33 2.52 2.52 0 01.57-.28 2.13 2.13 0 01.74-.12 2.54 2.54 0 01.86.14 1.61 1.61 0 01.66.46 2.2 2.2 0 01.41.81 4.3 4.3 0 01.15 1.23V73zm2.67-3.46a5 5 0 01.29-1.81 3.19 3.19 0 01.72-1.17 2.52 2.52 0 011-.63 3.51 3.51 0 011.73-.14 2.21 2.21 0 01.41.13v-3.47l1.21-.13V73h-1.1v-.8a1.09 1.09 0 01-.17.24 1.19 1.19 0 01-.32.31 1.7 1.7 0 01-.52.27 2 2 0 01-.73.11 2.23 2.23 0 01-1-.2 2 2 0 01-.79-.64 3.44 3.44 0 01-.55-1.12 6.29 6.29 0 01-.18-1.68zm2.83 2.57a1.59 1.59 0 00.5-.07 1.42 1.42 0 00.39-.19 1.25 1.25 0 00.27-.23 1.2 1.2 0 00.17-.2V67a1.68 1.68 0 00-.38-.18 1.65 1.65 0 00-.54-.07 2.07 2.07 0 00-.78.14 1.56 1.56 0 00-.63.46 2.33 2.33 0 00-.42.85 4.29 4.29 0 00-.16 1.28 4.86 4.86 0 00.13 1.24 2.2 2.2 0 00.35.8 1.27 1.27 0 001.1.57zm7.78.89V62.7h5l-.09 1h-3.62v3.79h3.38v1h-3.38V73zm6-3.56a5.42 5.42 0 01.23-1.7 3.28 3.28 0 01.61-1.21 2.37 2.37 0 01.91-.67 2.83 2.83 0 011.09-.22 2.88 2.88 0 011.1.22 2.18 2.18 0 01.87.67 3.25 3.25 0 01.59 1.16 6.57 6.57 0 010 3.41 3.12 3.12 0 01-.61 1.16 2.3 2.3 0 01-.92.67 3.07 3.07 0 01-1.1.2 3 3 0 01-1.09-.2 2.18 2.18 0 01-.88-.67 3.36 3.36 0 01-.59-1.15 6.13 6.13 0 01-.26-1.72zm4.38 0a3.91 3.91 0 00-.42-2.07 1.3 1.3 0 00-1.15-.65 1.31 1.31 0 00-1.16.65 4 4 0 00-.41 2.07 3.8 3.8 0 00.42 2 1.33 1.33 0 001.16.62 1.31 1.31 0 001.15-.62 3.91 3.91 0 00.36-2.05zm5.9-2.51l-.19-.08a1.58 1.58 0 00-.41 0 1.24 1.24 0 00-.88.3 1.94 1.94 0 00-.45.66V73h-1.26v-7.18h1.1v1a1.73 1.73 0 01.2-.41 1.39 1.39 0 01.29-.36 1.44 1.44 0 01.42-.24 1.74 1.74 0 01.59-.09 1.53 1.53 0 01.41 0l.25.08zm4.2.38a3.39 3.39 0 00-.43-.36 1.34 1.34 0 00-.81-.23 1.06 1.06 0 00-.73.22.7.7 0 00-.26.54 1 1 0 00.23.66 3.57 3.57 0 00.71.56l.45.27a4.36 4.36 0 011.14.92 2.09 2.09 0 01-.17 2.71 2.3 2.3 0 01-1.69.58 2.8 2.8 0 01-.75-.09 3.56 3.56 0 01-.58-.2 2.23 2.23 0 01-.41-.26c-.1-.1-.19-.18-.26-.26l.58-.95.21.2a1.92 1.92 0 00.31.23 1.64 1.64 0 00.4.19 1.6 1.6 0 00.52.07 1.25 1.25 0 00.82-.23.75.75 0 00.28-.58 1.4 1.4 0 00-.07-.44 1 1 0 00-.2-.34 2.41 2.41 0 00-.33-.28c-.13-.09-.27-.19-.44-.29l-.45-.29a4.82 4.82 0 01-1-.9 1.93 1.93 0 01-.37-1.22 1.78 1.78 0 01.15-.74 1.9 1.9 0 01.44-.58 2.45 2.45 0 012.07-.49 2.26 2.26 0 01.52.2 2.12 2.12 0 01.35.26 2.62 2.62 0 01.23.21zm6.09-.05l-.14-.14a1.25 1.25 0 00-.24-.18 1.5 1.5 0 00-.36-.15 1.41 1.41 0 00-.47-.07 1.89 1.89 0 00-.72.14 1.41 1.41 0 00-.58.45 2.19 2.19 0 00-.39.81 4.76 4.76 0 00-.14 1.22 5.55 5.55 0 00.13 1.32 2.59 2.59 0 00.34.85 1.28 1.28 0 00.55.46 1.75 1.75 0 00.7.14 1.49 1.49 0 00.84-.19 3.24 3.24 0 00.41-.31l.49.83a2.24 2.24 0 01-.22.22 1.87 1.87 0 01-.36.24 2.26 2.26 0 01-.54.2 2.75 2.75 0 01-.74.08 3.16 3.16 0 01-1.11-.19 2.2 2.2 0 01-.91-.64 3 3 0 01-.6-1.16 5.87 5.87 0 01-.23-1.76 4.89 4.89 0 01.27-1.74 3.29 3.29 0 01.7-1.16 2.55 2.55 0 011-.63 2.93 2.93 0 011.77-.13 2.41 2.41 0 01.52.18 1.87 1.87 0 01.36.24l.23.22zm5.61 5.74v-4.64a2.2 2.2 0 00-.3-1.3 1.1 1.1 0 00-.93-.39 1.43 1.43 0 00-.89.27 3.2 3.2 0 00-.56.52V73h-1.21V62.45l1.21-.13v4.23l.18-.24a1.8 1.8 0 01.35-.29 2.26 2.26 0 01.54-.26 2.19 2.19 0 01.75-.12 1.93 1.93 0 011.49.61 3 3 0 01.55 2V73zm8 0h-1.1v-.8a1.24 1.24 0 01-.19.26 2.1 2.1 0 01-.38.33 2.43 2.43 0 01-.56.27 2.11 2.11 0 01-.73.12 2.3 2.3 0 01-.85-.14 1.53 1.53 0 01-.65-.45 2.2 2.2 0 01-.41-.81 4.73 4.73 0 01-.14-1.23v-4.73h1.2v4.6a2.12 2.12 0 00.29 1.26 1.06 1.06 0 00.9.38 1.41 1.41 0 00.88-.26 2.92 2.92 0 00.57-.51v-5.47h1.2zm5.74 0v-4.64a2.2 2.2 0 00-.31-1.3 1.1 1.1 0 00-.93-.39 1.45 1.45 0 00-.89.27 3.72 3.72 0 00-.57.52V73h-1.2v-7.18h1.1v.81a2.08 2.08 0 01.58-.59 2.52 2.52 0 01.57-.28 2.09 2.09 0 01.74-.12 2.58 2.58 0 01.86.14 1.61 1.61 0 01.66.46 2.37 2.37 0 01.41.81 4.3 4.3 0 01.15 1.23V73zm8.11-6.19h-.89a2.5 2.5 0 01.34 1.28 2.61 2.61 0 01-.19 1 2 2 0 01-.52.76 2.22 2.22 0 01-.78.48 2.88 2.88 0 01-1 .16h-.34a1.82 1.82 0 00-.38.24.56.56 0 00-.19.43.48.48 0 00.17.37.9.9 0 00.56.14h.9a4 4 0 01.94.1 2 2 0 01.75.34 1.56 1.56 0 01.5.58 1.91 1.91 0 01.18.86 2.21 2.21 0 01-.25 1.06 2.35 2.35 0 01-.69.82 3.51 3.51 0 01-1.08.53 4.9 4.9 0 01-1.43.19 2.67 2.67 0 01-1.74-.49 1.78 1.78 0 01-.59-1.44 1.49 1.49 0 01.14-.69 2 2 0 01.33-.5 1.83 1.83 0 01.4-.35l.31-.19a1.15 1.15 0 01-.45-1 1 1 0 01.11-.49 1.3 1.3 0 01.25-.34 1.79 1.79 0 01.28-.22l.22-.11a2.05 2.05 0 01-.89-.79A3.05 3.05 0 01123 67a2.14 2.14 0 01.52-.75 2.2 2.2 0 01.77-.45 3.19 3.19 0 01.94-.15 2.47 2.47 0 011 .18h2.17zm-3.32 6a2.9 2.9 0 01-.54 0 1.1 1.1 0 00-.26.18 1.18 1.18 0 00-.41.6 1.6 1.6 0 00-.06.46c0 .77.42 1.15 1.26 1.15a2.56 2.56 0 001.61-.42 1.27 1.27 0 00.52-1 .8.8 0 00-.33-.73 1.53 1.53 0 00-.88-.22zm1.6-4.69a1.43 1.43 0 00-.37-1.1 1.21 1.21 0 00-.85-.33 1.27 1.27 0 00-.89.33 1.39 1.39 0 00-.36.98 1.41 1.41 0 00.38 1.1 1.23 1.23 0 00.86.32 1.26 1.26 0 00.88-.32 1.44 1.44 0 00.35-1.1z"/><path fill="#f8d200" d="M39.24 82.94h1.87v24.98h-4.37V82.94h2.5z"/><path fill="#e30613" d="M39.24 57.85h1.87v25.09h-4.37V57.85h2.5z"/><path class="cls-1" d="M25.37 41.73c1.28 2 2.28 2 3.79 2a10.7 10.7 0 01-2.47-2.82l-2.33-3.73a5.59 5.59 0 00-1.72-3 3 3 0 00.7-.34c-1.53 0-3-.78-3.87-.78a.79.79 0 00-.88.74c0 .47.52 1 1.42 1a4.34 4.34 0 00.74-.07 3.5 3.5 0 01.88 2.16c0 1.63-2 2.91-3.93 2.91h-.33a4.35 4.35 0 01-.77-1.86c0-1.3.84-2.36.84-3.65a2.42 2.42 0 00-.54-1.5 2.09 2.09 0 00.57-.69 1.41 1.41 0 01-.55.07c-1 0-1.72-.25-2.47-.25-.43 0-.54.14-.54.26v.12a3.94 3.94 0 00-.49-.14 4.11 4.11 0 00-.72-.06c-.91 0-1.24.38-1.24.71a2.73 2.73 0 00.54 1.05 2.76 2.76 0 011-.3 1.43 1.43 0 011.14 1 4.28 4.28 0 01-.72.06 5.31 5.31 0 01-1.61-.32s.25.46.75.64a9 9 0 001.8.36.8.8 0 01-.35.4.16.16 0 01-.12 0 8.06 8.06 0 01-1.89-.49c0 .34.88 1.1 1.68 1.39a9 9 0 00-1.89 3h-.33c-2 0-3.93-1.28-3.93-2.91a3.5 3.5 0 01.88-2.16 4.35 4.35 0 00.75.07c.89 0 1.38-.48 1.41-1a.78.78 0 00-.88-.6c-.83 0-2.34.78-3.87.78a3.26 3.26 0 00.7.34 5.57 5.57 0 00-1.71 3L2.47 40.9A10.7 10.7 0 010 43.72c1.51 0 2.51 0 3.79-2L5 39.81a6.73 6.73 0 00.32.73l-2.39 3.81a10.51 10.51 0 01-2.47 2.81c1.51 0 2.51 0 3.79-2l2.05-3.27a5.55 5.55 0 00.49.48L3.89 47a10.51 10.51 0 01-2.47 2.81c1.51 0 2.51 0 3.79-2L8 43.31l.57.34-3.41 5.51A10.85 10.85 0 012.69 52c1.51 0 2.51 0 3.79-2L10 44.31l.64.23-4 6.4a10.72 10.72 0 01-2.47 2.81c1.51 0 2.51 0 3.79-2l4.27-6.83h.13a3.71 3.71 0 01.21 1.08c0 2.14-1.41 4-3.1 5.5a1.29 1.29 0 00.47.07 4.14 4.14 0 00.74-.05A18.9 18.9 0 019 54.18 12.32 12.32 0 007.13 54c-.55 0-.61.32-.61.61A1.42 1.42 0 007 55.73c.1-.26.3-.6 1.32-.6h.11c-.3.33-1.23 1.08-1.23 1.69a1.11 1.11 0 001 1 1 1 0 010-.33A2.57 2.57 0 019 56a1.92 1.92 0 000 .24c0 1.17.1 1.7.84 1.7a1.2 1.2 0 00.7-.26 1.59 1.59 0 01-.51-1.44v-.56a2.63 2.63 0 000-.49 3.14 3.14 0 01.58 0s1-.08 1.3.46c.28-.26.7-.62.7-1s-.13-.57-.67-.57c-.21 0-.85.12-1.39.12a13.85 13.85 0 011.35-1.94 1.47 1.47 0 00.51.78 5.57 5.57 0 011-2.64 12.87 12.87 0 01.19 2.3c0 2.89-.7 5-2.17 5.43a1.24 1.24 0 001 .63c.54 0 .83-.6 1.13-1.18.16.42.59 1.47 1 1.47s.86-1 1-1.47c.3.58.59 1.18 1.13 1.18a1.24 1.24 0 001-.63c-1.47-.41-2.17-2.54-2.17-5.43a12.87 12.87 0 01.19-2.3 5.36 5.36 0 011 2.64 1.47 1.47 0 00.51-.78 13.85 13.85 0 011.35 1.94c-.54 0-1.18-.12-1.39-.12-.54 0-.66.3-.66.57s.41.77.69 1c.26-.54 1.31-.46 1.31-.46a3 3 0 01.57 0 3.91 3.91 0 000 .49v.56a1.59 1.59 0 01-.51 1.44 1.2 1.2 0 00.7.26c.74 0 .85-.53.85-1.7a1.85 1.85 0 000-.24 2.57 2.57 0 01.8 1.47 1 1 0 010 .33 1.11 1.11 0 001-1c0-.61-.94-1.36-1.23-1.69h.1c1 0 1.22.34 1.33.6a1.45 1.45 0 00.5-1.12c0-.29-.06-.61-.61-.61a12.44 12.44 0 00-1.89.18 18.9 18.9 0 01-1.66-2.64 4.14 4.14 0 00.74.05 1.29 1.29 0 00.47-.07c-1.69-1.46-3.1-3.36-3.1-5.5a3.41 3.41 0 01.2-1.06h.13l4.26 6.83c1.28 2 2.28 2 3.79 2a10.72 10.72 0 01-2.47-2.81l-4-6.4.64-.23L22.68 50c1.32 2 2.32 2 3.79 2A10.85 10.85 0 0124 49.16l-3.44-5.51.57-.34L24 47.83c1.28 2 2.28 2 3.79 2A10.69 10.69 0 0125.27 47l-2.89-4.63a5.44 5.44 0 00.48-.48l2.05 3.29c1.28 2 2.28 2 3.79 2a10.69 10.69 0 01-2.47-2.81l-2.38-3.81a4.26 4.26 0 00.32-.73zM6.26 37.34a4.13 4.13 0 011.4-2.86l.26.06a3.69 3.69 0 00-1.07 2.31c0 2.08 2.23 3.89 4.74 3.89v.56a7.66 7.66 0 000 .86c-2.82-.01-5.33-2.33-5.33-4.82zm3.86 17.07v.05h.05a8.87 8.87 0 001.45-.09h.34c.2 0 .36 0 .36.27a1.06 1.06 0 01-.39.6 1.78 1.78 0 00-1.3-.33c-.28 0-.65 0-.85.07H9.7v.1a4.78 4.78 0 010 .65v.56a2.07 2.07 0 00.33 1.36.57.57 0 01-.22 0c-.42 0-.55-.18-.55-1.4v-.85a3.34 3.34 0 00-1.31 2 .91.91 0 01-.4-.61c0-.35.53-.87 1.13-1.48L9 55h.05-.12a2.66 2.66 0 00-.58-.1 1.76 1.76 0 00-1.35.35 1.48 1.48 0 01-.17-.64.43.43 0 01.07-.26.39.39 0 01.24-.05 13.51 13.51 0 012 .19 18.05 18.05 0 001.86-3 .83.83 0 01.31 0c.28 0 .36.18.44.48a9.62 9.62 0 00-1.63 2.44zm7.71-3a.83.83 0 01.31 0 18.05 18.05 0 001.86 3 13.51 13.51 0 012-.19.36.36 0 01.23.05.37.37 0 01.07.26 1.48 1.48 0 01-.17.64 1.74 1.74 0 00-1.37-.42 2.66 2.66 0 00-.58.1h-.12l.4.39c.6.61 1.13 1.13 1.13 1.48a.93.93 0 01-.39.61 3.35 3.35 0 00-1.32-2h-.05v.85c0 1.22-.13 1.4-.55 1.4a.57.57 0 01-.22 0 2 2 0 00.33-1.36v-.56a4.78 4.78 0 01.05-.65V55h-.04c-.2 0-.56-.07-.84-.07a1.8 1.8 0 00-1.31.33 1.06 1.06 0 01-.39-.6c0-.25.16-.27.36-.27h.34a8.87 8.87 0 001.45.09v-.05a9.62 9.62 0 00-1.65-2.5c.11-.32.19-.5.47-.5zm-3.31-16.59a2.68 2.68 0 00-.52-1 1.43 1.43 0 00-1.07-.56 2.7 2.7 0 00-.84.2 2.2 2.2 0 01-.26-.73c0-.18.31-.36.89-.36 1.29 0 2.06.58 2.06 1.56a2.38 2.38 0 01-.26.89zm.58-1.27a1.69 1.69 0 00-.31-.74c0-.25.11-.5.52-.3-.22.23-.05.63-.05.63s.45-.21.35-.51c.67.16.19 1.06-.51.92zm2.51 8.61a8.11 8.11 0 00.05-.86v-.56c2.49 0 4.67-1.83 4.67-3.89a3.69 3.69 0 00-1.07-2.31l.26-.06a4.13 4.13 0 011.4 2.86c-.02 2.48-2.49 4.77-5.31 4.82zM41.11 33v24.97h-4.37V33h4.37zM53.28 3.34c0-.74-.31-1.14-1.12-1.14-.25 0-1.16 0-1.16 1.36V5.7c0 1.38.4 1.73 1.16 1.73a2 2 0 001.13-.28V5.26h-1.17v-.7h2v3.07a3.87 3.87 0 01-1.93.47c-1.34 0-2-.69-2-2.44V3.59a1.84 1.84 0 012-2.07c1.36 0 2 .5 2 1.82zM55.6 8V1.65h3.25v.7H56.4v2h2.28v.7H56.4v2.22h2.51V8zm4.31 0V1.65H63v.7h-2.28v2h2.2v.7h-2.2V8zm3.92-2.34V3.59a2 2 0 114 0v2.07c0 1.75-.64 2.44-2 2.44s-2-.69-2-2.44zM65.47.91h-.82V0h.82zM67 5.7V3.56c0-1.32-.91-1.36-1.16-1.36s-1.17 0-1.17 1.36V5.7c0 1.38.41 1.73 1.17 1.73S67 7.08 67 5.7zm0-4.79h-.82V0H67zm3 4.16V8h-.8V1.65h2.18a1.43 1.43 0 011.51 1.58 1.36 1.36 0 01-1.16 1.44c.73.11 1 .36 1 1.63A8.86 8.86 0 0073 8h-.84a7.56 7.56 0 01-.24-2.1.83.83 0 00-1-.8zm0-.7h1.2c.58 0 .86-.5.86-1.05a.86.86 0 00-.85-1H70zm4.09-2.72H76a1.7 1.7 0 011.7 1 6.6 6.6 0 01.28 2 5.3 5.3 0 01-.39 2.55c-.34.54-1 .81-2.08.81h-1.42zm.8 5.62h.76c1.12 0 1.53-.42 1.53-1.89V4.1c0-1.27-.39-1.75-1.23-1.75h-1.06zm4.53.73V1.65h3.25v.7h-2.45v2h2.28v.7h-2.28v2.22h2.5V8zm5.16-2.93V8h-.81V1.65H86a1.43 1.43 0 011.51 1.58 1.36 1.36 0 01-1.15 1.44c.72.11 1 .36 1 1.63a9.89 9.89 0 00.2 1.7h-.84a7.19 7.19 0 01-.24-2.1.83.83 0 00-1-.8zm0-.7h1.2c.58 0 .86-.5.86-1.05a.86.86 0 00-.85-1h-1.21zm7.62-2.72v.7h-1.66V8h-.81V2.35h-1.66v-.7zM97.17 8h-1l-1.79-6.35h.87l1.45 5.56 1.48-5.56H99zm2.64-2.34V3.59a2 2 0 114 0v2.07c0 1.75-.64 2.44-2 2.44s-2-.69-2-2.44zm3.15 0v-2.1c0-1.32-.91-1.36-1.16-1.36s-1.17 0-1.17 1.36V5.7c0 1.38.41 1.73 1.17 1.73s1.2-.35 1.2-1.73zM105.94 8h-.75V1.65h1.31L108.09 7l1.61-5.31h1.33V8h-.81V2.35L108.46 8h-.77L106 2.35z"/></g></g></svg>