<svg xmlns="http://www.w3.org/2000/svg" viewBox="0 0 281.72 56.69"><g data-name="Ebene 2"><g data-name="Ebene 1"><g data-name="Ebene 2"><g data-name="Ebene 1-2"><path d="M28.12 0A30.06 30.06 0 0135 32a29.62 29.62 0 01-15.66 16.3l8.49 8.39A37.5 37.5 0 0038 42.08 38.54 38.54 0 0028.12 0" fill="#009ee0"/><path d="M19.58 38.14h-2.76v-9.41h2.76a4.47 4.47 0 014.8 4.11 4 4 0 010 .6A4.55 4.55 0 0120 38.15h-.44m0 2.1c4.37 0 7.33-2.8 7.33-6.8s-3-6.81-7.33-6.81h-5.2v13.6zm-7.36 0V26.63H9.76v5.57h-7.3v-5.57H0v13.61h2.46V34.3h7.3v5.94zM6.12 24.73c4 0 6.11-2.1 6.11-5.47v-8.39H11v8.37c0 2.76-1.8 4.43-4.88 4.43S1.27 22 1.27 19.24v-8.37H0v8.39c0 3.35 2.09 5.47 6.12 5.47m18.76-.28l-6.82-7.11 6.23-6.47h-1.6l-7.07 7.43v-7.43h-1.25v13.58h1.25V19.7l1.63-1.65 6.03 6.4h1.6z" fill="#004a71"/></g></g><path d="M49.09 24.45V11.33h1.66v6.58h.06l5.46-6.58h1.88l-4.1 5 4.74 8.12h-1.86L53 17.63l-2.26 2.66v4.16zm11.58 0V11.33h1.66V23h5.74v1.42zm9.72 0V11.33h1.66v13.12zm5.26 0V11.33h1.72l4.74 8.24 1.42 2.72h.08c0-.67-.09-1.36-.13-2.07s-.07-1.42-.07-2.11v-6.78H85v13.12h-1.73l-4.76-8.26-1.42-2.7H77c0 .67.1 1.34.15 2s.07 1.38.07 2.07v6.86zm12.93 0V11.33h1.67v13.12zm8.91.24a6.25 6.25 0 01-2.57-.52 6.51 6.51 0 01-2-1.42l1-1.16a5.53 5.53 0 001.66 1.19 4.53 4.53 0 002 .45 3.17 3.17 0 002-.59 1.93 1.93 0 00.72-1.55 2 2 0 00-.17-.85 2.09 2.09 0 00-.46-.6 3.24 3.24 0 00-.7-.45l-.86-.42-1.93-.77a7.5 7.5 0 01-.93-.48 3.85 3.85 0 01-.87-.68 3.32 3.32 0 01-.62-.95 3.16 3.16 0 01-.23-1.27 3.23 3.23 0 01.3-1.38 3.35 3.35 0 01.87-1.11 3.92 3.92 0 011.3-.73 5 5 0 011.64-.26 5.3 5.3 0 012.19.45 5.59 5.59 0 011.7 1.17l-.91 1.08a4.56 4.56 0 00-1.33-.91 3.92 3.92 0 00-1.65-.33 2.81 2.81 0 00-1.76.51 1.85 1.85 0 00-.49 2.22 2 2 0 00.52.58 4.05 4.05 0 00.69.44c.26.13.52.24.78.35l1.87.8a7.46 7.46 0 011 .55 4.12 4.12 0 01.87.72 3.26 3.26 0 01.57 1A3.56 3.56 0 01102 21a3.42 3.42 0 01-.32 1.46 3.51 3.51 0 01-.88 1.19 4.22 4.22 0 01-1.41.8 5.57 5.57 0 01-1.9.24zm11.99 0a5.48 5.48 0 01-2.27-.46 5.29 5.29 0 01-1.82-1.33 6.25 6.25 0 01-1.2-2.14 9.11 9.11 0 01-.43-2.87 8.42 8.42 0 01.45-2.84 6.29 6.29 0 011.21-2.14 5.29 5.29 0 011.84-1.35 5.73 5.73 0 012.32-.47 4.33 4.33 0 012.11.49 5.36 5.36 0 011.49 1.13l-.9 1.08a4.3 4.3 0 00-1.18-.9 3.13 3.13 0 00-1.5-.34 3.67 3.67 0 00-3 1.43 5.12 5.12 0 00-.83 1.67 7.87 7.87 0 00-.29 2.2 8 8 0 00.29 2.23 5.65 5.65 0 00.81 1.69 3.55 3.55 0 001.27 1.08 3.75 3.75 0 001.69.38 3.47 3.47 0 001.68-.39 4.91 4.91 0 001.36-1.09l.92 1a5.7 5.7 0 01-1.76 1.4 4.92 4.92 0 01-2.26.54zm6.46-.24V11.33h1.66v5.5h6.1v-5.5h1.68v13.12h-1.68v-6.18h-6.1v6.18zm13.06 0V11.33h7.56v1.4h-5.9v4.12h5v1.42h-5V23h6.1v1.42zm17.24 0V12.73h-4v-1.4h9.6v1.4h-4v11.72zm8 0V11.33h4.1a8.22 8.22 0 011.85.19 4 4 0 011.46.63 2.86 2.86 0 01.95 1.14 3.88 3.88 0 01.34 1.72 3.57 3.57 0 01-.8 2.46 4.1 4.1 0 01-2.14 1.26l3.34 5.72h-1.88l-3.16-5.54h-2.4v5.54zm1.66-6.9h2.2a3.79 3.79 0 002.36-.63 2.25 2.25 0 00.82-1.91 2 2 0 00-.82-1.82 4.37 4.37 0 00-2.36-.52h-2.2zm14.56 7.14a5.34 5.34 0 01-2.27-.48 5.22 5.22 0 01-1.77-1.37 6.54 6.54 0 01-1.15-2.16 9.38 9.38 0 01-.41-2.85 9.16 9.16 0 01.41-2.83 6.43 6.43 0 011.15-2.12 5.1 5.1 0 011.77-1.33 5.48 5.48 0 012.27-.46 5.42 5.42 0 012.27.47 5.08 5.08 0 011.78 1.34 6.1 6.1 0 011.16 2.1 8.79 8.79 0 01.41 2.81 9.08 9.08 0 01-.41 2.85 6.21 6.21 0 01-1.16 2.16 5.16 5.16 0 01-1.78 1.37 5.28 5.28 0 01-2.27.5zm0-1.46a3.34 3.34 0 001.59-.38 3.51 3.51 0 001.22-1.09 5.24 5.24 0 00.79-1.7 8.05 8.05 0 00.28-2.23 7.88 7.88 0 00-.28-2.2 4.92 4.92 0 00-.79-1.66 3.6 3.6 0 00-1.22-1.05 3.33 3.33 0 00-1.59-.37 3.39 3.39 0 00-1.59.37 3.7 3.7 0 00-1.22 1.08 5.12 5.12 0 00-.79 1.66 8.27 8.27 0 00-.28 2.2 8.45 8.45 0 00.28 2.23 5.45 5.45 0 00.79 1.7 3.6 3.6 0 001.22 1.09 3.39 3.39 0 001.59.35zm8.44 1.22V11.33h3.74a9.5 9.5 0 012 .2 4.12 4.12 0 011.55.65 3.06 3.06 0 011 1.19 4.13 4.13 0 01.36 1.82 4.19 4.19 0 01-.35 1.8 3.24 3.24 0 01-1 1.26 4.38 4.38 0 01-1.53.75 7.13 7.13 0 01-2 .25h-2.16v5.2zm1.66-6.56h2a4.12 4.12 0 002.55-.65 2.42 2.42 0 00.83-2 2.15 2.15 0 00-.87-2 4.87 4.87 0 00-2.59-.55h-1.88zm9.66 6.56V11.33h7.56v1.4h-5.9v4.12h5v1.42h-5V23H198v1.42zm10.54 0V11.33h1.72l4.74 8.24 1.42 2.72h.08c0-.67-.08-1.36-.13-2.07s-.07-1.42-.07-2.11v-6.78h1.58v13.12h-1.72l-4.76-8.26-1.42-2.7h-.08c.06.67.11 1.34.15 2s.07 1.38.07 2.07v6.86zm12.94 0V11.33h2l2.52 7c.16.45.32.91.47 1.37s.31.92.47 1.37h.08c.16-.45.31-.91.45-1.37s.29-.92.45-1.37l2.48-7h2v13.12h-1.56v-7.22c0-.59 0-1.23.08-1.94s.1-1.35.14-1.94h-.08l-1 3-2.48 6.8h-1.1l-2.48-6.8-1-3H215c0 .59.09 1.23.13 1.94s.07 1.35.07 1.94v7.22zm14.54 0V11.33h7.56v1.4h-5.9v4.12h5v1.42h-5V23h6.1v1.42zm10.54 0V11.33h3.28a6 6 0 014.62 1.67 6.75 6.75 0 011.58 4.82 8.91 8.91 0 01-.4 2.79 5.52 5.52 0 01-1.18 2.08 5.07 5.07 0 01-1.92 1.3 7.09 7.09 0 01-2.62.45zm1.66-1.36h1.5a4.22 4.22 0 003.45-1.38 5.87 5.87 0 001.15-3.88 5.63 5.63 0 00-1.15-3.83 4.31 4.31 0 00-3.45-1.32h-1.5zm10.64 1.36V11.33h1.66v13.12zm4.36 0v-1l6.9-10.72h-6.28v-1.4h8.36v1L257.5 23h7v1.42zm11.68 0V11.33h1.66v13.12zm5.26 0V11.33h1.72l4.74 8.24 1.42 2.72h.08c0-.67-.08-1.36-.13-2.07s-.07-1.42-.07-2.11v-6.78h1.58v13.12H280l-4.76-8.26-1.42-2.7h-.08l.15 2c.05.66.07 1.38.07 2.07v6.86zm-221.75 20v-8.67h-2.94v-.56h6.53v.56h-2.94v8.67zm6.99.17a3.07 3.07 0 01-1.21-.24 2.85 2.85 0 01-1-.69 3.5 3.5 0 01-.67-1.11 4.21 4.21 0 01-.24-1.48 4.29 4.29 0 01.24-1.48 3.55 3.55 0 01.66-1.11 2.85 2.85 0 01.94-.7 2.45 2.45 0 011.09-.25 2.35 2.35 0 011.89.81 3.52 3.52 0 01.68 2.3v.25a1 1 0 010 .25h-4.86a3.68 3.68 0 00.2 1.17 2.79 2.79 0 00.51.93 2.35 2.35 0 001.82.82 2.78 2.78 0 001-.17 2.82 2.82 0 00.82-.44l.25.48a7.38 7.38 0 01-.89.45 3.07 3.07 0 01-1.23.21zm-2.48-3.95h4.28a3 3 0 00-.53-1.94 1.78 1.78 0 00-1.44-.64 2 2 0 00-.83.18 2.29 2.29 0 00-.7.51 2.68 2.68 0 00-.52.81 3.56 3.56 0 00-.26 1.08zm7.01-4.56a.59.59 0 01-.4-.16.53.53 0 01-.16-.39.55.55 0 01.16-.41.59.59 0 01.4-.15.55.55 0 01.4.15.51.51 0 01.16.41.5.5 0 01-.16.39.56.56 0 01-.4.16zm-.32 8.34v-6.72h.62v6.72zm4.03.17c-.55 0-.82-.36-.82-1.07v-9.17h.61v9.26a.5.5 0 00.09.33.24.24 0 00.21.1h.21l.11.51-.19.05zm7.52 0a2.5 2.5 0 01-2-.91 4 4 0 01-.76-2.61 4.28 4.28 0 01.24-1.47 3.62 3.62 0 01.65-1.12 3 3 0 011-.7 2.6 2.6 0 011.14-.25 2.41 2.41 0 011.07.22 5.39 5.39 0 011 .61v-4.01h.62v10.07h-.54v-.87a5 5 0 01-1 .72 2.45 2.45 0 01-1.42.32zm.08-.55a2.18 2.18 0 001.08-.28 5.55 5.55 0 001-.82V39a3.77 3.77 0 00-1-.68 2.45 2.45 0 00-1-.19 2 2 0 00-.94.23 2.26 2.26 0 00-.75.63 3 3 0 00-.49 1 3.52 3.52 0 00-.19 1.18 4.58 4.58 0 00.15 1.22 2.67 2.67 0 00.43.93 1.89 1.89 0 001.63.82zm7.86.55a3.07 3.07 0 01-1.21-.24 2.85 2.85 0 01-1-.69 3.31 3.31 0 01-.66-1.11 4 4 0 01-.25-1.48 4.07 4.07 0 01.25-1.48 3.36 3.36 0 01.65-1.11 2.85 2.85 0 01.94-.7 2.45 2.45 0 011.09-.25 2.35 2.35 0 011.89.81 3.52 3.52 0 01.68 2.3v.25a2 2 0 010 .25h-4.86a4 4 0 00.2 1.17 2.79 2.79 0 00.51.93 2.35 2.35 0 001.83.82 2.76 2.76 0 001-.17 2.82 2.82 0 00.82-.44l.25.48a7.38 7.38 0 01-.89.45 3.07 3.07 0 01-1.24.21zm-2.48-3.95h4.28a3 3 0 00-.53-1.94 1.78 1.78 0 00-1.44-.64 1.92 1.92 0 00-.82.18 2.21 2.21 0 00-.71.51 2.89 2.89 0 00-.52.81 3.56 3.56 0 00-.26 1.08zm8.32 3.95a3.32 3.32 0 01-1.39-.28 4.08 4.08 0 01-1.08-.65l.37-.46a4.59 4.59 0 00.92.61 2.76 2.76 0 001.22.25 1.67 1.67 0 001.2-.4 1.3 1.3 0 00.39-.93 1 1 0 00-.14-.55 1.52 1.52 0 00-.39-.41 2.9 2.9 0 00-.52-.29l-.58-.24-.77-.27a3.78 3.78 0 01-.69-.37 2.05 2.05 0 01-.5-.52 1.43 1.43 0 01-.19-.74 1.65 1.65 0 01.15-.69 1.46 1.46 0 01.42-.57 2 2 0 01.67-.39 3 3 0 01.94-.14 2.91 2.91 0 011 .2 3.05 3.05 0 01.87.5l-.33.44a4.42 4.42 0 00-.72-.43 2 2 0 00-.89-.18 1.88 1.88 0 00-.67.11 1.42 1.42 0 00-.47.27 1 1 0 00-.28.39 1.2 1.2 0 00-.09.45.89.89 0 00.13.5 1.7 1.7 0 00.35.36 3.17 3.17 0 00.52.27l.58.23.81.31a3.21 3.21 0 01.71.38 1.78 1.78 0 01.51.55 1.58 1.58 0 01.19.82 1.78 1.78 0 01-.14.72 1.73 1.73 0 01-.44.6 2.3 2.3 0 01-.72.41 2.61 2.61 0 01-.95.14zm6.26-.17v-.38l5.3-8.29h-4.84v-.56h5.65v.38l-5.32 8.29h5.37v.56zm10.3.17a3.07 3.07 0 01-1.21-.24 2.85 2.85 0 01-1-.69 3.31 3.31 0 01-.66-1.11 4 4 0 01-.25-1.48 4.07 4.07 0 01.25-1.48 3.36 3.36 0 01.65-1.11 2.85 2.85 0 01.94-.7 2.45 2.45 0 011.09-.25 2.35 2.35 0 011.89.81 3.52 3.52 0 01.68 2.3v.25a2 2 0 010 .25h-4.85a4 4 0 00.2 1.17 2.79 2.79 0 00.51.93 2.35 2.35 0 001.83.82 2.76 2.76 0 001-.17 2.82 2.82 0 00.82-.44l.25.48a7.38 7.38 0 01-.89.45 3.07 3.07 0 01-1.25.21zm-2.48-3.95h4.29a3 3 0 00-.54-1.94 1.78 1.78 0 00-1.44-.64 1.92 1.92 0 00-.82.18 2.21 2.21 0 00-.71.51 2.89 2.89 0 00-.52.81 3.89 3.89 0 00-.26 1.08zm6.69 3.78v-6.72h.54v1a5.53 5.53 0 011.07-.86 2.27 2.27 0 011.24-.35 1.82 1.82 0 011.54.63 3.14 3.14 0 01.49 2v4.31h-.61v-4.24a2.79 2.79 0 00-.36-1.59 1.34 1.34 0 00-1.18-.51 2 2 0 00-1.09.32 6.45 6.45 0 00-1.11.94v5.07zm9.28.17a2 2 0 01-.81-.15 1.4 1.4 0 01-.52-.41 1.6 1.6 0 01-.27-.65 4.18 4.18 0 01-.07-.82v-4.33h-1.06v-.47l1.07-.06.08-1.95h.54v1.95h1.94v.53h-1.94v4.38a3.57 3.57 0 000 .59 1.17 1.17 0 00.18.44.83.83 0 00.34.3 1.35 1.35 0 00.57.1 1.77 1.77 0 00.43-.06 2.19 2.19 0 00.41-.15l.17.51c-.2.07-.39.13-.59.18a2.79 2.79 0 01-.47.07zm2.54-.17v-6.72h.53l.06 1.25a3.39 3.39 0 01.82-1 1.67 1.67 0 011.08-.39 1.83 1.83 0 01.35 0 1.6 1.6 0 01.33.11l-.15.56-.29-.09h-.32a1.56 1.56 0 00-1 .39 3.16 3.16 0 00-.88 1.33v4.58zm6.37.17a1.83 1.83 0 01-1.54-.63 3.14 3.14 0 01-.49-2v-4.26h.61V42a2.79 2.79 0 00.36 1.59 1.33 1.33 0 001.17.51 1.89 1.89 0 001.09-.33 5.37 5.37 0 001.08-1v-5h.6v6.72h-.52l-.07-1.12a4.52 4.52 0 01-1 .94 2.27 2.27 0 01-1.29.31zm5.47-.17v-6.72h.53l.06 1a4 4 0 011-.86 2.1 2.1 0 011.12-.35 1.89 1.89 0 011.24.37 2 2 0 01.62 1 6.68 6.68 0 011.14-1 2.08 2.08 0 011.14-.37c1.34 0 2 .86 2 2.58v4.31h-.63v-4.19a2.7 2.7 0 00-.37-1.59 1.29 1.29 0 00-1.13-.51 3 3 0 00-2 1.26v5.07h-.61v-4.23a2.7 2.7 0 00-.37-1.59 1.31 1.31 0 00-1.15-.51 3 3 0 00-2 1.26v5.07zm12.99.17a3.31 3.31 0 01-1.38-.28 4.08 4.08 0 01-1.08-.65l.36-.46a4.66 4.66 0 00.93.61 2.76 2.76 0 001.22.25 1.63 1.63 0 001.19-.4 1.27 1.27 0 00.4-.93 1.1 1.1 0 00-.14-.55 1.52 1.52 0 00-.39-.41 2.9 2.9 0 00-.52-.29l-.59-.24-.76-.29a3.48 3.48 0 01-.69-.37 1.9 1.9 0 01-.5-.52 1.43 1.43 0 01-.19-.74 1.81 1.81 0 01.14-.69 1.69 1.69 0 01.42-.57 2.16 2.16 0 01.68-.39 3 3 0 012 .06 3.05 3.05 0 01.87.5l-.33.44a4.42 4.42 0 00-.72-.43 2.06 2.06 0 00-.9-.18 1.92 1.92 0 00-.67.11 1.65 1.65 0 00-.47.27 1.08 1.08 0 00-.28.39 1.2 1.2 0 00-.09.45.89.89 0 00.14.5 1.32 1.32 0 00.35.36 3.05 3.05 0 00.51.27l.59.23.78.31a3.21 3.21 0 01.71.38 1.78 1.78 0 01.51.55 1.58 1.58 0 01.19.82 2 2 0 01-.14.72 1.64 1.64 0 01-.45.6 2.14 2.14 0 01-.71.41 2.63 2.63 0 01-.99.16zm6.95-.17v-6.19h-.93v-.47l.93-.06v-1.5a2.27 2.27 0 01.43-1.51 1.52 1.52 0 011.23-.5 2.29 2.29 0 011 .22l-.16.5a1.75 1.75 0 00-.82-.19.9.9 0 00-.79.39 2.08 2.08 0 00-.26 1.13v1.46h1.56v.53h-1.56v6.19zm5.47.17a1.83 1.83 0 01-1.5-.62 3.21 3.21 0 01-.49-2v-4.27h.62V42a2.79 2.79 0 00.36 1.59 1.33 1.33 0 001.17.51 1.92 1.92 0 001.09-.33 5.65 5.65 0 001.08-1v-5h.61v6.72h-.52l-.07-1.12a4.74 4.74 0 01-1 .94 2.28 2.28 0 01-1.35.31zm-.77-8.54a.5.5 0 01-.37-.15.56.56 0 010-.74.5.5 0 01.37-.15.52.52 0 01.38.15.56.56 0 010 .74.52.52 0 01-.34.15zm2.5 0a.48.48 0 01-.37-.15.53.53 0 010-.74.48.48 0 01.37-.15.5.5 0 01.37.15.56.56 0 010 .74.5.5 0 01-.33.15zm3.79 8.37v-6.72h.53l.06 1.25a3.39 3.39 0 01.82-1 1.67 1.67 0 011.08-.39 1.83 1.83 0 01.35 0 1.52 1.52 0 01.32.11l-.14.56-.29-.09h-.32a1.56 1.56 0 00-.95.39 3.26 3.26 0 00-.89 1.33v4.58zm7.31 0v-9.23h.64v9.23zm3.29 0v-6.72h.53v1h.05a5.48 5.48 0 011.06-.86 2.28 2.28 0 011.25-.35 1.83 1.83 0 011.54.63 3.21 3.21 0 01.49 2v4.31h-.62v-4.24a2.79 2.79 0 00-.36-1.59 1.33 1.33 0 00-1.18-.51 2 2 0 00-1.09.32 6.45 6.45 0 00-1.11.94v5.07zm7.54 0v-6.19h-.92v-.47l.92-.06v-1.5a2.27 2.27 0 01.44-1.51 1.52 1.52 0 011.23-.5 2.32 2.32 0 011 .22l-.17.5a1.67 1.67 0 00-.81-.19.87.87 0 00-.79.39 2 2 0 00-.26 1.13v1.46h1.55v.53h-1.55v6.19zm5.99.17a3.07 3.07 0 01-1.21-.24 2.82 2.82 0 01-1-.69 3.33 3.33 0 01-.67-1.11 4.21 4.21 0 01-.25-1.48 4.29 4.29 0 01.25-1.48 3.21 3.21 0 01.66-1.11 2.75 2.75 0 01.94-.7 2.44 2.44 0 011.08-.25 2.35 2.35 0 011.89.81 3.47 3.47 0 01.69 2.3v.25a1 1 0 010 .25h-4.84a3.68 3.68 0 00.19 1.17 2.79 2.79 0 00.51.93 2.59 2.59 0 00.79.6 2.51 2.51 0 001 .22 2.86 2.86 0 001-.17 3.1 3.1 0 00.82-.44l.25.48a8.21 8.21 0 01-.89.45 3.09 3.09 0 01-1.21.21zm-2.47-3.95h4.28a3 3 0 00-.53-1.94 1.81 1.81 0 00-1.44-.64 2 2 0 00-.83.18 2.33 2.33 0 00-.71.51 2.89 2.89 0 00-.52.81 3.56 3.56 0 00-.25 1.08zm6.69 3.78V34.38h.61v7.42l3.32-4.07h.71l-2.18 2.66 2.55 4.06h-.69l-2.19-3.6-1.52 1.77v1.83zm8.13.17a2 2 0 01-.82-.15 1.29 1.29 0 01-.51-.41 1.48 1.48 0 01-.28-.65 4.18 4.18 0 01-.07-.82v-4.33h-1.05v-.47l1.06-.06.08-1.95h.59v1.95h1.94v.53H198v4.38a3.57 3.57 0 000 .59 1.35 1.35 0 00.18.44.83.83 0 00.34.3 1.35 1.35 0 00.57.1 1.77 1.77 0 00.43-.06 2.19 2.19 0 00.41-.15l.17.51c-.2.07-.39.13-.59.18a2.7 2.7 0 01-.51.07zm2.87-8.51a.58.58 0 01-.4-.16.53.53 0 01-.16-.39.55.55 0 01.16-.41.61.61 0 01.8 0 .51.51 0 01.16.41.5.5 0 01-.16.39.58.58 0 01-.4.16zm-.32 8.34v-6.72h.62v6.72zm5.66.17a2.79 2.79 0 01-1.15-.24 2.74 2.74 0 01-1-.69 3.08 3.08 0 01-.66-1.1 4.27 4.27 0 01-.24-1.49 4.37 4.37 0 01.24-1.5 3.21 3.21 0 01.66-1.11 2.74 2.74 0 011-.69 2.79 2.79 0 011.15-.24 2.89 2.89 0 012.12.93 3.36 3.36 0 01.67 1.11 4.14 4.14 0 01.25 1.5 4 4 0 01-.25 1.49 3.21 3.21 0 01-.65 1.1 2.89 2.89 0 01-2.12.93zm0-.55a2.15 2.15 0 00.94-.21 2.36 2.36 0 00.76-.61 3 3 0 00.49-.94 3.61 3.61 0 00.19-1.21 3.57 3.57 0 00-.19-1.21 3 3 0 00-.49-1 2.12 2.12 0 00-.76-.61 2 2 0 00-.94-.22 2 2 0 00-.94.22 2.09 2.09 0 00-.75.61 3.06 3.06 0 00-.5 1 3.84 3.84 0 00-.18 1.21 3.89 3.89 0 00.18 1.21 3 3 0 00.5.94 2.32 2.32 0 00.75.61 2.12 2.12 0 00.94.21zm5.86.55c-.55 0-.82-.36-.82-1.07v-9.17h.61v9.26a.5.5 0 00.14.36.24.24 0 00.21.1h.25l.11.51-.2.05zm4.93 0a2.78 2.78 0 01-1.14-.24 2.74 2.74 0 01-1-.69 3.08 3.08 0 01-.66-1.1 4 4 0 01-.2-1.49 4.14 4.14 0 01.25-1.5 3.21 3.21 0 01.66-1.11 2.74 2.74 0 011-.69 2.78 2.78 0 011.14-.24 2.87 2.87 0 011.16.24 2.74 2.74 0 011 .69 3.21 3.21 0 01.66 1.11 4.14 4.14 0 01.25 1.5 4 4 0 01-.25 1.49 3.08 3.08 0 01-.66 1.1 2.74 2.74 0 01-1 .69 2.87 2.87 0 01-1.21.24zm0-.55a2.2 2.2 0 001-.21 2.32 2.32 0 00.75-.61 3 3 0 00.5-.94 3.89 3.89 0 00.18-1.21 3.84 3.84 0 00-.18-1.21 3.06 3.06 0 00-.5-1 2.15 2.15 0 00-1.7-.83 2 2 0 00-.93.22 2.09 2.09 0 00-.75.61 3.06 3.06 0 00-.5 1 3.84 3.84 0 00-.18 1.21 3.89 3.89 0 00.18 1.21 3 3 0 00.5.94 2.32 2.32 0 00.75.61 2.08 2.08 0 00.88.21zm7.25 3.61a3.53 3.53 0 01-2-.5 1.59 1.59 0 01-.47-2.23 2.73 2.73 0 01.73-.75v-.06a1.21 1.21 0 01-.42-.42 1.22 1.22 0 01-.17-.66 1.18 1.18 0 01.25-.76 2.32 2.32 0 01.48-.47 2.58 2.58 0 01-.58-.76 2.17 2.17 0 01-.26-1.09 2.44 2.44 0 01.18-1 2.29 2.29 0 01.5-.75 2.26 2.26 0 01.76-.49 2.39 2.39 0 01.92-.18 2.59 2.59 0 01.51 0 1.46 1.46 0 01.37.12h2.29v.52h-1.57a2.11 2.11 0 01.53.72 2.22 2.22 0 01.21 1 2.4 2.4 0 01-.18 1 2.29 2.29 0 01-.5.75 2.17 2.17 0 01-.74.49 2.32 2.32 0 01-.92.18 2.41 2.41 0 01-.58-.07A2.17 2.17 0 01224 42a2 2 0 00-.38.4.93.93 0 00-.16.56.88.88 0 00.26.63 1.51 1.51 0 001 .26h1.45a3 3 0 011.67.37 1.3 1.3 0 01.54 1.17 1.81 1.81 0 01-.22.84 2.33 2.33 0 01-.64.73 3.48 3.48 0 01-1 .51 4.53 4.53 0 01-1.27.21zm.07-.5a3.31 3.31 0 001-.15 2.52 2.52 0 00.79-.38 1.77 1.77 0 00.49-.54 1.2 1.2 0 00.18-.62.82.82 0 00-.4-.79 2.26 2.26 0 00-1.15-.24h-1.43a2.45 2.45 0 01-.34 0 2.53 2.53 0 01-.5-.09 2.17 2.17 0 00-.67.69 1.43 1.43 0 00-.21.73 1.17 1.17 0 00.58 1 3 3 0 001.66.39zm-.17-5.36a1.86 1.86 0 00.67-.13 1.63 1.63 0 00.55-.39 1.86 1.86 0 00.38-.6 2.15 2.15 0 00.14-.77 2.11 2.11 0 00-.14-.77 1.75 1.75 0 00-.37-.59 1.74 1.74 0 00-1.23-.5 1.69 1.69 0 00-1.23.5 1.83 1.83 0 00-.38.58 2.13 2.13 0 00-.14.78 2.15 2.15 0 00.14.77 1.88 1.88 0 00.39.6 1.67 1.67 0 00.56.39 1.85 1.85 0 00.66.13zm5.04-5.71a.58.58 0 01-.4-.16.53.53 0 01-.16-.39.55.55 0 01.16-.41.61.61 0 01.8 0 .51.51 0 01.16.41.5.5 0 01-.16.39.58.58 0 01-.4.16zm-.32 8.34v-6.72h.62v6.72zm5.75.17a3.11 3.11 0 01-1.21-.24 2.91 2.91 0 01-1-.69 3.33 3.33 0 01-.67-1.11 4.21 4.21 0 01-.24-1.48 4.29 4.29 0 01.24-1.48 3.21 3.21 0 01.66-1.11 2.85 2.85 0 01.94-.7 2.44 2.44 0 011.08-.25 2.32 2.32 0 011.89.81 3.47 3.47 0 01.69 2.3v.25a1 1 0 010 .25h-4.84a4 4 0 00.19 1.17 2.79 2.79 0 00.51.93 2.51 2.51 0 00.8.6 2.43 2.43 0 001 .22 2.86 2.86 0 001-.17 3 3 0 00.82-.44l.25.48a8.21 8.21 0 01-.89.45 3.09 3.09 0 01-1.22.21zm-2.47-3.95h4.28a3 3 0 00-.53-1.94 1.81 1.81 0 00-1.44-.64 2 2 0 00-.83.18 2.33 2.33 0 00-.71.51 2.66 2.66 0 00-.51.81 3.29 3.29 0 00-.26 1.08z" fill="#004a6f"/></g></g></svg>