<svg xmlns="http://www.w3.org/2000/svg" viewBox="0 0 362.18 56.69"><g data-name="Ebene 2"><g data-name="Ebene 1"><g data-name="Ebene 2"><g data-name="Ebene 1-2"><path d="M28.12 0A30.06 30.06 0 0135 32a29.62 29.62 0 01-15.66 16.3l8.49 8.39A37.5 37.5 0 0038 42.08 38.54 38.54 0 0028.12 0" fill="#009ee0"/><path d="M19.58 38.14h-2.76v-9.41h2.76a4.47 4.47 0 014.8 4.11 4 4 0 010 .6A4.55 4.55 0 0120 38.15h-.44m0 2.1c4.37 0 7.33-2.8 7.33-6.8s-3-6.81-7.33-6.81h-5.2v13.6zm-7.36 0V26.63H9.76v5.57h-7.3v-5.57H0v13.61h2.46V34.3h7.3v5.94zM6.12 24.73c4 0 6.11-2.1 6.11-5.47v-8.39H11v8.37c0 2.76-1.8 4.43-4.88 4.43S1.27 22 1.27 19.24v-8.37H0v8.39c0 3.35 2.09 5.47 6.12 5.47m18.76-.28l-6.82-7.11 6.23-6.47h-1.6l-7.07 7.43v-7.43h-1.25v13.58h1.25V19.7l1.63-1.65 6.03 6.4h1.6z" fill="#004a71"/></g></g><text transform="translate(47.29 24.45)" font-size="20" fill="#004a6f" font-family="SourceSansPro-Regular,Source Sans Pro">SE<tspan x="21.22" y="0" letter-spacing="-.02em">K</tspan><tspan x="32.46" y="0">TION KLINISCHE TROPENMEDIZIN</tspan><tspan font-size="14" font-family="SourceSansPro-Light,Source Sans Pro" font-weight="300"><tspan x="0" y="20" letter-spacing="-.06em">T</tspan><tspan x="6.5" y="20">eil des </tspan><tspan x="45.43" y="20" letter-spacing="-.03em">Z</tspan><tspan x="52.6" y="20">entrums für In</tspan><tspan x="131.99" y="20" letter-spacing="-.01em">f</tspan><tspan x="135.53" y="20">e</tspan><tspan x="142.29" y="20" letter-spacing="-.01em">k</tspan><tspan x="148.61" y="20">tiologie</tspan></tspan></text></g></g></svg>