<svg xmlns="http://www.w3.org/2000/svg" viewBox="0 0 40.61 56.69"><g data-name="Ebene 2"><g data-name="Ebene 1"><path d="M28.12 0A30.07 30.07 0 0135 32a29.59 29.59 0 01-15.66 16.3l8.49 8.39A37.49 37.49 0 0038 42.08 38.55 38.55 0 0028.12 0" fill="#009ee0"/><path d="M19.58 38.14h-2.76v-9.41h2.76a4.47 4.47 0 014.81 4.71 4.54 4.54 0 01-4.81 4.7m0 2.1c4.37 0 7.33-2.8 7.33-6.8s-3-6.81-7.33-6.81h-5.22v13.61zm-7.36 0V26.63H9.76v5.57h-7.3v-5.57H0v13.61h2.46V34.3h7.3v5.94zm-6.1-15.51c4 0 6.11-2.1 6.11-5.47v-8.39H11v8.37c0 2.76-1.8 4.43-4.88 4.43S1.27 22 1.27 19.24v-8.37H0v8.39c0 3.35 2.09 5.47 6.12 5.47m18.76-.28l-6.82-7.11 6.23-6.47h-1.6l-7.07 7.43v-7.43h-1.25v13.58h1.25V19.7l1.63-1.65 6.03 6.4h1.6z" fill="#004a71"/></g></g></svg>