<svg id="Layer_1" data-name="Layer 1" xmlns="http://www.w3.org/2000/svg" viewBox="0 0 100 100"><defs><style>.cls-1{fill:#fff}</style></defs><path class="cls-1" d="M9.48 99.79V89.24H7.57v4.32H1.91v-4.32H0v10.55h1.91v-4.6h5.66v4.6zm9.29 0v-1.63h-5.55v-2.92h5.44v-1.63h-5.44v-2.74h5.55v-1.63h-7.46v10.55zm3.71-10.55h-1.91v10.55h1.91zm5.87 10.55c3.4 0 5.7-2.16 5.7-5.27s-2.3-5.28-5.7-5.28h-4v10.55zm0-1.63h-2.13v-7.29h2.13a3.47 3.47 0 013.74 3.65 3.52 3.52 0 01-3.74 3.64m14.52 1.63v-1.63h-5.55v-2.92h5.43v-1.63h-5.43v-2.74h5.55v-1.63h-7.46v10.55zm8.5 0v-1.63h-4.8v-8.92h-1.91v10.55zm7.07 0c2 0 3.17-1.21 3.17-2.85a2.61 2.61 0 00-2.11-2.59 2.39 2.39 0 001.89-2.42c0-1.49-1.11-2.69-3.1-2.69h-5.35v10.55zm-.54-6.18h-3v-2.74h3a1.38 1.38 0 110 2.74m.1 4.55h-3.15v-2.92H58a1.48 1.48 0 011.67 1.45c0 .92-.62 1.47-1.67 1.47m12.51 1.63v-1.63h-5.57v-2.92h5.43v-1.63h-5.43v-2.74h5.55v-1.63H63v10.55zm10.22 0L78 95.65a3 3 0 002.58-3.1 3.26 3.26 0 00-3.56-3.31h-4.74v10.55h1.91v-3.94h1.9l2.41 3.94zm-3.93-5.57h-2.61v-3.35h2.61a1.69 1.69 0 110 3.35M87.51 100A6 6 0 0092 98.08v-4h-5.16v1.63h3.25v1.65a4.08 4.08 0 01-2.58.94 3.82 3.82 0 010-7.64 3.52 3.52 0 012.83 1.41l1.56-.86a5.16 5.16 0 00-4.39-2.2 5.48 5.48 0 100 10.94M7.82 84.39l-5.08-5.52 4.64-5H6.19L.93 79.61v-5.77H0v10.55h.93V80.7l1.21-1.28 4.49 5zm7.74 0v-.82h-5.28v-9.73h-.94v10.55zm2.84-10.55h-.93v10.55h.93zm11.41 10.55V73.84h-.93v8.94l-6.83-8.94h-.94v10.55H22v-9.07l6.85 9.07zm3.64-10.55h-.93v10.55h.93zM44 84.39l-5.1-5.52 4.64-5h-1.2l-5.25 5.77v-5.8h-.93v10.55h.93V80.7l1.21-1.28 4.49 5zm5.66.19c2.81 0 4.25-1.63 4.25-4.24v-6.5h-1v6.48c0 2.14-1.16 3.44-3.3 3.44s-3.3-1.3-3.3-3.44v-6.48h-.91v6.5c0 2.6 1.45 4.24 4.24 4.24m17.14-.19V73.84h-1.4l-3.69 8.78L58 73.84h-1.41v10.55h.94V75l4 9.41h.36l4-9.41v9.41zM4.24 69.18c2.81 0 4.25-1.63 4.25-4.24v-6.51h-1v6.49c0 2.14-1.16 3.44-3.3 3.44S1 67.06 1 64.92v-6.49H0v6.51a3.86 3.86 0 004.24 4.24M19.57 69V58.43h-.93v8.95l-6.82-8.95h-1V69h.93v-9.08L18.66 69zm3.32-10.56H22V69h.93zM29.94 69l4.45-10.56h-1.07L29.37 68l-4-9.55h-1.05L28.78 69zm12.8 0v-.82h-6V64h5.86v-.83h-5.84v-3.9h6v-.83h-6.93V69zm9.64 0l-3.15-4.43a2.94 2.94 0 003-3 3 3 0 00-3.31-3.09h-4.05V69h.93v-4.38h2.4L51.26 69zm-3.52-5.2H45.8v-4.54h3.06a2.27 2.27 0 110 4.54m8.76 5.38c2.94 0 3.87-1.63 3.87-3 0-3.93-6.49-2.45-6.49-5.18 0-1.14 1.1-2 2.55-2a4 4 0 013.12 1.33l.62-.66a4.73 4.73 0 00-3.69-1.49c-2 0-3.58 1.09-3.58 2.82 0 3.68 6.53 2.07 6.53 5.17 0 .9-.63 2.11-2.85 2.11a4.57 4.57 0 01-3.42-1.54l-.6.68a5.11 5.11 0 004 1.68m6.82-10.67h-.93V69h.93zM70.76 69v-9.74h3.56v-.83h-8.06v.83h3.56V69zM81 56.82a.61.61 0 00-1.21 0 .61.61 0 001.21 0m-3.33 0a.61.61 0 00-1.21 0 .61.61 0 001.21 0M83.76 69L79.3 58.43h-1.16L73.69 69h1.07l1.08-2.6h5.76l1.08 2.6zm-2.47-3.42h-5.14l2.58-6.17zM87.63 69v-9.74h3.56v-.83h-8.07v.83h3.56V69zm8.5.19c2.94 0 3.87-1.63 3.87-3 0-3.94-6.53-2.46-6.53-5.16 0-1.14 1.1-2 2.55-2a3.93 3.93 0 013.11 1.33l.63-.66a4.75 4.75 0 00-3.69-1.49c-2 0-3.58 1.09-3.58 2.82 0 3.68 6.53 2.07 6.53 5.17 0 .9-.63 2.11-2.86 2.11a4.55 4.55 0 01-3.41-1.54l-.6.68a5.11 5.11 0 004 1.68M72.77 48.72a19.1 19.1 0 1119.13-19.1 19.14 19.14 0 01-19.13 19.1m0-37.87a18.77 18.77 0 1018.8 18.77 18.81 18.81 0 00-18.8-18.77"/><path class="cls-1" d="M73.44 42.26a.94.94 0 01-.36-.08 7.64 7.64 0 00-1.69-.51l-.34-.06a10.16 10.16 0 01-2.82-.79 5.13 5.13 0 01-1.8-1.62 1.85 1.85 0 01-.27-.63 2.19 2.19 0 00-.16-.41c-.15-.28-.24-.29-.47-.31a2 2 0 01-.48-.11c-1.61-.6-2.71-2.52-3.1-4.16 0 0 0-.11-.05-.18-.19-.72-.53-2.07.19-2.4a2.53 2.53 0 01.36-.12 1 1 0 00.52-.27 2.17 2.17 0 00.23-1v-.19a3.67 3.67 0 00-.61-2.36l-.12-.21c-.08-.16-.3-.59-.41-.63a2.18 2.18 0 00-.39-.05 1.4 1.4 0 01-.82-.25l-.13-.13v-.11a11.65 11.65 0 011.34-2.24c.18-.26.37-.53.54-.79 0 0 1.49-2.07 2.18-2.07a.36.36 0 01.33.2 1.72 1.72 0 01.12.7 1.21 1.21 0 00.11.64c.27.43.6.88 1 .88a1.06 1.06 0 001-.56 1.23 1.23 0 00-.36-1.32 1.94 1.94 0 00-.78-.47l-.47-.2h.07c-.14 0-.32 0-.39-.19a.24.24 0 010-.25 2.93 2.93 0 01.72-.8 13.63 13.63 0 012.11-1.45l.72-.44a1.26 1.26 0 01.68-.21c1 0 1.66 1.33 1.83 1.73v.11c.11.25.24.56.37.56s.12 0 .27-.17a3.25 3.25 0 00.52-.8 5.22 5.22 0 01.39-.66l.08-.1c.54-.74.81-1 1-1h.12c.18.1.37.19.55.27a12.29 12.29 0 011.14.59l.31.18a3.76 3.76 0 011.07.75.65.65 0 01.2.5c0 .28-.3.45-.56.61a2.77 2.77 0 00-.29.21 1.54 1.54 0 00-.41 1.5c.12.32.42.44.85.35a1.39 1.39 0 00.86-.93 2.86 2.86 0 000-.61c0-.53 0-.86.15-1a.48.48 0 01.27-.08c.5 0 1.35.71 2.24 1.5.19.16.35.31.44.37a4.56 4.56 0 012 2.48.28.28 0 010 .22c-.11.14-.34.14-.62.14s-.45 0-.5.06a3.44 3.44 0 00-.41 1.67v1.1a15.3 15.3 0 00.12 2.39c0 .08 0 .08.09.08a1.12 1.12 0 00.27-.05 1.34 1.34 0 01.66 0 2.07 2.07 0 011.08 1.53 2.25 2.25 0 010 .69 1.64 1.64 0 000 .7.35.35 0 00.08.1.38.38 0 010 .52 2.64 2.64 0 00-.24.57 1.72 1.72 0 01-.07.21 6.09 6.09 0 01-1.7 2.68 5.35 5.35 0 01-.77.43c-.2.11-.4.21-.59.33a1.84 1.84 0 00-.56 1c0 .11-.07.21-.1.31-.71 2-2.94 2.8-4.74 3.41l-.62.21a3.4 3.4 0 00-.34.16 1.72 1.72 0 01-.78.26M61.16 25.73a1.63 1.63 0 00.56.11 3.17 3.17 0 01.46.07c.23.07.42.39.63.81l.11.18a4.09 4.09 0 01.65 2.59v.18a2.28 2.28 0 01-.32 1.17 1.29 1.29 0 01-.69.38 1.42 1.42 0 00-.31.11c-.45.2-.12 1.5 0 2v.18c.35 1.5 1.4 3.36 2.87 3.91a1.4 1.4 0 00.41.08.83.83 0 01.74.49 3.23 3.23 0 01.18.49 1.58 1.58 0 00.22.51 4.48 4.48 0 001.73 1.51 9.53 9.53 0 002.71.76l.35.06a8.37 8.37 0 011.77.54 1 1 0 00.83-.18 3 3 0 01.37-.17l.64-.22c1.72-.59 3.86-1.32 4.51-3.19l.09-.29a2.14 2.14 0 01.72-1.24 5.36 5.36 0 01.62-.34 7.38 7.38 0 00.72-.41 5.82 5.82 0 001.57-2.51c0-.07 0-.14.07-.2a3 3 0 01.27-.65v-.05a.91.91 0 01-.15-.25 1.84 1.84 0 010-.84 2 2 0 000-.59 1.77 1.77 0 00-.86-1.26 1.09 1.09 0 00-.46 0 1.43 1.43 0 01-.34.06.41.41 0 01-.44-.38 14.92 14.92 0 01-.13-2.45v-1.09a3.75 3.75 0 01.44-1.83c.12-.27.48-.27.83-.27h.29A4.33 4.33 0 0081 21.32c-.1-.07-.26-.21-.47-.39-.51-.46-1.59-1.41-2-1.41a2.61 2.61 0 000 .71 2.64 2.64 0 010 .73 1.74 1.74 0 01-1.13 1.17 1 1 0 01-1.4-.56 1.9 1.9 0 01.5-1.9 3.12 3.12 0 01.35-.25c.18-.11.38-.24.39-.35a.35.35 0 00-.11-.23 3.56 3.56 0 00-1-.67 3.37 3.37 0 01-.32-.19c-.36-.2-.74-.39-1.11-.56l-.53-.26c-.07 0-.26.19-.74.85l-.08.1a4.42 4.42 0 00-.36.62 3.47 3.47 0 01-.59.88.74.74 0 01-.52.27c-.37 0-.54-.39-.7-.77V19c-.32-.73-.89-1.51-1.51-1.51a1 1 0 00-.49.15c-.24.16-.48.3-.72.44a14.8 14.8 0 00-2.07 1.41 3.39 3.39 0 00-.58.62.65.65 0 01.21.05c.15.08.29.13.43.19a2.12 2.12 0 01.91.55 1.61 1.61 0 01.43 1.72 1.4 1.4 0 01-1.38.76c-.7 0-1.14-.7-1.35-1a1.54 1.54 0 01-.16-.83 1.5 1.5 0 00-.08-.54c-.38 0-1.58 1.45-1.89 1.91-.18.27-.36.53-.55.79a12.29 12.29 0 00-1.25 2.06m28.02-1.1a.33.33 0 11-.33-.34.33.33 0 01.33.34"/><path class="cls-1" d="M67.79 34c-.48.24-1.6-.22-1.13-.43s1.76.11 1.13.43m-.23 1.06c.49-.15 1.18.28.64.39-.22 0-.75.14-.89 0s0-.36.25-.39m.73 1.55c.24 0 .8.08.53.4a1.51 1.51 0 01-1-.08c-.09-.18-.1-.35.26-.32zm-1.2-5.85c0-.13.12-1.26 0-1.29s-.48.36-.8.36c-.55 0-.5-.93-1-.56-.62.89 1 .72 1.3 1.2.68.93-.7-.07-1 0a.67.67 0 00-.47.61c0 .44.22.06.45 0a.93.93 0 01.93.06c.24.18 0 .86.22.91s.49.07.58 0c.28-.32 0-.94-.18-1.28m-2.91-7.38c-.33.44.28 1 .67 1.17.19.1 1.4.2 1.08-.3 0-.09-.67.39-1 0s-.35-.82-.72-.88zm-.5.89c-.17.51.15 1 .57.48 0 .4.4.21.41.4s.09.63.46.63c.66 0 .2 1-.26 1.05 0-.15.29-.57.17-.74-.22-.32-.54.11-.61.31-.15-.22 0-.48-.18-.72s-.48-.24-.65-.41-.5-1.08.06-1zm9-2.84a1.49 1.49 0 00-1.06.09c-.29.19-.25.51-.46.72-.39.4-.58 0-1.11 0s-.92.55-.51.44a1.39 1.39 0 011.54.54c.17.21 1.36 1.22 1 .41 0-.06-.38-.19-.46-.3a.59.59 0 01.16-.79.85.85 0 01.87-.19c.16.05.35.39.51.35.62-.17-.16-1.19-.51-1.27m-.49.61c-.11 0-.49.24-.54 0s.37-.34.37-.34c.45-.19.9.26.17.38m-3.76-2.53a4.26 4.26 0 011.48 0c.15.07.79.43.44.63s-.6.11-.79.55c-.11.25-.07.66.22.7a.67.67 0 01.93-.82c.14.06.31.28.47.28s-.18-.65-.22-.71c-.19-.22.1-.41-.43-.77a1.71 1.71 0 00-2.1.16M74.75 21c-.41.4-.85.14-.23.73a1.23 1.23 0 01.35.83c0 .34-.68-.16-.77-.18.52 1-.21 1-.81 1.53.61.4 1.47-.2 2-.52.21-.12.52-.39.79-.3s.12.49.27.54.09-.52 0-.62c-.15-.27-.54-.11-.69-.41a11 11 0 00-.91-1.6zm-.27-1.95c-.62-.11-1.56.72-1.21 1.34.43-.89 1.46-.7 1.62.29.45-.65.57-1.46-.41-1.63m.11.67c-.15-.12-.73-.28-.18-.39.5.06.4.59.18.39M63.06 32.21a2.36 2.36 0 00.18 1.67c.09.22.58 1.85 1 1.57a12.31 12.31 0 00-1.14-3.31zm19.13-2.1a6.22 6.22 0 01.45 1.25c.14.63.51.38.5-.15a2.27 2.27 0 00-.48-1.21c-.23-.16-.48-.23-.48.13zm-2.07 4.38c.34-.55-.18-.94-.65-.47-.18.18-.48.22-.3-.17s.27-.6.85-.68c0 0 .68-.11.47-.27a3.9 3.9 0 01-.75-.26c-.14-.45.79-.12.79-.51s.06-.67.36-.71c.46-.07 1.73.83 1.09.91-.16 0-.9-.22-.9.11 0 .49.54.38.9.47.13 0 0 .41-.09.39-.36-.08-.51-.35-.76 0s-.17.77-.37 1.07-.64.71-.66.19zM80 25.28c.23-.44 0-.56-.28-.18a1.26 1.26 0 00-.2.64s0 .37-.14.46c-.41.21-.91 1-.78 1.4s.32.29.4 0 0-.3.36-.42a.58.58 0 01.62.25c0 .09.4.35.4.35s.38.2.29-.14a2 2 0 00-.44-.93 1.84 1.84 0 01-.37-.9c0-.09-.08-.1.14-.53m-12.3 1.8a1.77 1.77 0 01-.64.36c-.19 0-.17-.16-.06-.28a.21.21 0 01.22-.08c.13.05.18-.06.33-.1s.17 0 .15.1M74.1 29c-.68.06-.06-.18 0-.22s.75-.2.79-.11-.14.27-.82.33M76 27.8a7 7 0 01-.86.35c-.26.12-.26.32-.84.14s-.21-.58.23-.62a9.81 9.81 0 001.56-.31c.72-.18.23.25-.09.44m1.39-1.16c-.21.32-1.35.44-1.41.47a2.29 2.29 0 01-1.51.15c-.66-.29-.37-.66.18-.73s.53 0 1-.07a9.27 9.27 0 011.77-.46c1-.06.19.31 0 .63m-2.63-1.43A5.59 5.59 0 0078 23.67a17.37 17.37 0 011.28-1.48c.25-.19.65 0 .29.44a6.53 6.53 0 01-4.07 2.73c-.62.06-2.08-.16-.72-.16"/><path class="cls-1" d="M74.11 26.22c1.17.41 2.34-.39 3.13-.48 1.42-.15 2.23-1.65 3.35-3 .46-.57.12-.37-.15-.26-.89.35-2 3.2-5.52 3.23a2.28 2.28 0 01-1.41-.37 2 2 0 00-1.73.24c-.82.6-.22 1.73.12 2a1.89 1.89 0 01.24 2.07c-.2 0-.38-.07-.55-.11l-.41-.08a2.69 2.69 0 01-1.26-.51l-.38-.39a.14.14 0 01-.05-.16c.08-.25.65-.53.79-.58.12 0 .45-.13.46-.36s-.36-.33-.55-.36a3.09 3.09 0 00-.86 0c.29-.18 1.34-.71.57-1.68a2.37 2.37 0 01-.27-1.64s-.53.44-.26 1.65c.2.85-.5.49-.64.42s-.66-.61-1.26-.25c-.34.2-.58-.07-.43-.21.34-.32 1-1.37.77-1.55a16 16 0 01-1.31 1.33c-.18.09-.59.92-.18 1.09a1.69 1.69 0 00.41.12c-.19.29-.49.75-.59 1a1 1 0 01-.41.42l-.14.1c0 .06-.32.35-.25.63a.41.41 0 00.28.29 6.46 6.46 0 001.71.22 1.44 1.44 0 00.49-.05h.19c.1 0 .13 0 .14.05s.08.13 0 .38a2.81 2.81 0 01-.11.46 1.41 1.41 0 000 .77c.09.69.27 1.6.27 1.6s.1.89 1.3 1.08a.65.65 0 00.24 0h.1c.07 0 .13 0 .19.15a1 1 0 000 .43.91.91 0 00.12.34.64.64 0 01.07.21 7.89 7.89 0 01.32 1.22v.29a2.16 2.16 0 010 .54v.95a3 3 0 000 .51v.32a.54.54 0 000 .18h-1.41a1.49 1.49 0 00.56-.22c.4-.28 0-1.42-.82-3.57-.12-.28-.21-.51-.25-.62l-.12-.33a3.57 3.57 0 01-.19-.61c0-.29-.1-.55-.45-.55h-.31c-.66 0-2 .1-2 .11-.3.23-.09 1.11.89 3.6l.19.51c0 .08 0 .17.08.26.16.54.41 1.36 1 1.38h.15a.37.37 0 00-.21.33c0 .58 1.68 1.21 1.7 1.22a13 13 0 003.17.59h.6a9.16 9.16 0 004.48-1.12s.7-.41.66-.8a.36.36 0 00-.28-.3 2.63 2.63 0 00-.76-.05.51.51 0 00.27-.38c.08-.69.15-1.09.18-1.23s0-.07 0-.09a.29.29 0 010-.09c0-.12.08-.3.12-.47a2.7 2.7 0 01.35-.82.86.86 0 000-.91 3.9 3.9 0 01-.08-.74 1.19 1.19 0 00.1-.48 1.81 1.81 0 01.07-.52 1.71 1.71 0 001.15-.58 2.21 2.21 0 00-.32-2.44 2.81 2.81 0 00-1.77-.88 2.39 2.39 0 00-1-.26h-.11a1.82 1.82 0 00-1.08.42 4 4 0 01-1.69.82 3.29 3.29 0 01-.44.05c.45-.57 1.19-2.13.18-2.06s-.61-.27-.26-.32c.18 0 .86-.51.76-1s.27-.06.41 0m-4 1.17h.07a2 2 0 00-1 .69c-.15-.19-.29-.39-.42-.58a3.52 3.52 0 011.35-.13m-1.51-1.26a2.39 2.39 0 00.83.12c.4 0 .11.16.11.16a1 1 0 01-1 .12c-.42-.18.06-.4.06-.4M67.1 36.9q0-.15-.09-.27c0-.1-.1-.29-.2-.53a14.37 14.37 0 01-1-3.15c.32 0 1.34-.09 1.88-.1H68a.69.69 0 01.06.24 3.69 3.69 0 00.2.69 2.85 2.85 0 01.12.31c0 .12.13.35.25.65.28.7 1.15 2.85 1 3.13a1.55 1.55 0 01-.92.21h-.91c-.37 0-.57-.68-.7-1.12M78 38.65a1.4 1.4 0 01-.48.44 8.9 8.9 0 01-4.88 1.06 12.76 12.76 0 01-3.07-.57c-.54-.19-1.44-.69-1.46-.87h.07c1 .09 4 .11 5.83.07l2.83-.09h.21a3.1 3.1 0 01.92 0m-6.5-4v-1.33a.41.41 0 000-.09.34.34 0 01.15 0 2.33 2.33 0 00.91.16 3.28 3.28 0 001.15-.22 1.28 1.28 0 00.62.24c.31.06.5.11.56.31a3.8 3.8 0 01-.21 1.63 2.16 2.16 0 00-.13.83 8.35 8.35 0 01-.47 1.88.22.22 0 000 .27h-.57c0-.41-.3-.73-.11-1s.93-.58.87-.8a6.52 6.52 0 01-.33-1.57c.06-.26.61-.19.57-.34s-.55-.32-.77-.25c-.47.16.19 1.82 0 1.88s-.42-.64-.91-.62-.67.61-.2.52a.62.62 0 01.72.61c-.09.81-.6 0-.83.14s.74.67.15 1.2c-.14.13-.17.23-.13.31h-.28c-.23-.89-.66-2.61-.67-2.09s0 .67 0 .91a2.08 2.08 0 00.39 1.18h-.62a1.16 1.16 0 00.06-.15 23.66 23.66 0 00.1-3.6m5.18 3.59l.05.06-2.1.07a.61.61 0 00.26-.39 2.64 2.64 0 01.32-.82 2.39 2.39 0 00.16-.32 2.68 2.68 0 00.12-.59 1.81 1.81 0 010-.23 2.56 2.56 0 01.3-.87 2.06 2.06 0 00.21-.76 1.58 1.58 0 010-.21.59.59 0 01.23-.24.75.75 0 00.26-.27l.18.19a2.73 2.73 0 00.29.27s0 .06.07.17a1.22 1.22 0 00.18.47.61.61 0 010 .63 1.49 1.49 0 00-.16.62.7.7 0 010 .16 16.69 16.69 0 01-.4 1.77.23.23 0 000 .24m-.58-4.59a.82.82 0 00-.35.38 1 1 0 00-.07.31 1.72 1.72 0 01-.17.62 2.92 2.92 0 00-.34 1v.27a1.58 1.58 0 01-.1.49c0 .1-.1.29-.15.38V37a3 3 0 00.12-.84 2.09 2.09 0 01.12-.64 4.12 4.12 0 00.22-1.88c-.14-.4-.53-.48-.84-.54l-.32-.1a4.45 4.45 0 00.84-.53.39.39 0 01.26-.09.82.82 0 01.56.27A1.32 1.32 0 0176 33a1.15 1.15 0 00.22.37c0 .16-.06.2-.17.29m2.17-4.38l.14.05.3.22a1.17 1.17 0 01.28.3c.25.49.57 1.36.05 1.8a2.11 2.11 0 01-.35.25 1.17 1.17 0 00.24-.7 2.44 2.44 0 00-.71-1.95m-5.44.75a4 4 0 002.64-1 1.54 1.54 0 011-.35 2 2 0 011 .31 2.4 2.4 0 011.17 2.22.91.91 0 01-.22.56 1.63 1.63 0 00-.11.17l-.06.11a2.22 2.22 0 01-1.08-.2l-.07-.03-1.63-.64H75v.15c0 .16 0 .16.92.59a12 12 0 001.11.48 3.89 3.89 0 00.92.19 2.52 2.52 0 000 .48.66.66 0 01-.08.34.62.62 0 000 .16 3 3 0 00.14 1A.55.55 0 0178 35a3.22 3.22 0 00-.41.95c0 .15-.08.31-.11.43a.63.63 0 010 .15.18.18 0 010 .06c0 .15-.1.55-.18 1.26 0 .07-.09.12-.19.15.14-.51.34-1.56.38-1.71a1.19 1.19 0 000-.22 1.38 1.38 0 01.09-.45.94.94 0 000-1 1 1 0 01-.13-.36.58.58 0 00-.19-.37 2.28 2.28 0 01-.26-.23 5.93 5.93 0 00-.32-.34 1 1 0 01-.29-.42 2 2 0 00-.2-.38 1.14 1.14 0 00-.86-.44.79.79 0 00-.49.17 3.52 3.52 0 01-2.17.85 2.16 2.16 0 01-.76-.12.71.71 0 00-.3-.09.39.39 0 00-.34.22v.06a.83.83 0 00-.07.6v.93A17.24 17.24 0 0171 38v-.07a3.61 3.61 0 010-.46 4.12 4.12 0 000-.55v-.43a3.37 3.37 0 000-.61 2 2 0 010-.26 9.61 9.61 0 00-.33-1.29.94.94 0 00-.1-.3.78.78 0 01-.09-.25.59.59 0 010-.28v-.14a.55.55 0 00-.55-.45h-.13a.75.75 0 01-.15 0c-.92-.14-1-.75-1-.79s-.17-.9-.26-1.58a1.13 1.13 0 010-.61 3.45 3.45 0 00.12-.52.81.81 0 00-.12-.68.63.63 0 00-.72-.11 1.7 1.7 0 01-.37 0 5.8 5.8 0 01-1.58-.21h-.06a.56.56 0 01.15-.3l.11-.07a1.47 1.47 0 00.55-.58 11.19 11.19 0 01.7-1.12.89.89 0 01.44-.19s.17 0 .24.26a6.64 6.64 0 001.81 2.77 3 3 0 001.45.6l.39.08a5.4 5.4 0 001.22.16m-16.09 1.76a.33.33 0 01-.33.33.33.33 0 01-.33-.33.33.33 0 11.66 0m5.82 10.72a.33.33 0 01-.33.33.32.32 0 01-.33-.33.33.33 0 01.33-.34.34.34 0 01.33.34m10.7-29.74a.34.34 0 11-.67 0 .34.34 0 01.67 0m-13.97 9.09a.26.26 0 00-.08-.41l-1.34-.91a.26.26 0 00-.41.08l-.19-.12 1-1.52.82.17v.2a1 1 0 00-1 .45c-.11.17-.11.25 0 .36l.47.31.11-.16c.13-.2.06-.32-.22-.53l.1-.15 1 .7-.1.14c-.34-.18-.46-.19-.62 0l-.07.12.68.46c.17.11.23.09.38-.13s.27-.64-.06-1.25l.19-.09.54.79L59.37 22zm1.41-2.05a.26.26 0 000-.42l-1.18-1.1c-.15-.15-.27-.13-.42 0l-.16-.16.74-.8.16.16c-.18.2-.18.3 0 .47l1.17 1.09c.12.11.2.14.33 0a1 1 0 00.16-1.21l.2-.08.41.87L60.76 20zm1.56-1.68a.26.26 0 00.05-.41l-1-1.28c-.12-.16-.24-.17-.41-.05l-.14-.18 1-.8c.36-.28.75-.44 1.06 0a.56.56 0 01.07.64v.08h.06a.59.59 0 01.77.2c.4.52.1.94-.25 1.22l-1 .81zm-.24-1.51l.27-.21c.23-.18.43-.42.21-.7s-.37-.27-.71 0-.25.28-.12.45zm.65.82c.14.18.22.16.46 0a.55.55 0 00.14-.84.42.42 0 00-.68-.08l-.41.32zm1.59-.87a.27.27 0 00.12-.4l-.79-1.42c-.1-.18-.22-.2-.4-.12l-.08-.19 1.6-.9.64.53-.1.17a1 1 0 00-1.14-.07c-.19.11-.22.18-.13.34l.27.5.18-.1c.21-.12.19-.25 0-.57l.15-.09.61 1.09-.16.09c-.21-.32-.32-.38-.56-.25l-.12.07.4.73c.1.17.17.18.39 0s.54-.45.52-1.14h.21l.12.95-1.66.93zm2.19-1.2a.26.26 0 00.17-.38L66 13.46c-.07-.2-.18-.24-.38-.18l-.08-.21 1.2-.44c.62-.23.9 0 1 .37a.71.71 0 01-.29.86l.73.56c.17.12.23.16.41.13l.08.21-.58.21-1.09-.88-.25.09.24.65c.07.19.18.23.37.17l.08.22-1 .36zm.28-1.42l.21-.08c.44-.16.55-.35.43-.67s-.29-.39-.65-.26-.3.15-.23.36zm4.38-.75c-.2.07-.23.15-.2.37l.15.78h-.25l-.14-.25a1 1 0 01-.67.45c-.69.13-1.2-.42-1.34-1.16a1.23 1.23 0 01.83-1.56A1 1 0 0170 12v-.16h.17l.38.84-.18.1c-.3-.48-.64-.63-.91-.58s-.56.54-.44 1.22.53 1 .88 1a.54.54 0 00.46-.66.3.3 0 00-.35-.27v-.22l1-.18zm3.8.21h.19c.15.66.47.93.75 1a.46.46 0 00.57-.36c0-.21 0-.32-.3-.46l-.5-.26a.68.68 0 01-.43-.8.74.74 0 01.9-.62 1.07 1.07 0 01.55.3l.07-.2h.17l.07.81h-.2a.92.92 0 00-.66-.77.34.34 0 00-.44.29c0 .16 0 .28.2.38l.58.3c.37.19.53.41.45.8a.86.86 0 01-1.08.72.93.93 0 01-.58-.32l-.08.14h-.16zm2.05 1.2c.2 0 .31 0 .37-.2l.49-1.55a.27.27 0 00-.19-.37l.06-.22 1 .32-.07.21c-.19 0-.31 0-.37.2l-.48 1.55c-.06.2 0 .3.19.37l-.07.22-1-.32zm3.81.55c-.2-.05-.28 0-.37.2l-.32.71-.23-.1v-.29a1 1 0 01-.82 0 1.23 1.23 0 01-.43-1.72 1.25 1.25 0 011.58-.81 1 1 0 01.44.43l.12-.11.16.07-.17.9h-.21c0-.56-.16-.88-.41-1s-.77.12-1 .74-.16 1.15.16 1.29a.53.53 0 00.76-.27.3.3 0 00-.13-.43l.09-.2.9.41zm-.26.92c.18.1.3.08.4-.09l.85-1.39c.11-.18.07-.29-.09-.41l.12-.19.88.55-.11.19c-.18-.09-.3-.08-.4.1l-.86 1.39c-.1.17-.06.28.1.4l-.12.19-.89-.54zm1.12.67a.26.26 0 00.41 0l1-1.28a.25.25 0 00-.05-.41l.15-.18.85.68-.14.18c-.21-.16-.31-.16-.47 0l-1 1.25c-.11.14-.13.22 0 .34a1 1 0 001.21.06l.1.19-.84.48-1.41-1.12zm1.79 1.44a.26.26 0 00.42 0l1.18-1.11c.15-.14.14-.26 0-.42l.17-.15.75.8-.17.15c-.19-.19-.28-.2-.47 0L84 18.53c-.12.11-.16.19 0 .34a1 1 0 001.19.24l.07.2-.89.35-1.24-1.32zm3.36.02l.59.84-.18.13c-.15-.19-.2-.18-.28-.12a.77.77 0 00-.12.13l-1 1.34 1.5-.49a.85.85 0 00.19-.09c.09-.07.12-.14 0-.33l.19-.13.46.66-.18.13c-.1-.1-.21-.12-.47 0l-2.12.65-.19-.27 1.3-1.76c.17-.24.19-.33.1-.52zm1.39 3.02c.19-.09.22-.2.15-.39l.2-.1.4.86-1.44 1.2 1.85-.28.38.82-.2.09a.26.26 0 00-.39-.14l-1.46.72c-.19.08-.22.2-.15.39l-.2.1-.46-1 .21-.1c.16.26.21.28.48.15l1.6-.75-2.43.39-.1-.18 1.88-1.58-1.67.78a.25.25 0 00-.14.39l-.21.1-.36-.83.21-.09a.27.27 0 00.39.14zm2.11 3.99l.34 1.79-.69.44-.13-.15.12-.12a.86.86 0 00.29-.85c0-.2-.11-.26-.32-.22l-.52.1v.2c0 .24.18.26.53.21v.18l-1.14.21v-.17c.37-.11.46-.19.41-.47v-.13l-.78.15c-.2 0-.26.15-.23.35h-.22l-.2-1 .22-.05c0 .2.14.27.34.23l1.59-.31c.21 0 .26-.15.23-.35zm-2.01 2.25c.06.16.12.23.45.33l2.08.64v.39l-2.08.87c-.25.11-.31.16-.33.35h-.22L88 29h.23c0 .23.07.3.14.3l.16-.05L89 29v-.82l-.38-.1a.69.69 0 00-.23 0c-.07 0-.14.08-.14.27H88v-.85zm1 .8v.69l1-.4zm1.37 3.82v.18l-.9.12-.05-.2c.54-.15.78-.44.81-.71s-.36-.7-1-.76-1.14.16-1.18.58a.87.87 0 00.49.84l-.13.19a1.06 1.06 0 01-.63-1.07 1.41 1.41 0 012.76.2 1 1 0 01-.26.56zm-.13.97l-.26 1-.22-.05c0-.23 0-.27-.08-.29h-.18l-1.66.07 1.34.85.18.09c.12 0 .19 0 .26-.2H90l-.2.79-.22-.06c0-.14 0-.24-.26-.39l-1.86-1.16.08-.32 2.18-.13c.29 0 .37-.06.46-.26zM87.36 35c-.07.19 0 .31.15.39L89 36c.19.09.3 0 .39-.15l.21.1-.44 1-.21-.09c.1-.26.07-.34-.16-.45l-1.46-.64c-.15-.07-.23-.07-.32.11a1.06 1.06 0 00.25 1.2l-.16.14-.67-.69.73-1.66zm-1.07 2.25c-.14.23-.12.33.09.46l1.49.9c.1.06.13 0 .17 0a.72.72 0 00-.11-.72l-.06-.09.17-.09.5.56-.93 1.54-.73-.18v-.23H87a.71.71 0 00.69-.24c0-.07.06-.11 0-.17l-1.49-.9c-.22-.13-.31-.1-.46.12l-.19-.12.59-1zm-.81 1.38c-.07.15-.07.25.1.54l1.09 1.89-.26.31-2.11-.79c-.25-.09-.33-.1-.47 0l-.18-.14.67-.81.18.14c-.14.18-.16.26-.1.31a.42.42 0 00.15.07l.47.18.55-.66-.2-.33a1.27 1.27 0 00-.14-.19c-.06 0-.16 0-.3.1l-.17-.15.54-.65zm.22 1.3l-.43.53 1 .38zm-23.26 1.49c-.15-.08-.25-.09-.56 0l-2 .89-.28-.29 1-2c.11-.24.12-.32 0-.48l.16-.16.74.76-.17.16c-.16-.16-.24-.19-.29-.14a.49.49 0 00-.09.15l-.23.45.6.62.35-.17a1.36 1.36 0 00.2-.12c.05 0 .05-.15-.06-.3l.16-.16.59.61zm-1.32.09l-.48-.5-.49 1zm-3.5-2.03l-.1-.14.6-.69.17.12c-.32.47-.31.85-.15 1.07s.73.29 1.29-.1.75-.87.51-1.22a.89.89 0 00-.93-.31L59 38a1.07 1.07 0 011.18.39 1.27 1.27 0 01-.46 1.78A1.24 1.24 0 0158 40a1 1 0 01-.17-.6zm1.67-1.87c-.12-.12-.21-.16-.54-.13l-2.17.23-.17-.36L58 35.74c.19-.19.22-.27.17-.45l.2-.1.46 1-.2.1c-.11-.21-.18-.25-.24-.22a.37.37 0 00-.13.11l-.36.35.38.78h.39l.22-.05c.06 0 .1-.13 0-.31l.2-.1.37.76zM58 37.29l-.31-.62-.75.75zm-.86-6.54c0-.2-.08-.3-.29-.3h-1.62c-.2 0-.28.09-.3.29h-.22v-1.06h.22c0 .2.09.3.3.3h.55V29h-.56c-.2 0-.28.09-.29.29h-.23v-1h.3c0 .2.08.29.29.29h1.62c.21 0 .28-.09.3-.29h.23v1.05h-.23c0-.21-.09-.3-.29-.3h-.82v1h.82c.2 0 .28-.08.29-.29h.23v1zm.07-2.75c0-.2 0-.31-.24-.35l-1.6-.29c-.2 0-.29 0-.34.24h-.22l.33-1.81.81-.17.07.19a1 1 0 00-.76.82c0 .21 0 .28.19.32L56 27v-.2c0-.24-.07-.31-.41-.39v-.18l1.22.23v.17c-.38 0-.5 0-.55.28v.14l.81.15c.2 0 .25 0 .29-.27s0-.7-.54-1.12l.12-.17.82.51-.33 1.85zm.48-2.44c.05-.2 0-.31-.19-.37l-1.56-.48c-.19-.06-.29 0-.36.2l-.22-.07.31-1 .22.07c0 .19 0 .31.19.36l1.55.48a.25.25 0 00.36-.19l.22.06-.3 1zm.31-1.27a.25.25 0 00-.14-.39l-1.48-.67c-.18-.08-.29 0-.38.15l-.21-.1.51-1.14a1.22 1.22 0 011.7-.52 1.2 1.2 0 01.74 1.61l-.53 1.16zm.09-.79c.13.07.21.08.35-.22s.12-.86-.69-1.22c-.48-.22-1-.22-1.28.33-.13.28-.1.33.11.43zm25.38 17.4c-.19.19-.21.28 0 .47l1.16 1.31c.07.08.1.06.17 0a.76.76 0 00.11-.73v-.1h.19l.31.69L84 43.71l-.64-.39.06-.19h.1a.72.72 0 00.73 0c.06 0 .08-.08 0-.17l-1.16-1.31c-.17-.18-.26-.18-.47 0l-.15-.17.85-.76zm-1.4 1.2a.26.26 0 00-.07.41l.93 1.33c.11.16.23.18.41.07l.13.19-.86.6-.13-.19a.26.26 0 00.07-.41l-.93-1.33c-.11-.17-.23-.18-.41-.08l-.13-.18.86-.6zm-.67 1.37l-.12.16c-.53-.41-1-.41-1.2-.27a.47.47 0 00-.21.65c.1.18.24.21.53.15l.55-.11a.67.67 0 01.84.33.75.75 0 01-.3 1 1.07 1.07 0 01-.61.13v.14l-.15.08-.56-.58.13-.15a.88.88 0 001 .16.35.35 0 00.16-.5.33.33 0 00-.4-.16l-.63.14c-.41.09-.68 0-.87-.32a.87.87 0 01.44-1.2.9.9 0 01.6-.12v-.17l.14-.08zm-3.23 2.84c0 .2.16.25.36.21v.22l-.9.24-.92-1.63v1.88l-.88.23v-.22c.19-.06.26-.16.21-.36l-.41-1.57a.26.26 0 00-.36-.22v-.22l1-.27.06.22c-.28.12-.3.16-.23.45l.37 1.73.07-2.47h.21L78 46.59l-.46-1.79c-.05-.2-.16-.25-.35-.21l-.06-.22.82-.21v.22c-.19.06-.26.16-.21.35zm-3.28-1.19c-.2 0-.29.11-.27.31l.1 1.63c0 .2.12.27.32.27v.23l-1.82.12-.36-.75.16-.12a1 1 0 001 .54c.21 0 .27-.06.26-.25v-.56H74c-.24 0-.28.15-.27.5h-.18l-.08-1.24h.17c.06.37.13.48.41.46h.13v-.83c0-.19-.07-.23-.33-.21s-.67.18-1 .81l-.19-.09L73 45l1.89-.13zm-2.49.16c-.2 0-.3.06-.32.26l-.16 1.62c0 .2.06.29.26.32v.23l-1.24-.13a1.35 1.35 0 01.25-2.66l1.25.13zm-.77.17c0-.14 0-.23-.33-.26s-.84.16-.93 1c-.05.53.13 1.06.73 1.12.3 0 .34 0 .36-.25zM69.78 45c-.2 0-.31 0-.35.22l-.36 1.59c0 .2 0 .29.22.35l-.05.22-1-.23v-.22c.2 0 .31 0 .36-.22l.4-1.63c0-.2 0-.3-.22-.35v-.22l1 .23zm-3.69 1.42l-.16-.06.09-.9h.21c0 .56.24.87.49 1s.76-.19 1-.84.11-1.14-.29-1.28a.86.86 0 00-.93.27l-.15-.17a1.07 1.07 0 011.18-.44 1.26 1.26 0 01.65 1.71 1.24 1.24 0 01-1.5.93 1 1 0 01-.48-.38zm-1.55-2.63l.6.36.44-.25a.63.63 0 00.14-.12c0-.08 0-.15-.15-.26l.11-.2.78.46-.12.2c-.15 0-.24 0-.52.13l-2.09 1.16-1.29-.76.16-.79h.2c0 .54 0 .72.44 1 .14.08.21.08.31-.09l.29-.49h-.09c-.25-.15-.35-.1-.56.21l-.19-.2.61-1 .15.09c-.15.3-.11.46.11.6h.07l.42-.72c.09-.16.07-.23-.09-.33-.31-.18-.6-.18-1.15.16l-.1-.18.7-.6 1.53.91-.11.2c-.18-.09-.3-.07-.4.1zm-.13.22l-.53.9 1-.61zm-6.33-8.95c-.07-.2-.17-.26-.37-.21l-1.56.44a.26.26 0 00-.2.37l-.22.06-.34-1.2a1.21 1.21 0 011-1.5 1.18 1.18 0 011.6.75l.3 1.23zm-.45-.66c.14 0 .21-.08.12-.4s-.46-.73-1.31-.49c-.51.15-.93.51-.77 1.09.08.29.14.32.37.25z"/><path class="cls-1" d="M72.67 44.22A14.49 14.49 0 1183 19.5a14.37 14.37 0 014.26 10.25 14.54 14.54 0 01-14.59 14.47m0-28.61a14.13 14.13 0 100 28.25 14.18 14.18 0 0014.2-14.11 14.17 14.17 0 00-14.18-14.14m-28.27-1.84h.09a2.8 2.8 0 01-.26.5 1.4 1.4 0 01.44.08l.24-.53-.42-.13.1-.45a2.5 2.5 0 01-.43-.14c.05.08.07.22 0 .24l-1.4.76a.19.19 0 01-.16 0 3.84 3.84 0 010 .68l.56.16v-.09c-.19 0-.18-.13-.16-.4zm.18 21.01a.93.93 0 00.08-.51 1.56 1.56 0 01-.68 0v.65a1.42 1.42 0 01-.08.56 5.21 5.21 0 01-.59 0v1.21a1.34 1.34 0 01-.19.76h-.76a1.32 1.32 0 00-.8.23 2.14 2.14 0 00.27-1v-.75a.81.81 0 01.48-.19h.56a1.79 1.79 0 010-.61 1.22 1.22 0 00-.47.06 1 1 0 00.08-.52 1.3 1.3 0 01-.68 0v.65a1.1 1.1 0 01-.1.58.56.56 0 01-.46.15v1a3 3 0 01-.09 1l-.35.52h.08A1.3 1.3 0 0142 38h1.58a.79.79 0 01.06-.59h-.31a3.24 3.24 0 00.33-.36 1 1 0 01.58-.27h.56a1.73 1.73 0 010-.6c-.42 0-.58 0-.81.3a1.07 1.07 0 00.01-.28v-.68a.87.87 0 01.48-.18h.56a1.79 1.79 0 010-.61 1.56 1.56 0 00-.48.05M47.15 27a.8.8 0 00.08-.47 1.22 1.22 0 01-.6 0v.59a1 1 0 01-.09.5 1.17 1.17 0 01-.65.18v.11c.14 0 .2.22.2.36v.2a3.23 3.23 0 01-.09 1.12l-.18.28-.86 1.3-.47.71v-1.64l.22-.34a.93.93 0 01.51-.23h.39a1.69 1.69 0 010-.55 1.1 1.1 0 00-.28 0 .89.89 0 00.09-.52 1.38 1.38 0 01-.67 0v.64a1.25 1.25 0 01-.08.55l-.21.32a1 1 0 01-.74.22v.11c.14 0 .2.22.2.36v1.59a3 3 0 01-.13 1.11c-.06.1-.19.28-.19.28l.07.05s.16-.22.35-.51l.06-.08a1.39 1.39 0 011.06-.59h.57a.59.59 0 01.2-.5c-.68 0-1.1-.08-1.49.42v.06a1.81 1.81 0 00.1-.58l.11-.17a1.55 1.55 0 011.18-.64h.65a.67.67 0 01.22-.56.73.73 0 01.42-.16h.49a2 2 0 010-.54 1.14 1.14 0 00-.41.05.81.81 0 00.07-.45 1.18 1.18 0 01-.59 0v.57a.87.87 0 01-.09.5 2.07 2.07 0 00-1.26.19l.64-1v-.05l.26-.4v-.12a.91.91 0 01.56-.27h.62a1.73 1.73 0 010-.6 1 1 0 00-.93.39 1.88 1.88 0 00.15-.71v-.47a1.16 1.16 0 01.56-.17h.38a1.45 1.45 0 010-.55 1.29 1.29 0 00-.44.05m-17.16-2.12v.22h-.22v.27h.22v.22h.27v-.22h.22v-.27h-.22v-.22h-.27zM32.46 4.6l-.24-.11-.12.25.25.11-.11.25.25.12.11-.25.25.11.11-.25-.24-.11.11-.25-.25-.12-.12.25zm.64-1.34l-.25-.12-.11.26.25.11-.11.25.25.11.11-.25.25.11.11-.25-.25-.11.12-.25-.26-.11-.11.25zm-2.86 1.02l.2-.67.66.2.18-.6-.66-.2.19-.66-.6-.18-.19.67-.66-.2-.18.6.66.2-.2.66.6.18zm-9.29 10.38l.26.42.26-.42-.26-.42-.26.42zM7.12 24.85l.27.42.26-.42-.26-.42-.27.42zm27.43-19.8l.18.2-.37.75h-.08a4.06 4.06 0 00-.5-.6zm.26-1a4.94 4.94 0 00.43.67l-.62.22-.19-.24zm-1.42 1.43a3.05 3.05 0 01.48.55 5.86 5.86 0 011 .1l.35-.67a.13.13 0 01.13-.07L35 4.9l.89-.34v-.1l-.14.07a4.74 4.74 0 01-.46-.53 6.57 6.57 0 01-1-.16s-.29.46-.29.54a.16.16 0 01-.15.08l.48.55-1.17.46.06.07zm-19.51 15l.26.43.27-.43-.27-.42-.26.42zM39.26 7l-.1-.42h-.42v.17l-1 1.3h-.2l-.09-.24 1-1.25c.08-.11.15-.07.15-.07L38.49 6l-.49.09a.36.36 0 01.11.21l-1 1.27a.15.15 0 01-.13.06l.17.55h.45l.12.46a2.1 2.1 0 01.46 0c-.08-.06-.15-.18-.13-.2l1-1.31a.15.15 0 01.21-.13M7 8.86a3.79 3.79 0 00.07-.59 1.06 1.06 0 00-.28-.09l.07.58.14.1m33.79-.3l-.1-.56h-.44l-.08-.47a2.69 2.69 0 01-.46 0c.07.07.13.2.1.22l-1.14 1.2a.15.15 0 01-.15 0v.48H39v-.17L40.1 8h.2l.06.26-1.1 1.14c-.09.1-.15.06-.15.06l.09.5h.44a.37.37 0 01-.09-.21s1.05-1.11 1.12-1.17a.11.11 0 01.12 0m-4.23-3.47l-.23-.15-.15.23.22.15-.15.22.23.16.15-.23.23.15.15-.23-.22-.15.15-.23-.23-.15-.15.23zM8.88 8.66l-.5-.53A4.08 4.08 0 009 8l.08.59zm.56.05l.56.59v.06a2.62 2.62 0 00-.6.15l-.13-.74zm-.12 1.2a1.92 1.92 0 01.68-.19 3.3 3.3 0 01.27-.78l-.51-.56a.14.14 0 010-.13l-.48.15-.12-.74a2.49 2.49 0 01-.64.08 3.73 3.73 0 01-.31.74l.45.5a.15.15 0 010 .15L9.17 9zm32.37-.33v-.5a2.34 2.34 0 01-.46 0s.16.16.06.25l-1.19 1.03c-.1.09-.16 0-.16 0v.49h.45a.39.39 0 01-.07-.22l1.2-1.08a.14.14 0 01.13 0m.06 2.7l1.24-1a.14.14 0 01.15 0v-.44l-.42-.06v.17L41.3 12h-.07v-.37l1.24-1c.1-.07.15 0 .15 0v-.5l-.44-.05a.36.36 0 01.06.22l-1.28 1a.15.15 0 01-.14 0l.07.62a8.86 8.86 0 01.87.29m1.92.01l-.31.63-.48-.12zm0 .85l.38-.72a5.25 5.25 0 01-.7-.44l-1.34.86a.15.15 0 01-.15 0 4.41 4.41 0 010 .84l.58.11v-.08c-.2 0-.19-.2-.21-.54l.46-.3a5.29 5.29 0 01.92.26M26 35.29a7.09 7.09 0 01-1.86 3.19c-.17-.66-.33-1.44-.46-2.12s-.23-1.26-.25-1.43a3.67 3.67 0 00.95 1.56l.17-.21a2.58 2.58 0 01-.46-.57 1.61 1.61 0 00.44.06 1.82 1.82 0 001.21-.41l-.19-.19a1.65 1.65 0 01-1 .33 1 1 0 01-.67-.21 2.84 2.84 0 01-.2-.55l.09.07a1.5 1.5 0 00.94.33 1.6 1.6 0 001.1-.44l.21-.22v.14a6.78 6.78 0 01-.05.68m-.8 2.77a6.47 6.47 0 01-.81 1.29 5.16 5.16 0 01-.17-.55 6.84 6.84 0 001.54-2.1 8.88 8.88 0 01-.56 1.38m0 1.55c-.06.24-.2.33-.32.33a.34.34 0 01-.28-.18l-.08-.14a5.27 5.27 0 001-1.43l.01-.22c-.16.8-.31 1.45-.35 1.59m1.15-5.07a.75.75 0 000-.24.22.22 0 00-.19-.15.39.39 0 00-.26.14l-.22.22a1.33 1.33 0 01-.91.36 1.27 1.27 0 01-.78-.27.84.84 0 00-.47-.25.27.27 0 00-.25.17 1.16 1.16 0 00-.05.34c0 .08.05.36.13.8.11.63.29 1.56.48 2.39.1.41.2.8.29 1.12a2.58 2.58 0 00.3.71.61.61 0 00.5.29.63.63 0 00.58-.53c.07-.25.41-1.78.65-3.16.07-.41.13-.8.17-1.15a5.72 5.72 0 00.06-.74v-.07m5.89-2.66v.25l.62-.41.25.33-.72.55.13.19.74-.57.17.2-.28.25.15.15.48-.37-.22-.26.41-.38-.18-.56.13-.09v-.14h-.38l.21.71-.14.11-.25-.32v-.68h-.58v.2l.13.14-.13.1-.38-.44h-.18v.12l.49.58-.47.34zM16.07 20.51l.27.42.26-.42-.26-.43-.27.43zM35.71 6.33l-.23-.15-.15.23.22.15-.15.22.23.16.15-.23.23.15.15-.23-.22-.15.15-.22-.23-.16-.15.23z"/><path class="cls-1" d="M30.08 25.7a.52.52 0 01-.53-.52.54.54 0 01.53-.53.53.53 0 01.52.53.52.52 0 01-.52.52m0-1.18a.66.66 0 10.66.66.65.65 0 00-.66-.66m-2.24 21.29l-.2-.06-.11-.8a3.83 3.83 0 00.58.23zm.24.29l.1.73a3.33 3.33 0 00-.57-.32l.27-.53zm-.28-1.48a4 4 0 01-.67.49s.09.66.1.75a.12.12 0 010 .13l.48.15-.33.68a2 2 0 01.57.3 3.43 3.43 0 01.69-.43s-.08-.57-.1-.67a.16.16 0 01.06-.14l-.54-.2.4-.85a2.07 2.07 0 01-.62-.21m-1.18.52a3.18 3.18 0 01-.61-.31l-.38.45.07.05c.12-.16.2-.1.43 0l.09 1.53h-.35l-.09.21h.45v.65h.05a1.63 1.63 0 01.51-.8v-.09h-.18s-.08-1.45-.08-1.55a.14.14 0 01.06-.14m-2.55 1.96l.35.27.3-.3-.15-.1V45.2h.06l.31.19v1.57c0 .13-.07.15-.07.15l.4.29.31-.32a.37.37 0 01-.21-.09v-1.62a.13.13 0 01.06-.12l-.54-.31a6.65 6.65 0 01-.75.52v1.57a.14.14 0 01-.07.14m-3.5-20.7v.22h-.22v.27h.22v.22h.28v-.22h.21v-.27h-.21v-.22h-.28zM45 20l1.61-.32a1.23 1.23 0 00-.05.39l-1.5.3-.15-.13zm0 1v-.24l1.63-.33a.14.14 0 01.14.05 3.59 3.59 0 01.07-.59c-.29-.11-.36-.68-.76-.6l-1.3.26a.15.15 0 01-.13 0l-.22.53.34.28-.2.43A2 2 0 0145 21m2-4.29l-.55-.21-.16.09a4.93 4.93 0 00.5.33 1 1 0 00.21-.21m1.22 6.41l-.46-.37h-.17a4.41 4.41 0 00.37.48 1.38 1.38 0 00.26-.14M23.05 47.07l-.1.06-.26-.22.15-1.8.34.25zm.57-1.67a.13.13 0 01.09-.12l-.55-.44-.76.42s-.13 1.6-.14 1.68a.15.15 0 01-.08.12c.42.33.77.63 1.19 1a1.71 1.71 0 01.36-.31 4.2 4.2 0 01-.72-.55l.48-.24s.12-1.45.13-1.55m-3.48 1.18l.32.38a2.13 2.13 0 01.39-.25s-.22 0-.2-.16.28-1.43.3-1.56.1-.13.1-.13l-.34-.37-.36.26a.4.4 0 01.2.13s-.29 1.5-.31 1.59a.12.12 0 01-.08.1M42.52 8.82h-.58a1.21 1.21 0 01-.12.13 5.26 5.26 0 00.59.13 1.16 1.16 0 00.11-.27m-22.59 38.9l.47-.36v-.18a4.32 4.32 0 00-.54.25 1.34 1.34 0 00.07.29m1.07.19l.45-.38a1.07 1.07 0 010-.18 4.73 4.73 0 00-.53.27 1.21 1.21 0 00.08.29m.18-1.13l.34.36a2.06 2.06 0 01.37-.26s-.23 0-.21-.16.21-1.44.23-1.57S22 45 22 45l-.35-.35-.36.27a.42.42 0 01.2.12s-.22 1.52-.23 1.6a.14.14 0 01-.08.11m-6.47-2.98h-.08l.38.57.44.67a1.66 1.66 0 01.16.78v.57a2.41 2.41 0 01.6 0v-.32a.86.86 0 00-.15-.43.83.83 0 00.36.07h.31a.9.9 0 010-.28 1 1 0 010-.27H16a.72.72 0 01-.48-.26l-.2-.3a1.73 1.73 0 00.88.16h1.54a2 2 0 01.16.85V46a1.67 1.67 0 01.63 0 .91.91 0 01.06.39V47a1 1 0 01.51 0 .92.92 0 00-.1-.56.6.6 0 00.24.05h.27a.45.45 0 01-.06-.23.85.85 0 010-.22h-.69a.32.32 0 01-.21-.08.66.66 0 000-.14.74.74 0 00-.1-.35 1 1 0 00.31 0H19a.6.6 0 01-.07-.3 1.26 1.26 0 010-.31h-.86a.56.56 0 01-.4-.24l-.25-.38h-.92a.91.91 0 00.39-.31l.16-.25-.44-.25s-.25.4-.34.52a.64.64 0 01-.52.29h-.08a1.11 1.11 0 01-1-.45m28.99-28.13l.74.12V16l-.74.32a3.89 3.89 0 00.06-.62m1-.18l.67-.3a2.87 2.87 0 00-.15.63l-.59-.12zm-.69 1.18l.69-.3a.12.12 0 01.13 0v-.5l.73.13a2.47 2.47 0 01.14-.63 4 4 0 01-.6-.55l-.61.27a.15.15 0 01-.15 0l-.05.58-.93-.16a1.84 1.84 0 010 .66 3.67 3.67 0 01.66.51m.27 1.2a.37.37 0 010-.23l1.51-.58a.12.12 0 01.13 0l.16-.48a1.48 1.48 0 01-.41-.2s.09.21 0 .26l-1.47.56h-.16l-.14.48.41.19zM7.24 28.13v.21h-.22v.28h.22v.22h.27v-.22h.22v-.28h-.22v-.21h-.27zm37.54-9.03c-.18-.08-.14-.17-.07-.42l1.47-.41.09.34h.23l-.12-.43L47 18a1.61 1.61 0 01-.89-.34h-.08v.17l-1.49.41a.15.15 0 01-.15 0 2.91 2.91 0 01-.17.66l.51.28zM29.24 46.15h.55a.73.73 0 00.35-.09 1.49 1.49 0 00-.33.8v.28a1.81 1.81 0 01.68-.06v-.56a1.92 1.92 0 01.21-1l.46-.69a1.61 1.61 0 00.85-.24v1.17a.78.78 0 01-.49.23h-.6a1.3 1.3 0 010 .52 1.19 1.19 0 00.63-.11 1.44 1.44 0 00-.05.5 1.1 1.1 0 01.5.1v-.7a1 1 0 01.05-.36h.66a.37.37 0 000-.11c-.13 0-.18-.1-.19-.39v-.52a2 2 0 01.19-1.13h-.08l-.11.17a1.1 1.1 0 01-.84.47h-1.17a1 1 0 010 .63h.58L31 45a1.22 1.22 0 01-1 .57h-.66a.55.55 0 01.05.27c0 .23-.1.29-.1.29M26.7 35.34c.31 2 .37 3.86.59 4.82l.27-.06c-.21-.91-.28-2.8-.59-4.8zm20.94-13.93a1.54 1.54 0 01-.84-.41h-.09v.17l-1.54.2a.14.14 0 01-.14-.06 4.39 4.39 0 01-.26.63l.46.35v-.07c-.16-.11-.11-.19 0-.43l1.51-.2.05.34.21.07v-.44l.64-.08zm-6.57 3.44l.26.42.27-.42-.27-.42-.26.42zM47 22.69l-1.59.08c-.12 0-.14-.07-.14-.07l-.28.42.34.3a.38.38 0 01.07-.22l1.6-.08a.15.15 0 01.12.06l.3-.41a1.6 1.6 0 01-.33-.31s0 .23-.11.23m-1.77 1.95a2.66 2.66 0 00.32-.53l.62.42-.1.19h-.8zm1.26-.29h.73a3.63 3.63 0 00-.4.5l-.48-.35zm-.38.79a.13.13 0 01.12.07l.22-.45.61.43a2.56 2.56 0 01.39-.51 4.07 4.07 0 01-.31-.75h-.67a.14.14 0 01-.13-.08l-.29.51-.77-.54a1.86 1.86 0 01-.31.59 3 3 0 01.38.74h.75m-4.87 2.98v.21h-.22v.28h.22v.22h.27v-.22h.22v-.28h-.22v-.21h-.27zM7.16 10.89l.19-.09.63.5v.07a2.92 2.92 0 00-.58.23zm-.37-.06l-.56-.46a3.12 3.12 0 00.63-.16l.17.58zm1.21.89a3.68 3.68 0 01.15-.81s-.52-.42-.58-.48a.13.13 0 01-.06-.12l-.45.22-.22-.72a2.25 2.25 0 01-.62.18 4.26 4.26 0 01-.21.78l.52.42a.14.14 0 01.06.14l.53-.23.29.9a1.89 1.89 0 01.59-.28m16.92-4.93l.26.43.27-.43-.27-.42-.26.42zm7.21 13.72l.26.42.27-.42-.27-.43-.26.43zm-5.67 5.97v.21h-.22v.27h.22v.22h.27v-.22h.22v-.27h-.22v-.21h-.27zM24.1 2.31l.26.42.27-.42-.27-.43-.26.43zm-.83 4.48l.27.43.26-.43-.26-.42-.27.42zM9.63 20.5l.27.42.26-.42-.26-.43-.27.43zM25.79 3.08l.26.43.26-.43-.26-.42-.26.42zm-1.56 7.36v.28h-.27v.27h.27v.27h.27v-.27h.28v-.27h-.28v-.28h-.27zm-.97 0v.28h-.27v.27h.27v.27h.27v-.27h.28v-.27h-.28v-.28h-.27z"/><path class="cls-1" d="M39.76 20.6L39 18.48v-7.1c.27.3.52.61.77.92zm0 5.53l-.84-1.28v-3a.38.38 0 01.41-.33.49.49 0 01.3.1.34.34 0 01.13.22zm0 2.5a5.31 5.31 0 00-.44-.9 3.79 3.79 0 00-.39-.53v-.95h-.27v.66a3.67 3.67 0 00-.69-.52l.82-1.25 1 1.49zm0 12.89h-.36V29.4a.49.49 0 01.24.11.42.42 0 01.11.21v.07zm0 .83h-8.24l.47-.42h7.77zm-1.76.77h-.27v.27h-.28v-.27h-.27v-.28h.27v-.27h.28v.27H38zm-1.31 0h-.27v.27h-.28v-.27h-.27v-.28h.27v-.27h.28v.27h.27zm-1.32 0h-.27v.27h-.28v-.27h-.27v-.28h.27v-.27h.28v.27h.27zm-1.32 0h-.27v.27h-.27v-.27h-.27v-.28h.27v-.27h.27v.27h.27zm-2.66-1.21v-3.29l.31.56v2.45zm.1-12.09a.39.39 0 01.16-.3.55.55 0 01.2-.11v9.18l-.36-.59zm0-3.24l.94-1.44.81 1.26a3.4 3.4 0 00-.66.51v-.62h-.27v.9a4.4 4.4 0 00-.39.52 4.79 4.79 0 00-.43.89zm0-4.75a.28.28 0 01.12-.22.46.46 0 01.29-.1.37.37 0 01.4.33v3l-.81 1.23zm0-15.69c.26.1.52.2.77.32v12l-.77 2.13zm1.79 15.2a.94.94 0 00-.37-.11.66.66 0 00-.48.24.73.73 0 00-.53-.24.75.75 0 00-.39.12l.89-2.46zm-.74-14.76l.76.42v13.6l-.76-2.13zm0 15.26a.34.34 0 01.34-.33.48.48 0 01.28.1.33.33 0 01.11.23V26l-.73-1.14v-3zm6.16 18.9c.08-.16.16-.3.19-.37a1 1 0 00.13-.46.37.37 0 00-.07-.24.27.27 0 00-.15-.1h-.11v-9.7a.43.43 0 01.4-.42v12.07h-.4zm-1-.49l-.3.6h-.15v-.77zm-1.47-.37v1.64h-.46v-1.76zm-1.11-.72h.35l-.06.19-.16-.07a.3.3 0 01-.13-.16m-.25-1.63a2.3 2.3 0 01-.32.15.89.89 0 00-.09-.16l.69-.44v.24a1.41 1.41 0 01-.23.2m-2 3.79a1.59 1.59 0 00.71-.15 3.34 3.34 0 00.63-.38l.66.39a.26.26 0 010 .15 3.19 3.19 0 00-.37 0h-.25c-.46 0-.64.12-.93.11h-.07c-.38 0-.52 0-.59-.12h.2m-.38-7.76a1.77 1.77 0 01-.32-.22.15.15 0 010-.08l.2.08.33.16a1 1 0 00.36.12h.11a.18.18 0 00.08-.11.17.17 0 00-.1-.16c-.11-.07-.23-.09-.37-.16s0 0 .06 0h.08a3.76 3.76 0 01.57.24c.11.07.13.14.13.17l-.12.29h-.69l-.28-.18m.47-4a.72.72 0 01.31-.12v.85h-.47v-.43a.41.41 0 01.16-.3m1.24-2a6.62 6.62 0 00-.28 1.65 1 1 0 00-.6-.2 1 1 0 00-.55.16 3.71 3.71 0 01.83-1.64 3.41 3.41 0 01.73-.65 2.18 2.18 0 00-.21.52m.68 1.61a1 1 0 00-.6.2 6.22 6.22 0 01.18-1.73c.17-.57.44-.93 1-1v2.68a1.09 1.09 0 00-.6-.17m1 .91a1.49 1.49 0 00.27.15.78.78 0 00-.13.38.41.41 0 000 .11.39.39 0 01-.26.17s-.12 0-.2-.11l-.1-.06v-.18a.17.17 0 00-.08-.14l-.14-.07c.07-.11.12-.22.17-.31s0 .16 0 .22.05.05.16.06a.52.52 0 00.19 0 .35.35 0 00-.08-.12.73.73 0 00-.26-.13v-.07a.3.3 0 01.08-.08l.08-.06a.69.69 0 00.24.24m1.2-1a1.12 1.12 0 00-.4-.07 2.42 2.42 0 00-.42.05.85.85 0 00-.38.19v-2.56a.83.83 0 01.22 0 1 1 0 01.71.69A4.72 4.72 0 0137 29m.88.16a1.12 1.12 0 00-.5.12l-.08-.09a5.48 5.48 0 00-.3-1.94l-.08-.18a4.08 4.08 0 01.62.56 3.7 3.7 0 01.85 1.64 1 1 0 00-.55-.16M38 39.23V29.4a.73.73 0 01.3.12.38.38 0 01.16.3v9.6l-.46-.19m-1.58-.36h.14a2.75 2.75 0 01.78.29c.24.13.43.25.54.3l.48.19-.12.08-1.89-.69zm.58-1.23v1.08a2.36 2.36 0 00-.38-.1h-.06a10 10 0 00.44-1m-.16-1.35h.32v.1a7.13 7.13 0 01-.25.84c-.13.36-.29.73-.42 1l-.18.37h-.18zm-.67.06h.38l-.72 2.22h-.18zM35.23 38l.13-.63.17-1h.33l-.51 2.1h-.2c0-.13.05-.28.08-.42m-1-.72a.69.69 0 00-.13-.11l1.09-.77v.3zM34 34.38v2c-.18.15-.34.27-.47.39v-2.6zm.87-.1v.14L33.69 34v-.09zm2.72-2.36a2.43 2.43 0 00-.38-.42l-.13-.23a.75.75 0 00.38-.13.59.59 0 00.23-.27v1.28a.52.52 0 00-.1-.23m-.36 4.94a5.16 5.16 0 00.16-.62h.21v-.14s-.05-.38-.08-.68a2 2 0 00-.35-.76v-.15l.26-.76a5.27 5.27 0 00.19-.76v-.38 6.48l-.26-.14-.2-.11zM35.47 36l1.82-.18v.15h-.2l-1.66.15zm0-3.63l-.06.07a.6.6 0 00-.13.38 1.37 1.37 0 000 .19c0 .12.07.27.09.36l-.23.23h-.15v-1.72a.58.58 0 00.14 0 1.39 1.39 0 00.32 0zm.44.86l.23.19-.62.54-.14-.19zm.09-.93l-.35.72h.05l-.08.09v-.19a.93.93 0 010-.14.36.36 0 01.08-.21 2.21 2.21 0 01.24-.27zm1.08 1.18l-.17.19-.91-.73.37-.76.88-.28.14.18a.26.26 0 010 .1.87.87 0 010 .18 3.19 3.19 0 01-.05.56 1.63 1.63 0 01-.31.56m0 .66h-.45l.28-.2h.06L37 34l.15-.15c-.05.13-.08.24-.12.34m.19 1.27v.11l-1.75.18v-.16zm-.22-.59a.41.41 0 01.08.13.71.71 0 01.08.15l-1.59.14V35zm-.85-.35l.82-.1-.06.18-1 .09zm-.29-.14l-.14-.2.67-.59.28.23zm.67-3a1.59 1.59 0 00.13-.22l.1.05v.06zm.4.12l.1.17L36 32v-.1zm-1.79 3.14l-.06-.06.2-.54.39.54a.36.36 0 01-.2.16h-.07a.42.42 0 01-.27-.1M35 35.72v-.82a.76.76 0 00.29.11l-.07.6-.22.11m-.74.46v-1.69l.47.2v1.18a4.65 4.65 0 00-.46.31m0 .32a5.12 5.12 0 01.75-.5l.14-.07v.21l-1.23.86-.12-.1.51-.42m3.13-7a.67.67 0 01.26-.09v.81a1.07 1.07 0 00-.07-.19.94.94 0 00-.21-.29.9.9 0 000-.18v-.06m-.23.42a.61.61 0 01.18.23 1 1 0 01.1.42.49.49 0 010 .12 1.13 1.13 0 01-.13-.27l-.26.07a1.63 1.63 0 00.22.44h-.08a1.23 1.23 0 01-.22-.43l-.27.08a1.59 1.59 0 00.17.37l-.13-.06-.08-.06v-.05h-.11c-.1 0-.18-.06-.22-.21 0-.09.1-.23.18-.4l.05-.11-.18-.04a2.58 2.58 0 01-.42-.2.41.41 0 01-.21-.32.24.24 0 01.09-.12.66.66 0 01.28-.13 1.32 1.32 0 01.36 0 .69.69 0 01.51.17.28.28 0 01.1.22 1 1 0 010 .22v.1zm-2.11 1h.08a.3.3 0 01.21.09.67.67 0 00.34.17.59.59 0 00.41-.2.56.56 0 00.2.11.94.94 0 01-.89.62h-.07a.47.47 0 01.11-.13l-.2-.19a1.46 1.46 0 00-.21.28.35.35 0 01-.14-.06 3 3 0 01.21-.26l-.19-.19a1.61 1.61 0 00-.24.29.41.41 0 01-.05-.16.29.29 0 01.06-.19.49.49 0 01.29-.13m-.08-.7v-.85a.68.68 0 01.42.19.46.46 0 00-.14.14c-.11.16-.16.31-.24.43m.18.38H35v-.16a1 1 0 00.18.1m-.46 1.16v1.76l-.46-.12v-3.46a.38.38 0 01.16-.3.73.73 0 01.3-.12v1.33a.47.47 0 00-.13.11.54.54 0 00-.13.37.73.73 0 00.26.52M34 30.25h-.47v-.85a.68.68 0 01.3.12.39.39 0 01.17.3zm-.15 3c.06 0 .1-.09.15-.13v.16zm1.18.58L35 34l-1.14-.4v-.07zm-1 3.86l-.6-.48.14-.13c.12.1.38.33.51.46a.77.77 0 01.16.22l-.88.35-.06-.11zm-.86.07a.5.5 0 01.1-.31l.24.19zm0 .59V41a1.94 1.94 0 01-.4 0h-.07v-7h.47v3a1 1 0 00-.34.71.83.83 0 00.31.61m.81 2.21a3 3 0 01-.5.31v-1.62zm-.52-2.21l.3-.12.61 2.35-.12-.07zm1.18-.32l.14-.06v.45c-.06-.16-.11-.29-.14-.39m.19 2v.28a2.15 2.15 0 00.05.49.13.13 0 010 .06l-.09-.05-.68-2.65.26-.1c0 .12.13.32.21.56A3.55 3.55 0 0134.8 40m-2.68-9.77v-.86a.47.47 0 01.42.43v.43zm1.9.28v1.84a.82.82 0 01-.39.74 4.16 4.16 0 00-.62-.27h-.17a.33.33 0 00-.34.29h-.06a.81.81 0 01-.28-.67v-1.91zm-1.52 11h-.38v-7.87l.24.16.18.11V41a.14.14 0 00-.16.1v.08a.46.46 0 00.12.32m2.62-.79a1.67 1.67 0 010-.43V40a3.73 3.73 0 000-.5h.06a1.78 1.78 0 00.38.14v1.82h-.42a.54.54 0 00.08-.3.19.19 0 000-.08 2.13 2.13 0 000-.39m0-1.85a.17.17 0 010-.07.28.28 0 010-.08l1 .11-.25.67h-.17l.16-.49zm1.08.69l.09-.25 1.71.62-.09.07zm.59 2h-.39V40l.47.11v1a.67.67 0 00-.18.16.47.47 0 00-.07.21.28.28 0 000 .13m1.7-.26v.26h-.13l.13-.26m-.37.12H37a.06.06 0 010-.05.68.68 0 01.27-.15l.24-.08h.06l.42-.84.28-.21a1.15 1.15 0 01.43-.21V40a.81.81 0 01-.1.33l-.6 1.14m-2.45-15.3a3.81 3.81 0 013.46 1.79 4.65 4.65 0 01.55 1.32.87.87 0 00-.37-.08.92.92 0 00-.58.2 3.91 3.91 0 00-.93-1.86 3.38 3.38 0 00-1.62-1.05 1.62 1.62 0 00-.52-.08h-.16a3.05 3.05 0 00-2 1.12 3.93 3.93 0 00-.9 1.87.84.84 0 00-.55-.21.93.93 0 00-.43.12 4.77 4.77 0 01.56-1.37 3.81 3.81 0 013.48-1.78m-1.91-.31l.83-1.27.85 1.3a5 5 0 00-.7.07v-.53h-.28V26a4.78 4.78 0 00-.7.23zm0-3.93a.34.34 0 01.35-.33.35.35 0 01.35.33v2.37l-.7 1.07zm1.68-.19v3.57l-.71-1.09v-2.37a.36.36 0 01.39-.33.42.42 0 01.32.14m-1.68-.39l.85-2.36.83 2.31v.1a.66.66 0 00-.32-.08.69.69 0 00-.52.24.68.68 0 00-.49-.24.69.69 0 00-.35.11zm0-3.83h1.77v3l-.83-2.31-.85 2.36zm0-2.83l.62-.92.5.76v2.71h-.36V14.9l.12-.2-.26-.43-.26.43.12.2v2.25h-.48zm0-7.42l.48.27v5.94l-.48.72zm.76 4l.49-.76.5.76v2.21l-.36.56V12h.26v-.27h-.26v-.53h-.27v.53h-.23V12h.23v1.9l-.36-.55zm0-3.57c.33.21.67.42 1 .65v2.43L35 9.92l-.49.77zm1.63 6.83v2.71h-.36V14.9l.12-.2-.26-.43-.26.43.12.2v2.25h-.36v-2.71l.5-.76zm-.36-3.26l.5-.76.5.76v2.21l-.37.55V12h.25v-.27h-.25v-.53h-.27v.53h-.25V12h.25v2l-.36-.56zm0-2.73c.34.25.67.5 1 .77v1.47l-.5-.77-.5.77zm.92 9.62l-.85 2.38v-3h1.72v3zm.48 3.16a.68.68 0 00-.49.24.73.73 0 00-.52-.24.66.66 0 00-.32.08l.85-2.38.87 2.39v.09a.79.79 0 00-.39-.13m-.34 3v-2.44a.35.35 0 01.35-.33.48.48 0 01.28.1.34.34 0 01.11.19v3.53zm-1 1.09v-3.72a.42.42 0 01.32-.14.36.36 0 01.39.33v2.37zm.72.05v.53a5.37 5.37 0 00-.72-.06l.85-1.3.87 1.33v.35a3.68 3.68 0 00-.73-.24v-.59zm1-10.69v2.49H37V14.9l.13-.2-.27-.43-.26.43.13.2v2.25h-.37v-2.71l.5-.76zM37 9.45l.52.46v4.26l-.52-.78zm1 12.35a.36.36 0 01.36-.29.34.34 0 01.34.33v3l-.7 1.08zm.9-2.92l.89 2.47a1 1 0 00-.41-.12.78.78 0 00-.54.24.64.64 0 00-.48-.24.61.61 0 00-.35.11zM38 10.3c.26.25.52.51.77.78v7.35L38 20.55zm-7 31.61l-.32-.28v-2.44l.32-.58zm0 .93l-.13.06a18.63 18.63 0 01-1.8.54l1.05-1.09H27.9l-.24.22v.27h.27v.28h-.27v.27h-.28v-.27h-.27v-.28h.27v-.27l-.24-.22h-.83l-.24.22v.27h.27v.28h-.27v.27h-.27v-.27h-.27v-.28h.27v-.27l-.24-.22h-.8l-.24.22v.27h.27v.28h-.27v.27h-.28v-.27H24v-.28h.27v-.27l-.27-.22h-.83l-.24.22v.27h.27v.28h-.27v.27h-.28v-.27h-.27v-.28h.27v-.27l-.24-.22h-.81l-.24.22v.27h.27v.28h-.27v.27h-.28v-.27h-.27v-.28h.27v-.26l-.24-.23h-2.37c.09.1.82.75 1.2 1.08a18 18 0 01-1.93-.59v-.35l.15-.14.48-.42h4.23a.7.7 0 00.41.24h.07a1.18 1.18 0 00.27 0 .69.69 0 00.23-.07l.2-.13h2a.52.52 0 00.11.1.87.87 0 00.54.18 1 1 0 00.46-.12.32.32 0 00.12-.16h3.38l.61.54zM24.37 44a19.46 19.46 0 01-3.84-.38h7.67a19.36 19.36 0 01-3.83.38m-6.62-5.39l.32.58v2.44l-.32.28zm.1-5h.66v6-.63l-.64-1.14zm0-6.63a.34.34 0 01.33-.31.34.34 0 01.33.31v6h-.66zm0-2.81l.8-1.22.79 1.22v2.32a.66.66 0 00-.32-.09.64.64 0 00-.47.22.65.65 0 00-.47-.22.64.64 0 00-.33.1zm0-6.84a.34.34 0 01.33-.31.33.33 0 01.33.31v5.33l-.66 1zm0-1.15l.8-1.22.79 1.22v.67a.65.65 0 00-.34-.1.61.61 0 00-.46.21.59.59 0 00-.46-.21.64.64 0 00-.33.1zm0-3.29l1.59-2.41v5.2l-.66-1v-.79H19v-.28h-.25v-.24h-.27v.24h-.24v.28h.24v.79l-.66 1zm0-7a18.55 18.55 0 012.77-.75V10h-.55V7.44l-.18-.3v-1h.25v-.26h-.25v-.25h-.27v.25h-.25v.27h.25v1l-.17.29V10l-1.59 2.42zm4.6 4.31v1.2h-2.38v-1.2zM21 8a.25.25 0 01.1-.21.33.33 0 01.23-.1.3.3 0 01.3.31v2H21zm1 0a.36.36 0 010-.23.22.22 0 01.16-.09.28.28 0 01.19.09.35.35 0 01.08.22v2H22V8zm-1-1l.77-1.2.72 1.1v.65a.57.57 0 00-.35-.14.47.47 0 00-.38.2.57.57 0 00-.43-.2.61.61 0 00-.33.1zm0-1.92l.63-.1v.53L21 6.5zm1-.73a.3.3 0 01.24-.35.31.31 0 01.29.3v2.1L22 5.51zm0-.75l.72-1.86.71 1.83v.29a.5.5 0 00-.29-.09.58.58 0 00-.43.2.55.55 0 00-.42-.2.48.48 0 00-.29.09zm.85 2.8V4.35a.29.29 0 11.58 0v1.16zm.72-.6l.71 1.1v.6a.48.48 0 00-.29-.09.55.55 0 00-.42.2.52.52 0 00-.4-.2.48.48 0 00-.32.13V6.9zm.13-2.06a.29.29 0 11.58 0V6.4l-.58-.89zm0-1L24.35 1l.72 1.83v.47a.57.57 0 00-.28-.08.55.55 0 00-.42.2.58.58 0 00-.43-.2.57.57 0 00-.29.08zm.85 3.59V3.77a.3.3 0 01.29-.31.29.29 0 01.28.29v1.76zm.7-.57l.72 1.1v.65a.54.54 0 00-.34-.14.47.47 0 00-.38.2.54.54 0 00-.41-.2.57.57 0 00-.29.08v-.58zm.14-1.45a.29.29 0 11.58 0V6.4l-.58-.89zm0-.58V3.6l.72-1.86.71 1.84v.28a.48.48 0 00-.29-.09.53.53 0 00-.42.21.56.56 0 00-.43-.21.48.48 0 00-.29.09zm.85.56a.29.29 0 11.58 0v1.22l-.58.89V4.35m.72 1.47L27.68 7v.51a.61.61 0 00-.33-.1.56.56 0 00-.44.21.48.48 0 00-.4-.21.48.48 0 00-.32.13V6.9zM27 5c.22 0 .43.06.64.1v1.4l-.64-1zm0 5V8a.31.31 0 01.31-.31.34.34 0 01.23.1.27.27 0 01.1.22V10zm-.78 0V8a.3.3 0 01.25-.31.24.24 0 01.18.09.33.33 0 01.08.22v2zm2.39 1.47h-2.35v-1.2h2.39zm1.58 3.3v-.79h.24v-.28h-.24v-.24H30v.24h-.24v.28H30v.79l-.68 1V10.5l1.6 2.42v2.79zm.31 2.08a.62.62 0 00-.47.22.58.58 0 00-.46-.22.67.67 0 00-.34.1v-.64l.86-1.31.78 1.19v.69a.63.63 0 00-.33-.09m-.33 5.91v-5.32a.33.33 0 01.33-.31.33.33 0 01.33.28v6.37zm-.94 1v-6.32a.33.33 0 01.33-.31.34.34 0 01.33.31v5.33zm1.28 2.72a.66.66 0 00-.48.22.68.68 0 00-.48-.22.59.59 0 00-.32.09v-2.29l.8-1.22.8 1.22v2.33a.58.58 0 00-.32-.1M30.21 33v-6a.3.3 0 01.1-.21.35.35 0 01.24-.1.32.32 0 01.31.31v6zm0 6.72v-6.06h.66v4.28l-.64 1.14v.69m-.11 1.71a.9.9 0 00.13-.26v.32h-.18l.05-.06M29.27 33v-6a.3.3 0 01.32-.22.32.32 0 01.24.09.28.28 0 01.11.21v6zm.67.63v5.85l-.09-.08a2.2 2.2 0 01-.55-.66v-5.08zm-10.2 7.49a.84.84 0 01.11-.2.15.15 0 01.11-.06.29.29 0 01.19 0 1.45 1.45 0 01.27.3 1.63 1.63 0 00.3.28h-1.26a1.13 1.13 0 00.28-.37m1.54-7.49a1.5 1.5 0 00.38.15h-.05a2.35 2.35 0 00-.75 1.24 17.68 17.68 0 01-.79 2.31v-3.62zm-.86-6.23v4a2.32 2.32 0 00-.15.45 1.13 1.13 0 000 .25 1.57 1.57 0 00.35.92h-.52V27a.68.68 0 00.35.47M20.07 25a7.14 7.14 0 01.35-2.23v3.48a.66.66 0 00-.35.47V25zm1-5.46V21a5.66 5.66 0 00-1 2v-1.93zm0-1.44v.9l-1 1.54v-.95zm-1-2.18a.5.5 0 01.51-.48.48.48 0 01.49.48v1.68l-1 1.54v-3.23zm1.14-2.46l1.25 1.9a.91.91 0 00-.57-.21.81.81 0 00-.67.34.76.76 0 00-.64-.34.78.78 0 00-.51.19v-.16zm1.25 1.41l-1.12-1.7v-.49h.25v-.28h-.25v-.25h-.27v.25h-.24v.27h.24v.49l-1 1.54v-3h2.39zm-1.12 2.73V16a.55.55 0 01.55-.53.59.59 0 01.4.16.53.53 0 01.17.31v3.39zm.66 2.48l-.68-1v-.95l1.13 1.71a4.21 4.21 0 00-.45.28m.47 1.6a2.72 2.72 0 00-.43.4v-1.73a4 4 0 01.43-.29zm4.14-1.32V22a2.49 2.49 0 00-.46-.4v-1.54a3.64 3.64 0 01.46.3m.74-2.27V19l-.66 1-.45-.27zm-.94-2.5a.59.59 0 01.4-.16.54.54 0 01.54.53v1.64l-1.11 1.69v-3.36a.51.51 0 01.17-.34m1.22-2.46v-.46h.24v-.27h-.24v-.25h-.28v.25h-.24v.27h.24v.52l-1.11 1.69V11.7h2.39v3zm.49 2a.76.76 0 00-.64.34.81.81 0 00-.67-.34.85.85 0 00-.56.2l1.26-1.91 1.12 1.72v.17a.83.83 0 00-.51-.18m-.49 2.44V16a.48.48 0 01.49-.48.5.5 0 01.51.48v3.22zm0 1.44v-.95l1 1.54v.95zm0 1.93v-1.41l1 1.54V23a5.65 5.65 0 00-1-2m.62 5.26v-3.6a7 7 0 01.38 2.28v1.86a.64.64 0 00-.38-.57M28 33a1.39 1.39 0 00.55-1 1.94 1.94 0 000-.24 4 4 0 00-.25-.73v-3.59a.65.65 0 00.38-.57V33zm.63.63v3.27c-.09-.47-.17-.94-.23-1.29a8.29 8.29 0 00-.3-1.23 3 3 0 00-.26-.6 1 1 0 00-.1-.15zM28 27.5v2.92c-.1-.21-.22-.43-.34-.65V27.4a.65.65 0 00.34.1zm-.34-1.23v-4.85A4.93 4.93 0 0128 22v4.15a.65.65 0 00-.34.1m.34 0a.53.53 0 01.53.52.54.54 0 01-.53.53.52.52 0 01-.52-.53.52.52 0 01.52-.52m-1.36 1.18v.68c-.13-.2-.26-.39-.4-.57v-.21a.66.66 0 00.36.11m.74-.42v2.24c-.15-.25-.31-.5-.47-.75v-1.09a.69.69 0 00.35-.59.67.67 0 00-.35-.58v-.49a2.89 2.89 0 00.46-1v1.84a.85.85 0 000 .23 1 1 0 000 .24m-.44-6.83l.44-.7v1.12a5.77 5.77 0 00-.44-.42m.44.82v2.3a3 3 0 00-.46-1v-1.78a5.22 5.22 0 01.46.48m-.82 5.11a.6.6 0 00.08-.08v.08h-.08m0 .14a.52.52 0 01.53.52.53.53 0 01-.53.53.52.52 0 01-.52-.53.52.52 0 01.52-.52M26 27v.21l-.32-.4a3.37 3.37 0 00.32-.19.62.62 0 000 .38m-.56 5.57l-.1.12h-.21l-.1.22.16.08a.81.81 0 00-.06.31.66.66 0 000 .23h-.12a.36.36 0 01-.25-.11.39.39 0 01-.1-.23.19.19 0 01.06-.15l-.19-.2a.43.43 0 01-.26.1.29.29 0 01-.31-.3.13.13 0 010-.06.33.33 0 01.34-.28.27.27 0 01.27.19l.26-.1a.26.26 0 01.09-.31.39.39 0 01.24-.1.34.34 0 01.33.31.66.66 0 01-.07.25zm.31-1.3l.12.25a2.55 2.55 0 00.27.42l.11.1-.12.08a.89.89 0 00-.38-.57v-.28m-2.32.79l-.23.16-.08.07c-.44.43-.74.59-.89.58s-.16 0-.22-.21a.86.86 0 010-.13c.11-.14.3-.43.53-.73a2.67 2.67 0 01.75-.76 1 1 0 00.43-.52c.11-.19.21-.34.29-.36l.44-.13.09.09-.3.13.11.25.33-.14v.11l-.32.13.1.26.31-.13a.2.2 0 010 .11l-.3.11.1.26.25-.1a.28.28 0 010 .11 8.78 8.78 0 00-.93.44c-.1.06-.29.18-.45.3m-.12.43v.06a.71.71 0 000 .14.92.92 0 00.27.65h-.67a1.58 1.58 0 00.4-.83m-.62-1.34a4.76 4.76 0 00-.44.53l-.31.42v-.31c.23-.37.52-.63.72-.64m2.49-5.32a1.11 1.11 0 00-.41-.22v-.13h-.11v.25h-.07v-.06h-.08v.1c0 .1-.17.11-.17 0v-.11h-.12v.07h-.07v-.25H24v.23a1.12 1.12 0 00-.36.19.6.6 0 01-.38-.46h-.08a5.56 5.56 0 01-.21-.8c.09-.07.31-.28.3-.39a.37.37 0 00.25.1.39.39 0 00.31-.17.4.4 0 00.54-.09c.07.06.14.16.26.16a.87.87 0 00.28-.07.38.38 0 00.32.17c.22 0 .24-.1.24-.1l.38.39a5.08 5.08 0 01-.27.81h-.14a.86.86 0 01-.11.24c-.06.11-.07.07-.19.25m-1.09.32h.65a.33.33 0 01-.65 0m-.22 2.61c0-.08.05-.16.07-.24l.18.07c0 .22 0 .49-.06.73zm-.17.6h.08l.2.57h-.12l-.2-.57zm-.31-1.95a1.22 1.22 0 00.47.42c0 .14-.08.31-.14.5l-.13-.36zm-.72.78a.15.15 0 01.16-.14c.05 0 .09 0 .13.11v.05a.15.15 0 01-.15.15.13.13 0 01-.13-.11.15.15 0 010-.06m.95 1.92a1.73 1.73 0 00-.2.32 1.32 1.32 0 01-.24.35l.36-.93zm0-1h-.06a.42.42 0 00-.76.24l-.15.05-.3-.91.14-.05a.38.38 0 00.32.18.43.43 0 00.43-.42l.12-.05.33.91zm1.06-1.34c0 .12.06.28.11.46a.51.51 0 01-.33.13.61.61 0 01-.41-.11l.13-.45v-.12l-.15-.07a.84.84 0 01-.54-.51v-.41a1 1 0 00.95.56h.13a.88.88 0 00.72-.45c0 .17 0 .36-.05.43a.35.35 0 01-.15.19c-.08.05-.2.1-.35.17h-.09zm.12 2.41a1.08 1.08 0 00-.11-.18.42.42 0 00-.3-.19h-.11a10.26 10.26 0 00.12-1.2h.12c.09.57.19 1.1.28 1.55m.35.33c-.11-.51-.25-1.2-.36-1.95h.07c.11.42.26.94.42 1.45a6.14 6.14 0 01.21 1.46h-.15s-.09-.34-.21-.88m-2.41-3.95l.21.14-.16.05a.67.67 0 000-.19m.08.49h.13l.33.93h-.11a.4.4 0 00-.33-.18.42.42 0 00-.43.42l-.15.06-.32-.95h.14a.42.42 0 00.34.17.39.39 0 00.4-.39m-.71-.89V26l.14.15h-.14m0 .13a.53.53 0 01.52.51l-.15.05v.13a.25.25 0 010 .07c0 .09-.05.12-.13.12a.14.14 0 01-.14-.11V27h.22v-.3h-.22v-.22h-.28v.22h-.21v.3h.21l-.3.1a.55.55 0 01-.08-.29.53.53 0 01.52-.53m-.74-5.63v-1.12l.47.71a3.8 3.8 0 00-.47.43m.44-.05v1.81a3.16 3.16 0 00-.44 1v-2.35a4.83 4.83 0 01.44-.46m-.44 6v-1.91a3.08 3.08 0 00.44 1v.55a.67.67 0 00-.36.59.64.64 0 00.17.44l.2.58v1l-.44.74V27a.78.78 0 000-.21.65.65 0 000-.2m-.8 5.3a5.7 5.7 0 01.57-1.29c.28-.54.64-1.17 1-1.77l.32.93.62-.22v-.12a.11.11 0 010-.05.14.14 0 01.15-.15c.06 0 .1 0 .14.11v.13c-.16.45-.41 1.08-.54 1.43a.29.29 0 00-.13 0 1 1 0 00-.68.37 8.28 8.28 0 01.31-1.4l-.25-.1a10.51 10.51 0 00-.44 2.64 1.18 1.18 0 00.05.4.52.52 0 00.48.39 1.23 1.23 0 00.72-.33 1.38 1.38 0 01-.84.68h-.15a1.41 1.41 0 01-.89-.49 1.57 1.57 0 01-.48-1 .57.57 0 010-.18m.53-4.54v2.77l-.21.39c-.06.12-.11.23-.17.33v-3.33a.68.68 0 00.35-.1m-.38-1.22V22.1a5.19 5.19 0 01.38-.66v4.83a.68.68 0 00-.35-.1m0 .14a.52.52 0 11-.53.52.52.52 0 01.53-.52m3.54 7.62l-.12-.07-.39-.24h.31a1.1 1.1 0 00.2.31m0-.55h-.08a.7.7 0 01-.63-.68v-.1a.71.71 0 01.73-.62h.24v-.07a.62.62 0 01.52-.28 1.14 1.14 0 01.43.11.62.62 0 01.32.53l-.09.07a.59.59 0 00-.23-.45.58.58 0 00-.37-.13.63.63 0 00-.58.39.57.57 0 00-.28-.08.64.64 0 00-.61.52.34.34 0 000 .1.56.56 0 00.18.42.59.59 0 00.4.15h.12a.63.63 0 00.62.6.66.66 0 00.23 0h.06a.52.52 0 00.11.1 1.21 1.21 0 01-.24.07A.65.65 0 0125 34a.69.69 0 01-.67-.51zm2.35-.25l-1 .58h-.08l1-.63-.15-.23-1 .65v-.13l1-.6-.14-.24-.75.45a.72.72 0 01.24-.25l.85-.53a1.69 1.69 0 01.45.2.81.81 0 01.27.59.57.57 0 010 .18l-.6.37-.3.15-.23.08.6-.37zm.8-.8a1 1 0 00-.22-.2 1.21 1.21 0 00-.62-.25h-.11s-.07 0-.15-.1a6.69 6.69 0 01-.84-2c-.24-.77-.44-1.56-.54-2a2.49 2.49 0 00.28-.15.57.57 0 00.26-.34 2 2 0 000-.26l.32.42a2.38 2.38 0 01-.31.28.86.86 0 00-.38.59.22.22 0 000 .08c0 .09.09.27.19.54s.41.93.64 1.39c.11.23.22.44.32.61a1.19 1.19 0 00.29.35.89.89 0 00.33.19c.35.11.63.18.77.49l.25-.11a1.3 1.3 0 00-.94-.64v-.07a6.76 6.76 0 01.12-1h-.27a7.53 7.53 0 00-.12.88c0-.05-.07-.11-.11-.17a3.48 3.48 0 01-.27-1.2c0-.44 0-.85-.08-1.12h-.27c.05.27.05.81.11 1.34-.07-.13-.13-.27-.19-.4s-.24-.54-.32-.75a3 3 0 01-.14-.38c0-.1.11-.24.28-.38a2.73 2.73 0 00.31-.27 15.58 15.58 0 012.27 4.06 1.37 1.37 0 010 .19 1.18 1.18 0 01-.48.9l-.23.16v-.11a1 1 0 00-.17-.59m-3-11a2.84 2.84 0 012 .82 2.72 2.72 0 01.83 1.94 2.85 2.85 0 01-1.65 2.49v-.18a3.64 3.64 0 01.4-1 .39.39 0 00.36-.16.37.37 0 000-.36.46.46 0 00.3-.33.38.38 0 00-.27-.41.38.38 0 00.06-.39.39.39 0 00-.42-.23s.05-.16-.16-.29-.33 0-.33 0a.34.34 0 00-.18-.17.46.46 0 00-.25 0 .37.37 0 00-.19-.1.37.37 0 00-.23 0 .55.55 0 00-.29-.13.5.5 0 00-.28.13s0-.06-.2-.06a.26.26 0 00-.22.12.28.28 0 00-.25 0 .34.34 0 00-.18.2s-.11-.1-.33 0a.36.36 0 00-.17.3.38.38 0 00-.37.6.35.35 0 00-.25.38.42.42 0 00.3.38.49.49 0 000 .36.42.42 0 00.37.15c0 .11.21.83.25 1.12-.17-.12-.31-.21-.31-.22a2.68 2.68 0 01-1.23-2.21 2.76 2.76 0 01.83-1.94 2.86 2.86 0 012-.82m-1.06-1.57v1.48a3.36 3.36 0 00-.54.26V20a2.52 2.52 0 01.54-.21m2.54-8V13a.56.56 0 00-.31-.09.61.61 0 00-.44.2A.93.93 0 0025 13a1 1 0 00-.46-.16v-.15h.25v-.29h-.29v-.24h-.27v.24H24v.27h.24v.15a1.05 1.05 0 00-.47.16l-.15.14a.55.55 0 00-.42-.2.57.57 0 00-.32.09V11.7zm0-1.75h-.51V8a.31.31 0 01.08-.22.19.19 0 01.16-.09.24.24 0 01.18.09.34.34 0 01.09.22zm-.51 9.78a3.73 3.73 0 01.56.2v1.52a4 4 0 00-.56-.25zm-.11-3.37V13.5a.32.32 0 01.31-.31.32.32 0 01.31.29v3.81zM25 15.09V16l-.41-.62a1.17 1.17 0 00.41-.24m-.46-1.7v-.34a.63.63 0 01.3.1.34.34 0 01.16.3v1.41h-.5v-1.08a.24.24 0 00.13-.22.26.26 0 00-.13-.22m-.33 1.94l-.41.64v-.88a1.27 1.27 0 00.41.24m.06-1.49v1.07h-.47V13.5a.34.34 0 01.16-.3.8.8 0 01.31-.11v.3a.27.27 0 00-.12.22.28.28 0 00.12.23m-1.36 3.49v-3.85a.32.32 0 01.32-.29.31.31 0 01.29.31v2.89zm1.49-1.79l1.49 2.25v.79l-1.49-2.27-1.49 2.29v-.77zm0 2.07l-1.24 1.91-.25.09v-.51l1.49-2.29 1.49 2.27v.53l-.24-.08zm-.13 2v1.45a2.84 2.84 0 00-.65.1v-1.48a4.62 4.62 0 01.65-.08m.84.07v1.46a2.8 2.8 0 00-.57-.08V19.6a3.7 3.7 0 01.57.07m-.7-.34a3.93 3.93 0 00-.84.09l.85-1.31.86 1.31a4 4 0 00-.85-.09M24.5 10V8a.32.32 0 01.29-.31.3.3 0 01.28.31v2zm-.85 0V8a.31.31 0 01.29-.31.3.3 0 01.29.31v2zm-.78 0V8a.3.3 0 01.25-.31.24.24 0 01.18.09.33.33 0 01.08.22v2zm1.48.27h1.5v1.2h-3v-1.2zm-4.91 13.5l-.66-1v-5.39a.31.31 0 01.32-.31.35.35 0 01.24.1.26.26 0 01.1.21zM18.78 33v-6a.3.3 0 01.1-.21.37.37 0 01.24-.1.31.31 0 01.32.3v6zm.66.63v4.87a7.73 7.73 0 01-.66.9v-5.74zm-.71 7.86h-.24V41a.56.56 0 000 .12 1.13 1.13 0 00.2.36m-.1-1.58a8.26 8.26 0 001.47-2 14.64 14.64 0 001-2.77 2.07 2.07 0 01.65-1.1 3.94 3.94 0 00-.28.75c-.14.5-.25 1-.37 1.51a41.19 41.19 0 01-1.5 4.47 3 3 0 00-.19.35.48.48 0 01-.3.23h-.06c-.09 0-.19-.07-.29-.32a3.49 3.49 0 01-.15-1.13m3.8 1.58h-.47l.2-.16.41-.31a1.31 1.31 0 00-.08.43m1.05.08l.22-.67h.05v.24a3.61 3.61 0 010 .4s0 .07-.1.11l-.17.12h-.36a.53.53 0 01-.29-.22.34.34 0 01-.05-.2 1.09 1.09 0 01.22-.62h.49l-.23.7zm1-.08H24v-.29a1.33 1.33 0 00.44.3m.9 0h-.3a1.71 1.71 0 00.23-.13s.05.08.07.13m1.08-.4a1.23 1.23 0 01.27.62.14.14 0 010 .1.62.62 0 01-.31.08.65.65 0 01-.39-.13 1.63 1.63 0 01-.37-.43 1.46 1.46 0 01-.09-.16.94.94 0 01.59-.2l.19.53.25-.09zm.7.4H27a1.27 1.27 0 00-.08-.23 2.6 2.6 0 01.28.23m2.19 0h-.95c.11-.11.22-.24.32-.36l.34-.47a1.87 1.87 0 00.07.4.89.89 0 00.18.38v.05m0-1.19v-.26a1.93 1.93 0 01-.74-.44 2.93 2.93 0 01-.69-1.7c-.05-.33-.1-1-.18-1.77a7.6 7.6 0 00-.35-1.84l-.25.1a8.11 8.11 0 01.33 1.77c.08.72.13 1.43.18 1.78a3.21 3.21 0 00.77 1.86 2 2 0 00.68.43 1.06 1.06 0 00-.22.27 7.63 7.63 0 01-.54.68.86.86 0 01-.57.35.39.39 0 01-.29-.14 1.92 1.92 0 00-1.33-.67 1.27 1.27 0 00-.88.35.68.68 0 01-.46.2.8.8 0 01-.55-.28l-.22-.2a1.17 1.17 0 00-.37-.25 1.07 1.07 0 00-.39-.07 1.45 1.45 0 00-.5.09 3.35 3.35 0 00-.84.57 1 1 0 01-.64.27.85.85 0 01-.65-.36 1.5 1.5 0 00-.35-.36.58.58 0 00-.3-.09 43.91 43.91 0 001.39-4.23c.13-.5.24-1 .37-1.5a2.05 2.05 0 01.68-1.18 1.76 1.76 0 01.53-.1.68.68 0 01.26 0 4.57 4.57 0 01.77.44 1.85 1.85 0 00.91.34 3.72 3.72 0 001.4-.31l.18-.1.23-.12h.07a1 1 0 01.38-.09.46.46 0 01.46.3 6 6 0 01.52 1.73c.1.59.26 1.54.45 2.27a4 4 0 00.27.66 2 2 0 00.16.26 2.44 2.44 0 00.61.72l.5.45A8.86 8.86 0 0130 41a.75.75 0 01-.14.31.17.17 0 01-.16.09.2.2 0 01-.18-.09 1.77 1.77 0 01-.2-1M28.1 5.15a21.32 21.32 0 012.77.75v6.52L29.27 10V7.44l-.17-.29v-1h.25v-.27h-.25v-.25h-.27v.25h-.25v.27h.25v1l-.18.29V10h-.55zM17.33 41.91l-.33-.28v-2.45l.31-.56zM9 42.35v-.42h7.77l.47.42zm6.45.77h-.27v.27h-.27v-.27h-.31v-.28h.27v-.27h.27v.27h.27zm-1.31 0h-.27v.27h-.28v-.27h-.27v-.28h.27v-.27h.28v.27h.27zm-1.32 0h-.27v.27h-.28v-.27H12v-.28h.27v-.27h.28v.27h.27zm-1.31 0h-.31v.27h-.28v-.27h-.27v-.28h.27v-.27h.28v.27h.27zM9 29.8a.42.42 0 01.4-.41v12.13H9zm0-3.16l1-1.5.82 1.25a3.9 3.9 0 00-.68.51v-.65h-.35v.93a3.79 3.79 0 00-.39.53 5.7 5.7 0 00-.44.9zm0-4.8a.31.31 0 01.12-.23.55.55 0 01.31-.1.37.37 0 01.4.33v3L9 26.14zm0-9.52c.26-.32.52-.64.8-1v7l-.8 2.3zm1.81 9a.73.73 0 00-.36-.11.68.68 0 00-.49.24.75.75 0 00-.53-.24.93.93 0 00-.4.12l.89-2.48zM10 11.06l.75-.76v10.27L10 18.49zm.75 14.88l-.71-1.09v-3a.34.34 0 01.34-.33.4.4 0 01.26.1.3.3 0 01.11.23zm5.52 6.49l.3-.23v.46zm-.11.74l-.43-.32.43-.33.41.31zm.11.09l.3-.23v.46zm-.12.76l-.43-.33.44-.34.41.32zm.36.27l-.25-.19.31-.23V34a.84.84 0 01-.06.3m-.33 6.7v-5.75h.05a2.48 2.48 0 00.36-.24v6.1l-.41-.11m-2 0h.12a1 1 0 00.48-.13h.05L15 41a1.15 1.15 0 00.4.17 9.1 9.1 0 001.12.22.55.55 0 01-.24 0h-.29c-.36 0-.72 0-.84-.07H15a8.47 8.47 0 00-.9.1v-.1a.74.74 0 01.14-.35m-.08-4.6a1.38 1.38 0 00.17.29l.09.1-.26.19a1.52 1.52 0 00-.13-.53zm-.37-.27l.34-.14v.14zm-.21 1.47c-.48.16-1.27.32-1.31.33s0 0-.05 0-.05 0-.06-.14c.2 0 .68-.13 1-.2s.58-.16.79-.22v.13a1.65 1.65 0 01-.31.12m.16 1.88h-.1l-.14-1.56.26-.08v1.67m-.47 1.22h.15a.38.38 0 00.23-.06.34.34 0 00.09-.08v1h-.47zm.37-.53a.41.41 0 010 .1.27.27 0 01-.12.16h-.1v-.31zm-1.11.33h.2l.27.08v.89h-.47zm.4-2.44h.3l.13 1.43h-.12zm0 1.29h-.14l-.25-.37a5 5 0 01-.19-.64v-.16h.22zm-2.07-.15l.12.05a.82.82 0 00.26 0c.2 0 .38-.05.56-.05h.14a1.25 1.25 0 01.47.18l.13.08v.23l-1.72-.43a.3.3 0 010-.1m.64-4.92V39a1.28 1.28 0 01-.26 0 .47.47 0 01-.28 0v-9.6a.68.68 0 01.3.12.38.38 0 01.16.3v3.42a1 1 0 00-.08.42 2.9 2.9 0 00.08.61m1.48-5a1 1 0 00-.59-.16.94.94 0 00-.6.2 6.51 6.51 0 01.18-1.71c.18-.57.45-.93 1-1zm-.47.47v-.35a.86.86 0 01.32.11.68.68 0 01.12.12 1.59 1.59 0 00-.44.12m-.74 1v-.88a.39.39 0 01.17-.3.68.68 0 01.3-.12v.51a1.07 1.07 0 00-.16.14 1.4 1.4 0 00-.31.65m1.65-.74h.05a.79.79 0 01.22 0 .4.4 0 01.25.09.16.16 0 01.07.12 1.84 1.84 0 00-.41 0h-.12v.28h.11a1.23 1.23 0 01.35 0 .24.24 0 01-.12.1h-.32v.27h.23a1.66 1.66 0 01-.37.84c-.24.22-.37.24-.43.24h-.12v.08a.39.39 0 01-.22.16.71.71 0 01.09-.33l-.24-.12a1 1 0 00-.12.45v.06h-.11v-.08a.81.81 0 01.13-.48l-.23-.15a1 1 0 00-.17.57.37.37 0 01-.09-.26.63.63 0 01.15-.41v-.06a1.38 1.38 0 01.28-1 1.11 1.11 0 01.77-.35.78.78 0 01.36.08m.31-.58v.27a.77.77 0 00-.25 0 .7.7 0 00-.19-.06.43.43 0 01.13-.14.87.87 0 01.31-.11m.74-.08a.94.94 0 00-.6-.2 1 1 0 00-.59.16V26.6c.58 0 .86.41 1 1a7.07 7.07 0 01.18 1.73m.88-.2a1 1 0 00-.6.2 6.62 6.62 0 00-.19-1.81 2.18 2.18 0 00-.2-.52 3.41 3.41 0 01.73.65 3.71 3.71 0 01.83 1.64 1 1 0 00-.55-.16m.6 2.77h-.47v-2.5a.63.63 0 01.3.12.39.39 0 01.17.3zm-.27 1.72l-.43-.33.44-.34.42.33zm.27.62a.37.37 0 00-.18 0h-.14l-.22.07-.18-.15.45-.35.42.33zm.19.27a.36.36 0 00-.1-.21l.15-.11.27.21a1.64 1.64 0 00-.35.09m-.94 4l.26-.21a1.14 1.14 0 01-.05.26zm-.76.28a.64.64 0 00-.06-.18l1-.77a1 1 0 01.08.15l-.83.64.75.19a1.09 1.09 0 00-.05.17zm.77 1.26v.67a.73.73 0 00-.2-.14c0-.12.12-.32.2-.53m-.28-.87l.27.07-.12.35c-.15.43-.3.83-.36 1s0 0-.06 0zm-.52-.94l-.21.16a1 1 0 00-.13-.08v-.35zm.36-.29l-.15.11-.51-.48a1.14 1.14 0 000-.28zm-.19-1l.59.67-.19.15-.58-.69zm-.19-1.12h.08v.58a.7.7 0 01-.08-.16zm-.78 0l.07-.23 1.18-.41v.11zm-.55 1c-.24.07-.63.14-.86.19a1.74 1.74 0 01.19-.56.71.71 0 00.06-.23h.91l.13.08a1 1 0 01.26.23.17.17 0 000 .05c-.18.06-.5.16-.75.22m-.9.48l1-.21.74-.22V37l-.77.3-.89.18v-.15M11.74 35c0 .11.09.23.14.35.11.3.22.59.25.65s0 .08 0 .14a.66.66 0 010 .18 2.76 2.76 0 00-.28 1.32.59.59 0 00.15.43.31.31 0 00.15.08.81.81 0 000 .19 5.17 5.17 0 00.22.73 1.63 1.63 0 00-.44-.14h-.2zm1.8-.07l-.3.9-.24-.09a.1.1 0 01-.05 0zm-.84.6l-.23-.17.75-.74.08.08zM12 35l.88-.65.12.14-.76.75L12 35m.2.6a5.26 5.26 0 00.61.41h-.46l-.16-.4m1.87-4.67v.18a.26.26 0 00-.19.24.79.79 0 01.26 0 1.82 1.82 0 00.08.19l-.21.1a.42.42 0 010 .15c0 .07 0 .16-.18.27l.17.22v.07h-.7l-.09-.07-.11-.28a1.52 1.52 0 00.34-.25 2.17 2.17 0 00.57-1.01 1.34 1.34 0 01.11.14m.32.43v-.18a1 1 0 000-.22.29.29 0 00-.06-.17l-.14-.19a.59.59 0 00.1-.34.5.5 0 00-.2-.42l-.13-.08v-.32a.72.72 0 01.31.12.41.41 0 01.16.3zM14 34.75l-.27.07-.09-.09.32-.14zm.27-2.51v-.08a.57.57 0 010-.13.28.28 0 010-.1.85.85 0 01.11-.14v2.92h-.13l-.06-.31a1.91 1.91 0 00-.19-1.11v-.61a.68.68 0 00.19 0 .26.26 0 00.17-.18.28.28 0 000-.09.33.33 0 000-.15m.36 2.74l-1 .34.08-.25.84-.22zm.24-.87l-.21.16a.93.93 0 01-.05-.29v-.07zm.21 1.42v1.75l-.47-.54v-1zm-.3-1l-.07-.11.27-.21.15.12a1.58 1.58 0 00-.26.13.31.31 0 00-.09.07m.23-1.17l.43.33-.46.35-.37-.29v-.09zm-.1-.11l-.29.22v-.44zm.13-.75l.41.33-.43.33-.4-.3zm-.13-.08l-.3.23v-.47zm.37-.29l-.26.2-.25-.2zm-.2-.27h-.47v-2.06a.39.39 0 01.17-.3.68.68 0 01.3-.12zm-2.43.41a.49.49 0 00.18-.14l.06.16v.08a1.18 1.18 0 01-.27-.1m.26.38a1.55 1.55 0 00.37 0h.16v.28h-.3a.78.78 0 01-.22 0 .51.51 0 01-.28-.25 1 1 0 01-.09-.17 1.61 1.61 0 00.44.17m-1.26.15v-.56l.1.06a.9.9 0 00.42.1 2.34 2.34 0 00-.36.15l-.15.2m.35 0l.11-.06h.14a1 1 0 00.09.17.75.75 0 00.45.38 1.33 1.33 0 00.28 0 2.85 2.85 0 00.41 0l.17.21a1.57 1.57 0 01.23.86l-.5.21c-.19-.19-.41-.47-.87-1l-.21.17.38.47-.84.61-.07-.19a1.78 1.78 0 01-.1-.31 2.09 2.09 0 01-.08-.55.6.6 0 01.06-.31 5 5 0 01.37-.53m2.18 6.87a1.94 1.94 0 01.11-.6l.24.06-.29 1.57h-.05V39.8m1.52-4.53a2.22 2.22 0 01-.43.07h-.23l-.15-.4s0-.1.13-.17a2.85 2.85 0 01.56-.23h.15l-.26.1-.11.06a.21.21 0 00-.09.16.14.14 0 00.08.1.14.14 0 00.1 0 1.06 1.06 0 00.39-.13 2.7 2.7 0 01.55-.2s0 .05-.05.09a2.49 2.49 0 01-.32.21l-.3.17m-.35 2.44V35.5h.26a1.05 1.05 0 00.21-.06V41a4.35 4.35 0 01-.45-.1v-1.6a4.17 4.17 0 00.25-1 1 1 0 00-.25-.7m.63-5.17l-.42.33-.42-.33.36-.28h.12zm.11-.55v-2.06a.41.41 0 01.16-.3.53.53 0 01.25-.12v2.48zm.26.27l-.25.19-.25-.19zm-6.12-2.88a3.7 3.7 0 01.85-1.64 4.1 4.1 0 01.71-.62 2.28 2.28 0 00-.21.51 6.92 6.92 0 00-.2 1.79 1 1 0 00-.6-.2 1 1 0 00-.55.16M9.89 39.6a5.29 5.29 0 00-.18 1 1 1 0 00.25.69 1.67 1.67 0 00.28.22h-.61v-12.1a.42.42 0 01.36.41v8.94a.43.43 0 00-.14.16.44.44 0 000 .22 1.48 1.48 0 00.09.46m.51 1.19l.14.56a.93.93 0 01-.38-.24.69.69 0 01-.18-.5 5.35 5.35 0 01.09-.59l.09-.36a.11.11 0 000-.08v-.14a.91.91 0 010-.27.28.28 0 010-.08c.06-.09.06-.09.13-.09a.59.59 0 01.21.05l.15.06a1.21 1.21 0 000 .3 1.25 1.25 0 00.08.44.69.69 0 000 .1c0 .14-.18.8-.18.8a.17.17 0 000 .07m.33-.35V41l-.06-.25c0-.06 0-.18.06-.31m-.21-1.67a1.07 1.07 0 00-.25-.07v-8.88a.38.38 0 01.16-.3.68.68 0 01.3-.12v9.45l-.21-.08m1 1.42v1.33H11V40l.43.16m.74.22v1.11h-.47v-1.21l.47.13m-.14-.32a7.91 7.91 0 01-.91-.31.94.94 0 00-.31-.09v-.11l1.74.43v.22l-.51-.14m1 .29h-.2l-.06-.72.86.15v.1c0 .03 0 0 0 0l-.64-.12zm.95.09v.23a.23.23 0 000 .07v-2.12a.2.2 0 01.06.14 3.92 3.92 0 00-.14.8v.78m-.81-14.29a3.8 3.8 0 013.47 1.78 4.66 4.66 0 01.57 1.37 1 1 0 00-.41-.12.92.92 0 00-.55.22 3.87 3.87 0 00-.9-1.88 3.05 3.05 0 00-2-1.12h-.16a1.66 1.66 0 00-.32 0 3.27 3.27 0 00-1.8 1.12 4 4 0 00-1 1.86.87.87 0 00-.57-.2.79.79 0 00-.38.09 4.42 4.42 0 01.56-1.34 3.81 3.81 0 013.47-1.78m-1.9-.28l.85-1.3.85 1.3a5.22 5.22 0 00-.71.06v-.53h-.28v.59a4.55 4.55 0 00-.71.23zm0-4a.36.36 0 01.35-.3.36.36 0 01.36.33v2.37l-.69 1.1zm1.7-.16v3.66l-.71-1.09v-2.37a.36.36 0 01.39-.33.42.42 0 01.32.14m-1.7-.41l.85-2.36.85 2.35v.08a.66.66 0 00-.32-.08.77.77 0 00-.53.24.7.7 0 00-.5-.24.69.69 0 00-.35.11zm0-3.81h1.7v3l-.85-2.36-.85 2.37zm0-2.8l.64-1 .5.76v2.71H12v-2.2l.13-.2-.26-.43-.26.43.12.2v2.25h-.5zm0-4.72l.5-.45v3.93l-.5.75zm.82 1.27l.5-.76.5.76v2.21l-.36.56V12h.26v-.27h-.26v-.53h-.27v.53h-.23V12h.23v2l-.37-.61zm0-1.95c.33-.26.66-.52 1-.77v2.23l-.5-.77-.5.77zm1.64 5.21v2.71h-.36V14.9l.12-.2-.26-.43-.26.43.12.2v2.25h-.36v-2.71l.5-.76zm-.36-3.26l.49-.76.5.76v2.21l-.36.56V12h.25v-.27h-.25v-.53h-.27v.53h-.24V12h.24v1.9l-.36-.55zm0-2.91c.32-.22.65-.44 1-.65v3.07l-.5-.77-.49.77zm.89 9.79l-.82 2.29v-2.92H15v3.07zm.51 3.17a.66.66 0 00-.49.24.69.69 0 00-.52-.24.66.66 0 00-.32.08v-.16l.82-2.29.83 2.44v.05a.81.81 0 00-.37-.12m-.35 3v-2.39a.34.34 0 01.34-.33.42.42 0 01.26.1.3.3 0 01.11.23v3.46zm-1 1.09v-3.67a.42.42 0 01.32-.14.36.36 0 01.39.33v2.37zm.71.06v.53a4 4 0 00-.71-.07l.85-1.3.87 1.26v.38a3.8 3.8 0 00-.72-.24v-.58zm1-10.73v2.52h-.5V14.9l.12-.2-.26-.43-.26.43.12.2v2.25h-.36v-2.71l.5-.76zm-.5-7.17c.16-.1.33-.19.5-.28v7l-.5-.75zm.91 14.37a.36.36 0 01.36-.32.35.35 0 01.36.33v3L15.43 26zM15.43 7c.25-.13.5-.26.75-.37V18.5l-.75 2.08zm1.79 14.4a.71.71 0 00-.41-.13.75.75 0 00-.52.24.7.7 0 00-.5-.24.79.79 0 00-.34.1l.88-2.44zm-.8 3.49v-3a.37.37 0 01.39-.33.47.47 0 01.3.1.31.31 0 01.12.23v4.24zm-.27 1.44v.62a4 4 0 00-.68-.51l.82-1.26.94 1.44v2a4.44 4.44 0 00-.43-.88 2.93 2.93 0 00-.38-.51v-.91zm.71 5.59v-2.51a.76.76 0 01.22.11.41.41 0 01.15.27V38l-.36.65v-6.77zm-.4-25.42l.77-.32v14.38l-.77-2.14zm-8.12 13l-1.88 2.63v-3.24l-.21-.34-.25.34V29.5h2.3v6.12a19.66 19.66 0 010-22.45zm0 5.15l-.82-1.25v-.52h.25v-.28h-.25v-.3h-.27v.24H7v.28h.24v.52l-.79 1.22v-1.95l1.88-2.7zm0 1.13a.77.77 0 00-.42-.13.67.67 0 00-.53.24.66.66 0 00-.52-.24.74.74 0 00-.41.13v-.67l.93-1.42.94 1.45zm0 1.75h-.82V26.2a.39.39 0 01.4-.34.52.52 0 01.3.11.29.29 0 01.12.23zm-1.49 1a.52.52 0 111 0 .52.52 0 11-1 0m-.39-1V26.2a.28.28 0 01.12-.2.47.47 0 01.29-.11.37.37 0 01.38.34v1.27zm.62.42a.66.66 0 00-.37.59.67.67 0 00.37.6h-.62v-1.25zm1.26 1.19h-.67a.68.68 0 00.36-.6.66.66 0 00-.37-.59h.68zm32 .42h2.3V18.89l-.21-.34-.21.34v3.22l-1.88-2.7v-6.27a19.66 19.66 0 010 22.51zm0-1.61h.67a.67.67 0 000 1.19h-.66zm0-1.71a.35.35 0 01.16-.24.52.52 0 01.3-.11.39.39 0 01.4.34v1.27h-.82zm1.09 1.29V26.2a.37.37 0 01.38-.34.47.47 0 01.29.11.29.29 0 01.12.21v1.29zM41.34 29a.53.53 0 01-.53-.53.52.52 0 01.53-.52.52.52 0 01.52.52.52.52 0 01-.52.53m.66-.53a.66.66 0 00-.37-.59h.63v1.19h-.63a.67.67 0 00.37-.6m-1.62-3.39l.95-1.46.93 1.42v.67a.74.74 0 00-.41-.13.66.66 0 00-.52.24.67.67 0 00-.53-.24.77.77 0 00-.42.13zm0-5.2l1.88 2.7v2l-.79-1.21v-.52h.24v-.28h-.24v-.27h-.27v.24H41v.28h.25v.52l-.82 1.25zm0 16.23a19.93 19.93 0 000-23.44v-.92l-.32-.52-.3.52v.1A19.62 19.62 0 0038 9.92v-.46l-.41-.57v.65a20 20 0 00-3.82-2.67v-.35l-.42-.61v.74a18.45 18.45 0 00-1.81-.81v-.93l-.31-.53-.31.53v.7a19.81 19.81 0 00-2.77-.74V1.54l-.21-.27-.21.27V4.8L27 4.7V.28h-.27v2.54L26.06 1l-.72 1.86V.15h-.27v1.9L24.35.22 23.65 2V.15h-.27v2.67L22.67 1 22 2.84V.25h-.28V4.7l-.72.1V1.55l-.2-.26-.21.26v3.33a19.81 19.81 0 00-2.77.74V4.9l-.3-.52-.31.52v.95c-.61.24-1.21.5-1.8.8v-.73L15 6.6v.27a20 20 0 00-3.8 2.67v-.72l-.42.64v.46a21.23 21.23 0 00-1.82 2v-.13H9l-.31-.52-.31.52v.93a19.9 19.9 0 000 23.39v6.38l.58.51h.91l.76.64h4.93l.71-.64h1.1a19.85 19.85 0 0014.08 0h1.05l.7.64h4.86l.76-.64h1l.56-.49z"/><path class="cls-1" d="M27.86 26.48v.21h-.22v.27h.22v.22h.27v-.22h.22v-.27h-.22v-.21h-.27zM22.39 3.07l.26.42.26-.42-.26-.43-.26.43zm4.25 3.72l.27.43.26-.43-.26-.42-.27.42zm9.78 13.72l.27.42.26-.42-.26-.43-.27.43zm-18.04-4.32l.27.42.26-.42-.26-.42-.27.42zm3.26-5.75v.28h-.28v.27h.28v.27h.27v-.27h.27v-.27h-.27v-.28h-.27zm16.95 10.07l.27.42.26-.42-.26-.43-.27.43zM20.6 10.44v.28h-.28v.27h.28v.27h.27v-.27h.27v-.27h-.27v-.28h-.27zm-1.95 14.22a.52.52 0 01.53.52.53.53 0 01-.53.53.52.52 0 01-.52-.53.52.52 0 01.52-.52m0 1.19a.67.67 0 10-.66-.67.66.66 0 00.66.67"/><path class="cls-1" d="M18.52 24.82v.22h-.22v.28h.22v.22h.27v-.22h.22v-.28h-.22v-.22h-.27zm15.78-4.3l.26.42.27-.42-.27-.43-.26.43zM25 24.55a.5.5 0 01.38.22l.09-.1a.6.6 0 00-.68-.21.58.58 0 00-.34.47v.34h.13V25a.45.45 0 01.42-.4m-1-.14a.61.61 0 00-.68.21l.1.1a.47.47 0 01.38-.22.45.45 0 01.42.4v.32h.13v-.34a.6.6 0 00-.35-.47"/><path class="cls-1" d="M25 24.76c-.24 0-.33.09-.33.18H25a.1.1 0 00-.06.09.11.11 0 00.22 0 .11.11 0 00-.06-.09h.26c0-.1-.14-.19-.3-.19M21.55 6.79l.26.43.26-.43-.26-.42-.26.42zm2.23 17.95c-.23 0-.33.09-.33.18h.28a.09.09 0 00-.06.08.11.11 0 00.22 0 .08.08 0 00-.06-.08h.26c0-.09-.14-.19-.31-.19M18.35 3.49a1.3 1.3 0 01.62 0v-.64a1.1 1.1 0 01.09-.52 1.16 1.16 0 01.82.49h.07l-.35-.62a1.2 1.2 0 00-1-.46h-1.73a.6.6 0 01.06.51.87.87 0 01-.51.24h-.71a1.88 1.88 0 010 .58 1.12 1.12 0 001-.45l.29-.31h1.19l-.24.37a.89.89 0 01-.53.26h-.72a1.65 1.65 0 010 .5l-.19.3A.89.89 0 0116 4h-.61a1.56 1.56 0 010 .57 1.43 1.43 0 00.54-.08 1.18 1.18 0 00-.12.6 1.38 1.38 0 01.64 0V4.4a1.32 1.32 0 01.08-.52l.24-.37a1.27 1.27 0 00.63-.13 1.09 1.09 0 00-.12.57 1.3 1.3 0 01.59 0v-.61a1 1 0 01.08-.51l.35-.52h.7c-.1.1-.23.26-.35.41a1 1 0 00-.25.76M1.62 25.15l1.8-.15-.2.38-1.71.14-.07-.1zM1 26.31a4.5 4.5 0 01.43-.8l.31.44 1.54-.12a.16.16 0 01.14.07l.34-.61-.54-.69-1.67.13a.14.14 0 01-.13-.05c-.26.46-.5.85-.81 1.33a1.79 1.79 0 01.37.3m26.27-11.65l.26.42.26-.42-.26-.42-.26.42zm-22.64 2.4h-.08c.1.18 0 .23-.18.39L2.88 17v-.09a2.76 2.76 0 01.55-.14 1.44 1.44 0 01-.23-.38l-.56.18.18.4-.39.22a2.75 2.75 0 01.19.42c0-.09.12-.2.16-.19l1.5.53a.15.15 0 01.1.12 3.65 3.65 0 01.52-.45zm23.24-6.62v.28h-.27v.27h.27v.27h.27v-.27h.27v-.27h-.27v-.28h-.27zM22.3 34.42a16.24 16.24 0 01-1.46 5.39l.23.13a16.32 16.32 0 001.5-5.48zM2.15 29.65l.48-.52.43.25zm1-.31a6.32 6.32 0 01-.8-.51l-.56.59a4.29 4.29 0 01.54.62l1.53-.45a.17.17 0 01.15 0H4a4.15 4.15 0 01.19-.82l-.52-.27v.08c.19.08.13.24.05.58zM14.3 3.57h-.07l-.06.09-.2.3a1 1 0 01-.76.25h-.41c-.2 0-.32-.09-.32-.16h-.12v.64l-.16.13a.78.78 0 01-.46.19h-.5a1.4 1.4 0 010 .54 1.11 1.11 0 00.45-.06 1 1 0 000 .32l-.21.19a.89.89 0 01-.53.26h-.72a1.62 1.62 0 010 .58 1.83 1.83 0 00.64-.1 1.26 1.26 0 00-.12.69 1.12 1.12 0 01.63 0v-.69a1.29 1.29 0 01.18-.68l.12-.19a1.3 1.3 0 01.57 0v-.51a.91.91 0 01.15-.58h.14a1.59 1.59 0 001-.2 2 2 0 00-.16.74V6a.75.75 0 01-.45.19h-.61a1.56 1.56 0 010 .57 1.26 1.26 0 00.54-.08 1.15 1.15 0 00-.11.56 1.42 1.42 0 01.65 0v-.65a1.34 1.34 0 01.08-.53 1.21 1.21 0 01.5 0V4.92a2.42 2.42 0 01.12-1zm15.53 12.62l.26.42.26-.42-.26-.42-.26.42zm-25.6-2.64h.7s.07.28.13.49zm1.89.34h-.09c.07.18-.08.25-.37.43l-.49-.27a6.51 6.51 0 01-.17-.91h-.85a4.12 4.12 0 01-.07.82l1.39.78a.16.16 0 01.08.13 5.42 5.42 0 01.73-.43zm16.47 23.4A5.12 5.12 0 0122 40.1l.21.17a5.25 5.25 0 00.7-3 16.17 16.17 0 01.09-2.74l-.26-.08a15.78 15.78 0 00-.19 2.84M11.79 20.5l.27.42.26-.42-.26-.43-.27.43zM5.63 16l-.34.2-.2-.43zm-.89 0l-1.55-.67.36-.23 1.45.65.06.12zm.68.62l.44-.35-.38-1a.37.37 0 01-.16.16l-1.61-.71a.13.13 0 01-.08-.11L3 15a3 3 0 01.13.84l1.38.62a.16.16 0 01.1.12l.55-.35zm-3.21 2.13l.67-.2s.13.25.24.44zM4 18.64c.12.16 0 .27-.25.52l-.5-.16a5.31 5.31 0 01-.43-.86l-.82.23a5.12 5.12 0 01.15.81l1.53.41a.13.13 0 01.11.1 4.77 4.77 0 01.59-.61l-.31-.5zm21.18-8.2v.28h-.27v.27h.27v.27h.27v-.27h.28v-.27h-.28v-.28h-.27zM1.47 28.22l.39.23a.39.39 0 01.05-.23l.73-.56 1.47.49a3.49 3.49 0 01-.21-.46c-.8-.25-2.25-.74-2.4-.83l-.21.39.35.24c0-.08.07-.15.07-.15l.54.17-.65.49zm3.01 4.19a2.68 2.68 0 000 .67 1.19 1.19 0 00-.88-.24 2 2 0 010 .64h.56a1.43 1.43 0 01.76.27l.14.21a.93.93 0 00-.52-.09 1.57 1.57 0 010 .53h.49a.76.76 0 01.42.16v.49a2.33 2.33 0 00.44 1.27.36.36 0 00.07.1c-.23-.17-.44-.15-.89-.14v-.07l-.75-1.15a1 1 0 01-.08-.49V34a1.18 1.18 0 01-.59 0 .85.85 0 00.15.58 1.39 1.39 0 00-.53-.07 1.88 1.88 0 010 .53h.6a.63.63 0 01.49.24l.22.33a1.14 1.14 0 00-.8-.2 2.09 2.09 0 010 .66h.67a1 1 0 01.54.21.92.92 0 010 .55h.49a1.52 1.52 0 011.18.64l.08.12a1.67 1.67 0 00.08.4c-.41-.5-.62-.47-1.52-.47a1.48 1.48 0 010 .55h.77a1.39 1.39 0 011.06.59.41.41 0 000 .09l.35.5h.08s-.13-.18-.19-.28a2.91 2.91 0 01-.14-1.11v-2.05a1.76 1.76 0 01-.56 0v1.68l-.41-.63-.17-.27a3.31 3.31 0 01-.13-1.14v-.2c0-.07 0-.63.2-.63v-.1h-.62l-.36-.55a1.66 1.66 0 01-.09-.55v-.91a1.3 1.3 0 01-.59 0M4 30.14l-1.48.49a.12.12 0 01-.13 0l-.16.54.47.27-.7.24-.2.41a2.7 2.7 0 01.4.22v-.24l2.25-.75h.16l.16-.48-.41-.2a.42.42 0 010 .23l-1.56.53-.18-.1.08-.3 1.6-.53a2 2 0 01.55-.14 1.36 1.36 0 00-.85-.19m2.88-17.25l.47-.18-.1-.44a.4.4 0 01-.19.13s-1.29-.82-1.37-.86a.13.13 0 01-.06-.12l-.52.22.06.44-.45.17a2 2 0 01.09.45c0-.08.16-.16.19-.14l1.4.89a.14.14 0 01.07.13l.41-.14L6.8 13l-.16.06-1.41-.86V12l.23-.11 1.34.85c.11.07.08.14.08.14zm19.93-2.45v.28h-.27v.27h.27v.27h.27v-.27h.28v-.27h-.28v-.28h-.27zm-18.16.17l.49-.1v-.45a.4.4 0 01-.21.1l-1.24-1.1a.16.16 0 01-.05-.13L7.13 9a2 2 0 010 .46s.15-.18.24-.09l1.18 1.06c.09.09.05.15.05.15zM3.26 26.74l.3.31a1.3 1.3 0 00.3-.3l-.3-.31a1.32 1.32 0 00-.3.3M.91 22.46s0-.23.15-.22l2.26.27c.13 0 .13.09.13.09l.35-.37-.28-.35a.42.42 0 01-.12.2l-2.28-.27a.15.15 0 01-.12-.06l-.36.35a1.46 1.46 0 01.27.36m1.21-2.16l1.65.32-.29.31-1.59-.3v-.06zm-1.32.46a2.91 2.91 0 01.26.39c0-.1.09-.21.13-.21l2.2.42a.15.15 0 01.11.1L4 21l-.34-.81-1.49-.28a.14.14 0 01-.11-.09l-.46.49.22.35-.64-.13zm.72 2.83l.61-.36.34.36zm1.09 0a6.43 6.43 0 01-.61-.72l-.7.41a3.94 3.94 0 01.3.72h1.59a.15.15 0 01.13.07 5 5 0 01.41-.73l-.4-.34h-.06c.16.13 0 .27-.11.57z"/><path class="cls-1" d="M24.39 48.71a24.36 24.36 0 1124.39-24.35 24.39 24.39 0 01-24.39 24.35m0-48.38a24 24 0 1024.06 24 24.08 24.08 0 00-24.06-24"/></svg>