<svg xmlns="http://www.w3.org/2000/svg" xmlns:xlink="http://www.w3.org/1999/xlink" viewBox="0 0 483.4 549.9"><g fill="#023349"><path d="M0 371.4h39.6L64.5 449l24.9-77.6H129L86.4 486.7H42.5L0 371.4z"/><path d="M126.4 371.4h34.9v115.3h-34.9V371.4zm94.2 78.3H208v37h-35V371.4h61.5c27 0 41.5 18 41.5 39.6 0 19.9-11.6 30.4-20.7 34.9l20.9 40.8h-39.8l-15.8-37zm8.6-49.2H208v20.2h21.3c5.9 0 11.4-3.8 11.4-10.2-.1-6.2-5.6-10-11.5-10z"/><path d="M274.8 371.4h35.4v66.7c0 11.1 5.7 19.9 20.1 19.9 14.2 0 19.9-8.8 19.9-19.9v-66.7h35.4v67.8c0 28.7-16.4 49.6-55.3 49.6s-55.5-20.9-55.5-49.4v-68z"/><path d="M398.2 444.5c8.6 8.3 21.6 14.9 37.2 14.9 6.6 0 12.8-2.2 12.8-6.7s-4.8-6.7-16.2-8.8c-19-3.5-48-8-48-36.8 0-19.5 16.2-37.3 47.9-37.3 18.8 0 35.8 5.4 48.9 16.1L462 410.5c-10-7.6-23-11.4-32.1-11.4-8.6 0-10.5 3.1-10.5 6.1 0 4.5 4.7 6.1 16.9 8.1 19 3.3 47.2 8.8 47.2 35.4 0 25.4-18.8 40.1-49.8 40.1-24.5 0-41.3-7.3-53.6-18.3l18.1-26z"/></g><path d="M80.7 520.4h11c9.2 0 15.4 6.1 15.4 14.8s-6.2 14.7-15.4 14.7h-11v-29.5zm11 25c6.4 0 10.1-4.6 10.1-10.2 0-5.7-3.5-10.2-10.1-10.2h-5.8v20.4h5.8zm38-25h20.2v4.6h-15v7.7h14.7v4.6h-14.7v8.2h15v4.6h-20.2v-29.7zm50.2 4.6H171v-4.6h23v4.6h-9v24.9h-5.2V525zm35.5-4.6h20.2v4.6h-15v7.7h14.7v4.6h-14.7v8.2h15v4.6h-20.2v-29.7zm51.3 17.1l-2.6 3v9.4H259v-29.5h5.2v14.1l11.5-14.1h6.4l-12 13.9 12.9 15.6h-6.4l-9.9-12.4zm44.8-12.5h-8.9v-4.6h23v4.6h-8.9v24.9h-5.2V525zm35.6-4.6h5.2v29.5h-5.2v-29.5zm26 0h5.9l8.9 23.9 8.9-23.9h5.9l-11.6 29.5h-6.5l-11.5-29.5z" fill="#01A0C6"/><path fill="#023349" d="M156.5 319.3c-17.7-12.1-27.9-47.8-31.8-64l-45.5 14.4c33.5 28.3 82 97.5 82 97.5v-44.6l-4.7-3.3zm8.2-87.9c18.2 13.7 24.6 65.4 24.6 65.4L173 307.3v69L366.3 234v-51.4s-137.5 41.2-201.6 48.8z"/><path fill="#01A0C6" d="M356.9 230.7S334 244.1 310.3 258c25.3-18.2 36.3-30.1 36.3-30.1s-22.1 7.2-42.6 13c31.2-15.2 41.3-22.7 41.3-22.7s-33.6 6.3-45.6 8.4c20.9-8.5 45.4-17.9 45.4-17.9s-25.3 4.2-42.6 3.2c24-4 54.2-14.9 54.2-14.9v33.7z"/><path fill="#023349" d="M342.3 123.1s-.7-54.6-9.9-85.7C284.3 12.1 197.6 1.1 153.4 0 136.6 29.8 122 119.5 122 119.5s-63.8 16.8-89.5 44.3c36.1 19.2 85.6 22.2 86 22-3.4 12.1-7.9 34-9.3 53.9 3.9 2.1 16.6 5.8 22.1 6.1 1 6.3 11.5 53.8 29.9 66.4v-27.6c-5.3-4.4-8.7-11.4-11-18.7 2.1-2.4 5.5-5.2 11-7.5-6.2-.2-10.8-2.5-13.9-4.9-1.6-9.4-1.9-17.8-2.3-20.5-5.5-.4-13.5-.7-17.4-2.8 1.4-19.2 5.5-37.1 8.6-48.4.2-.1.4-.1.7-.2 7.1 4.5 17.8 10.1 27.9 10.1 15.1 0 44.5-19.1 44.5-19.1h-40.6c28.7-7.1 63-12.2 83.6-3.7 17 7 20.5 28.4 20.5 28.4S395 177 394.3 143.8c-.2-14-52-20.7-52-20.7z"/><path fill="#01A0C6" d="M169.6 151.1c-50.3 17.3-103 9.4-103 9.4s28.6-22.7 72.5-33.7c114.4-7.3 172.8 0 172.8 0s-95.6 8.3-142.3 24.3zm155.3-59.8s-91-15.6-177.7-11.1c5.4-32.2 15.9-65.1 15.9-65.1s118.3 8 157.4 31.6c4.5 20.6 4.4 44.6 4.4 44.6z"/><defs><path id="a" d="M324.9 91.3s-91-15.6-177.7-11.1c5.4-32.2 15.9-65.1 15.9-65.1s118.3 8 157.4 31.6c4.5 20.6 4.4 44.6 4.4 44.6z"/></defs><clipPath id="b"><use xlink:href="#a" overflow="visible"/></clipPath><path clip-path="url(#b)" fill="#FFF" d="M177.9 42.9c.1 0 .2.2.2.3 0 .1-.2.2-.3.2-.1 0-.2-.2-.2-.3 0-.1.2-.2.3-.2zm1.7-10.3c.1-.4-.2-.7-.5-.8-.4-.1-.7.2-.8.5-.1.4.2.7.5.8.4.1.7-.2.8-.5zm4.6-.6c-.2 0-.4.1-.4.3 0 .2.1.4.3.4.2 0 .4-.1.4-.3 0-.2-.1-.4-.3-.4zm-2.7 9.4c.1-.7-.3-1.3-1-1.4-.7-.1-1.3.3-1.4 1-.1.7.3 1.3 1 1.4.7.1 1.3-.3 1.4-1zm1.6-5.7c.2-.9-.4-1.8-1.4-2-.9-.2-1.9.4-2 1.4-.2.9.4 1.8 1.4 2 .9.2 1.8-.5 2-1.4zm-6.4-1c-.6-.1-1.1.3-1.2.8-.1.6.3 1.1.8 1.2.6.1 1.1-.3 1.2-.8.2-.5-.2-1-.8-1.2zm-2 9c-.2 0-.3.1-.4.3 0 .2.1.3.3.4.2 0 .3-.1.4-.3 0-.2-.1-.4-.3-.4zm.9-4.1c-.5-.1-.9.2-1 .7-.1.5.2.9.7 1 .5.1.9-.2 1-.7 0-.5-.3-1-.7-1zm10.5-4c.3.1.6-.1.6-.4s-.1-.6-.4-.6c-.3-.1-.6.1-.6.4s.1.6.4.6zm-2.2 3.2c-.2 0-.5.1-.5.3 0 .2.1.5.3.5.2 0 .5-.1.5-.3.1-.2-.1-.5-.3-.5zm3.1.1c-.5-.1-1 .2-1.1.7-.1.5.2 1 .7 1.1.5.1 1-.2 1.1-.7.2-.6-.2-1-.7-1.1zm-13.4-1.7c-.3 0-.5.1-.5.4 0 .3.1.5.4.5.3 0 .5-.1.5-.4 0-.2-.1-.4-.4-.5zm4.3.9c0 .2.1.5.3.5.2 0 .5-.1.5-.3 0-.2-.1-.5-.3-.5-.3-.1-.5 0-.5.3zM188 37c0 .2.1.4.3.4.2 0 .4-.1.4-.3 0-.2-.1-.4-.3-.4-.2 0-.4.1-.4.3zm-11 7.8c-.5-.1-.9.2-1 .7-.1.5.2.9.7 1s.9-.2 1-.7c.1-.5-.2-1-.7-1zm4.4-.2c0-.2-.1-.5-.3-.5-.2 0-.5.1-.5.3 0 .2.1.5.3.5.2.1.4-.1.5-.3zm17.5-.3c-.4-.1-.8-.3-1-.7-.2-.3-.5-.5-.8-.5l-3-.2c-.5 0-.9.3-1.1.7-.2.5-.4 1.1-.7 1.6-.2.5-.1 1 .3 1.3l.2.1c.2.2.5.2.7.1.4-.2.9-.1 1.3.1.7.5.9 1.5.3 2.1-.4.5-1.1.6-1.7.4-.5-.2-.8-.7-.8-1.2 0-.3-.2-.5-.4-.6l-.2-.1c-.4-.2-1-.1-1.3.3-.4.4-.8.9-1.2 1.2-.4.3-.5.9-.2 1.3l1.4 2.7c.2.3.5.5.8.5.4 0 .8.3 1 .6.5.8.2 1.8-.7 2.2-.5.2-1.1.1-1.5-.3-.4-.4-.5-1-.4-1.4.1-.3 0-.7-.2-.9l-2-2.3c-.3-.4-.9-.5-1.3-.3-.5.3-1 .5-1.6.7-.5.2-.8.6-.7 1.1v.2c0 .3.2.5.4.6.4.2.7.6.8 1 .2.9-.5 1.8-1.5 1.7-.5 0-1.1-.4-1.3-.9-.2-.6-.1-1.2.3-1.6.2-.2.2-.5.1-.7l-.1-.2c-.2-.5-.6-.8-1.1-.7-.6 0-1.1.1-1.7 0-.5 0-.9.3-1.1.8l-.9 2.9c-.1.3 0 .7.2.9.2.3.4.7.3 1.2-.2.8-1 1.4-1.9 1.1-.6-.2-1-.8-1-1.4 0-.5.3-1 .7-1.2.3-.2.5-.4.5-.8l.2-3c0-.5-.3-.9-.7-1.1-.5-.2-1.1-.4-1.6-.7-.5-.2-1-.1-1.3.3l-.1.2c-.2.2-.2.5-.1.7.2.4.1.9-.1 1.3-.5.7-1.5.9-2.1.3-.5-.4-.6-1.1-.4-1.7.2-.5.7-.8 1.2-.8.3 0 .5-.2.6-.4l.1-.2c.2-.4.1-1-.3-1.3-.4-.4-.9-.8-1.2-1.2-.3-.4-.9-.5-1.3-.2l-2.7 1.4c-.3.2-.5.5-.5.8 0 .4-.3.8-.6 1-.8.5-1.8.2-2.2-.7-.2-.5-.1-1.1.3-1.5.4-.4 1-.5 1.4-.4.3.1.7 0 .9-.2l2.3-2c.4-.3.5-.9.3-1.3-.3-.5-.5-1-.7-1.6-.2-.5-.6-.8-1.1-.7h-.2c-.3 0-.5.2-.6.4-.2.4-.6.7-1 .8-.9.2-1.8-.5-1.7-1.5 0-.5.4-1.1.9-1.3.6-.2 1.2-.1 1.6.3.2.2.5.2.7.1l.2-.1c.5-.2.8-.6.7-1.1 0-.6-.1-1.1 0-1.7 0-.5-.3-.9-.8-1.1l-2.9-.9c-.3-.1-.7 0-.9.2-.3.2-.7.4-1.2.3-.8-.2-1.4-1-1.1-1.9.2-.6.8-1 1.4-1 .5 0 1 .3 1.2.7.2.3.4.5.8.5l3 .2c.5 0 .9-.3 1.1-.7.2-.5.4-1.1.7-1.6.2-.5.1-1-.3-1.3l-.2-.1c-.2-.2-.5-.2-.7-.1-.4.2-.9.1-1.3-.1-.7-.5-.9-1.5-.3-2.1.4-.5 1.1-.6 1.7-.4.5.2.8.7.8 1.2 0 .3.2.5.4.6l.2.1c.4.2 1 .1 1.3-.3.4-.4.8-.9 1.2-1.2.4-.3.5-.9.2-1.3l-1.4-2.7c-.2-.3-.5-.5-.8-.5-.4 0-.8-.3-1-.6-.5-.8-.2-1.8.7-2.2.5-.2 1.1-.1 1.5.3.4.4.5 1 .4 1.4-.1.3 0 .7.2.9l2 2.3c.3.4.9.5 1.3.3.5-.3 1-.5 1.6-.7.5-.2.8-.6.7-1.1v-.2c0-.3-.2-.5-.4-.6-.4-.2-.7-.6-.8-1-.2-.9.5-1.8 1.5-1.7.5 0 1.1.4 1.3.9.2.6.1 1.2-.3 1.6-.2.2-.2.5-.1.7l.1.2c.2.5.6.8 1.1.7.6 0 1.1-.1 1.7 0 .5 0 .9-.3 1.1-.8l.9-2.9c.1-.3 0-.7-.2-.9-.2-.3-.4-.7-.3-1.2.2-.8 1-1.4 1.9-1.1.6.2 1 .8 1 1.4 0 .5-.3 1-.7 1.2-.3.2-.5.4-.5.8l-.2 3c0 .5.3.9.7 1.1.5.2 1.1.4 1.6.7.5.2 1 .1 1.3-.3l.1-.2c.2-.2.2-.5.1-.7-.2-.4-.1-.9.1-1.3.5-.7 1.5-.9 2.1-.3.5.4.6 1.1.4 1.7-.2.5-.7.8-1.2.8-.3 0-.5.2-.6.4l-.1.2c-.2.4-.1 1 .3 1.3.4.4.9.8 1.2 1.2.3.4.9.5 1.3.2l2.7-1.4c.3-.2.5-.5.5-.8 0-.4.3-.8.6-1 .8-.5 1.8-.2 2.2.7.2.5.1 1.1-.3 1.5-.4.4-1 .5-1.4.4-.3-.1-.7 0-.9.2l-2.3 2c-.4.3-.5.9-.3 1.3.3.5.5 1 .7 1.6.2.5.6.8 1.1.7h.2c.3 0 .5-.2.6-.4.2-.4.6-.7 1-.8.9-.2 1.8.5 1.7 1.5 0 .5-.4 1.1-.9 1.3-.6.2-1.2.1-1.6-.3-.2-.2-.5-.2-.7-.1l-.2.1c-.5.2-.8.6-.7 1.1 0 .6.1 1.1 0 1.7 0 .5.3.9.8 1.1l2.9.9c.3.1.6 0 .9-.2.4-.3.9-.4 1.4-.2.6.2 1 .8 1 1.5 0 .9-.9 1.5-1.7 1.3zm-8.2-3c1-5.5-2.5-10.8-8-11.8s-10.8 2.5-11.8 8 2.5 10.8 8 11.8c5.4 1.1 10.7-2.5 11.8-8zm-5.2 2.3c-.7-.1-1.3.3-1.4 1-.1.7.3 1.3 1 1.4.7.1 1.3-.3 1.4-1 .1-.6-.4-1.2-1-1.4zm-4.8 3.3c-.1 0-.3.1-.3.2s.1.3.2.3.3-.1.3-.2c.1-.1 0-.3-.2-.3zm3.7-5.3c-.1 0-.3.1-.3.2s.1.3.2.3.3-.1.3-.2c.1-.2 0-.3-.2-.3zm3.3 1.9c.1 0 .3-.1.3-.2s-.1-.3-.2-.3-.3.1-.3.2.1.3.2.3zM237 76.6c-.1.3.1.7.4.8.3.1.7-.1.8-.4.1-.3-.1-.7-.4-.8-.4-.1-.7.1-.8.4zm6.8-24.4c.2-.9-.3-1.7-1.1-2-.9-.2-1.7.3-2 1.1-.2.9.3 1.7 1.1 2 .9.3 1.8-.2 2-1.1zm10.8-.4c-.5-.1-.9.1-1.1.6-.1.5.1.9.6 1.1.5.1.9-.1 1.1-.6.2-.5-.1-1-.6-1.1zm-8 21.6c.4-1.5-.5-3.1-2-3.5-1.5-.4-3.1.5-3.5 2-.4 1.5.5 3.1 2 3.5 1.5.4 3.1-.4 3.5-2zm4.8-13.1c.6-2.2-.7-4.4-2.9-5-2.2-.6-4.4.7-5 2.8-.6 2.2.7 4.4 2.9 5 2.1.6 4.4-.7 5-2.8zm-14.8-3.5c-1.3-.4-2.7.4-3.1 1.7-.4 1.3.4 2.7 1.7 3.1 1.3.4 2.7-.4 3.1-1.7.4-1.4-.4-2.7-1.7-3.1zm-6.5 20.6c-.4-.1-.8.1-.9.5-.1.4.1.8.5.9.4.1.8-.1.9-.5.1-.4-.1-.8-.5-.9zm2.9-9.5c-1.1-.3-2.2.3-2.4 1.4-.3 1.1.3 2.2 1.4 2.4 1.1.3 2.2-.3 2.4-1.4.3-1-.4-2.1-1.4-2.4zm25.5-7.2c.7.2 1.4-.2 1.6-.9.2-.7-.2-1.4-.9-1.6-.7-.2-1.4.2-1.6.9-.2.7.2 1.4.9 1.6zm-5.9 7c-.5-.2-1.1.2-1.3.7-.2.5.2 1.1.7 1.3.5.2 1.1-.2 1.3-.7.2-.6-.1-1.1-.7-1.3zm7.4.8c-1.2-.3-2.4.4-2.7 1.5-.3 1.2.4 2.4 1.5 2.7 1.2.3 2.4-.4 2.7-1.5.4-1.2-.3-2.4-1.5-2.7zm-31.2-6.4c-.6-.2-1.2.2-1.4.8-.2.6.2 1.2.8 1.4.6.2 1.2-.2 1.4-.8.1-.7-.2-1.3-.8-1.4zm9.8 2.8c-.2.5.2 1.1.7 1.3.5.2 1.1-.2 1.3-.7.2-.5-.2-1.1-.7-1.3-.6-.2-1.1.1-1.3.7zm24-.6c-.1.4.1.9.6 1 .4.1.9-.1 1-.6.1-.4-.1-.9-.6-1-.4-.1-.9.1-1 .6zm-27.3 16.1c-1.1-.3-2.2.3-2.4 1.4-.3 1.1.3 2.2 1.4 2.4s2.2-.3 2.4-1.4c.3-1-.3-2.1-1.4-2.4zm10.3.5c.2-.5-.2-1.1-.7-1.3-.5-.2-1.1.2-1.3.7-.2.5.2 1.1.7 1.3.6.1 1.1-.2 1.3-.7zm41.3 2.8c-1-.3-1.7-1-2.1-1.8-.3-.7-1-1.3-1.8-1.4l-7-1.1c-1.2-.2-2.3.4-2.7 1.5-.5 1.3-1.2 2.5-1.9 3.6-.6 1-.5 2.3.4 3.1l.3.3c.4.4 1 .6 1.6.4 1-.3 2.2-.1 3.1.6 1.6 1.2 1.8 3.6.3 5.1-1.1 1.1-2.8 1.3-4.1.6-1.2-.7-1.8-1.9-1.7-3.1 0-.6-.3-1.2-.8-1.5l-.4-.3c-1-.6-2.3-.5-3.1.4-1 1-2 1.9-3.1 2.7-.9.7-1.3 2-.8 3l2.8 6.5c.3.7 1 1.2 1.8 1.4.9.2 1.8.8 2.3 1.7 1.1 1.9.2 4.3-2 5-1.2.4-2.6 0-3.5-1-.9-1-1.1-2.3-.6-3.5.3-.7.2-1.5-.3-2.2l-4.2-5.8c-.7-.9-1.9-1.3-3-.9-1.3.5-2.6.9-3.9 1.2-1.2.3-2 1.3-1.9 2.5v.5c0 .6.3 1.2.8 1.4.9.5 1.6 1.4 1.8 2.6.3 2.1-1.5 4-3.8 3.8-1.3-.1-2.4-1-2.8-2.3-.5-1.4 0-2.8.9-3.6.4-.4.6-1 .5-1.6l-.1-.5c-.3-1.2-1.3-2-2.5-2-1.3 0-2.7-.1-4.1-.3-1.2-.2-2.3.5-2.7 1.6l-2.7 6.6c-.3.7-.2 1.6.3 2.2.5.8.7 1.8.4 2.8-.5 1.9-2.7 3-4.6 2.2-1.4-.6-2.3-2.1-2.1-3.6.2-1.2.9-2.2 1.9-2.7.7-.3 1.2-.9 1.4-1.7l1.1-7.1c.2-1.2-.4-2.3-1.5-2.7-1.3-.5-2.5-1.2-3.6-1.9-1-.6-2.3-.5-3.1.4l-.3.3c-.4.4-.6 1-.4 1.6.3 1 .1 2.2-.6 3.1-1.2 1.6-3.6 1.8-5.1.3-1.1-1.1-1.3-2.8-.6-4.1.7-1.2 1.9-1.8 3.1-1.7.6 0 1.2-.3 1.5-.8l.3-.4c.6-1 .5-2.3-.4-3.1-1-1-1.9-2-2.7-3.1-.7-.9-2-1.3-3-.8l-6.5 2.8c-.7.3-1.2 1-1.4 1.8-.2.9-.8 1.8-1.7 2.3-1.9 1.1-4.3.2-5-2-.4-1.2 0-2.6 1-3.5 1-.9 2.3-1.1 3.5-.6.7.3 1.5.2 2.2-.3l5.8-4.2c.9-.7 1.3-1.9.9-3-.5-1.3-.9-2.6-1.2-3.9-.3-1.2-1.3-2-2.5-1.9h-.5c-.6 0-1.2.3-1.4.8-.5.9-1.4 1.6-2.6 1.8-2.1.3-4-1.5-3.8-3.8.1-1.3 1-2.4 2.3-2.8 1.4-.5 2.8 0 3.6.9.4.4 1 .6 1.6.5l.5-.1c1.2-.3 2-1.3 2-2.5 0-1.3.1-2.7.3-4.1.2-1.2-.5-2.3-1.6-2.7l-6.6-2.7c-.7-.3-1.6-.2-2.2.3-.8.5-1.8.7-2.8.4-1.9-.5-3-2.7-2.2-4.6.6-1.4 2.1-2.3 3.6-2.1 1.2.2 2.2.9 2.7 1.9.3.7.9 1.2 1.7 1.4l7.1 1.1c1.2.2 2.3-.4 2.7-1.5.5-1.3 1.2-2.5 1.9-3.6.6-1 .5-2.3-.4-3.1l-.3-.3c-.4-.4-1-.6-1.6-.4-1 .3-2.2.1-3.1-.6-1.6-1.2-1.8-3.6-.3-5.1 1.1-1.1 2.8-1.3 4.1-.6 1.2.7 1.8 1.9 1.7 3.1 0 .6.3 1.2.8 1.5l.4.3c1 .6 2.3.5 3.1-.4 1-1 2-1.9 3.1-2.7.9-.7 1.3-2 .8-3l-2.8-6.5c-.3-.7-1-1.2-1.8-1.4-.9-.2-1.8-.8-2.3-1.7-1.1-1.9-.2-4.3 2-5 1.2-.4 2.6 0 3.5 1 .9 1 1.1 2.3.6 3.5-.3.7-.2 1.5.3 2.2l4.2 5.8c.7.9 1.9 1.3 3 .9 1.3-.5 2.6-.9 3.9-1.2 1.2-.3 2-1.3 1.9-2.5v-.5c0-.6-.3-1.2-.8-1.4-.9-.5-1.6-1.4-1.8-2.6-.3-2.1 1.5-4 3.8-3.8 1.3.1 2.4 1 2.8 2.3.5 1.4 0 2.8-.9 3.6-.4.4-.6 1-.5 1.6l.1.5c.3 1.2 1.3 2 2.5 2 1.3 0 2.7.1 4.1.3 1.2.2 2.3-.5 2.7-1.6l2.7-6.6c.3-.7.2-1.6-.3-2.2-.5-.8-.7-1.8-.4-2.8.5-1.9 2.7-3 4.6-2.2 1.4.6 2.3 2.1 2.1 3.6-.2 1.2-.9 2.2-1.9 2.7-.7.3-1.2.9-1.4 1.7l-1.1 7.1c-.2 1.2.4 2.3 1.5 2.7 1.3.5 2.5 1.2 3.6 1.9 1 .6 2.3.5 3.1-.4l.3-.3c.4-.4.6-1 .4-1.6-.3-1-.1-2.2.6-3.1 1.2-1.6 3.6-1.8 5.1-.3 1.1 1.1 1.3 2.8.6 4.1-.7 1.2-1.9 1.8-3.1 1.7-.6 0-1.2.3-1.5.8l-.3.4c-.6 1-.5 2.3.4 3.1 1 1 1.9 2 2.7 3.1.7.9 2 1.3 3 .8l6.5-2.8c.7-.3 1.2-1 1.4-1.8.2-.9.8-1.8 1.7-2.3 1.9-1.1 4.3-.2 5 2 .4 1.2 0 2.6-1 3.5-1 .9-2.3 1.1-3.5.6-.7-.3-1.5-.2-2.2.3l-5.8 4.2c-.9.7-1.3 1.9-.9 3 .5 1.3.9 2.6 1.2 3.9.3 1.2 1.3 2 2.5 1.9h.5c.6 0 1.2-.3 1.4-.8.5-.9 1.4-1.6 2.6-1.8 2.1-.3 4 1.5 3.8 3.8-.1 1.3-1 2.4-2.3 2.8-1.4.5-2.8 0-3.6-.9-.4-.4-1-.6-1.6-.5l-.5.1c-1.2.3-2 1.3-2 2.5 0 1.3-.1 2.7-.3 4.1-.2 1.2.5 2.3 1.6 2.7l6.7 2.7c.7.3 1.5.1 2.2-.3.9-.6 2.1-.8 3.3-.3 1.4.6 2.2 2.1 2 3.6-.6 2.2-2.6 3.4-4.6 2.9zm-18.7-8.8c3.5-12.7-3.9-25.9-16.6-29.4-12.7-3.5-25.9 3.9-29.4 16.6-3.5 12.7 3.9 25.9 16.6 29.4 12.7 3.5 25.8-3.9 29.4-16.6zm-12.8 4.5c-1.5-.4-3.1.5-3.5 2-.4 1.5.5 3.1 2 3.5 1.5.4 3.1-.5 3.5-2 .5-1.5-.4-3-2-3.5zm-11.7 6.8c-.3-.1-.7.1-.8.4-.1.3.1.7.4.8.3.1.7-.1.8-.4.1-.4-.1-.7-.4-.8zm9.7-11.9c-.3-.1-.7.1-.8.4-.1.3.1.7.4.8.3.1.7-.1.8-.4.1-.3-.1-.7-.4-.8zm7.4 5.2c.3.1.7-.1.8-.4.1-.3-.1-.7-.4-.8-.3-.1-.7.1-.8.4-.2.4 0 .7.4.8zm44.9-17.2c0 .1.1.1.2.1s.1-.1.1-.2-.1-.1-.2-.1-.2.1-.1.2zm-3.3-6.2c-.1-.2-.4-.3-.6-.2-.2.1-.3.4-.2.6.1.2.4.3.6.2.2-.1.3-.4.2-.6zm2.1-2.2c-.1.1-.2.2-.1.3.1.1.2.2.3.1.1-.1.2-.2.1-.3 0-.1-.2-.2-.3-.1zm2.5 5.9c-.2-.4-.7-.5-1.1-.3-.4.2-.5.7-.3 1.1.2.4.7.5 1.1.3.4-.2.5-.7.3-1.1zm-1.5-3.5c-.3-.6-1-.8-1.5-.5-.6.3-.8 1-.5 1.5.3.6 1 .8 1.5.5.5-.3.8-1 .5-1.5zm-3.7 2.1c-.3.2-.5.6-.3.9.2.3.6.5.9.3.3-.2.5-.6.3-.9-.1-.4-.6-.5-.9-.3zm2.6 5.4c-.1.1-.1.2-.1.3.1.1.2.1.3.1.1-.1.1-.2.1-.3 0-.1-.2-.2-.3-.1zm-1.2-2.5c-.3.1-.4.5-.2.7.1.3.5.4.7.2.3-.1.4-.5.2-.7-.1-.2-.4-.3-.7-.2zM307 55c.2-.1.2-.3.2-.5-.1-.2-.3-.2-.5-.2-.2.1-.2.3-.2.5.1.2.3.3.5.2zm.1 2.5c-.1.1-.2.2-.1.4.1.1.2.2.4.1.1-.1.2-.2.1-.4 0-.1-.2-.2-.4-.1zm1.7-1.2c-.3.2-.4.5-.3.8.2.3.5.4.8.3.3-.2.4-.5.3-.8-.1-.4-.5-.5-.8-.3zm-7.6 4.6c-.1.1-.2.3-.1.4.1.1.3.2.4.1.1-.1.2-.3.1-.4 0-.1-.2-.1-.4-.1zm2.6-1.3c.1.1.2.2.4.1.1-.1.2-.2.1-.4-.1-.1-.2-.2-.4-.1s-.2.3-.1.4zm4.7-4.7c.1.1.2.2.3.1.1-.1.2-.2.1-.3-.1-.1-.2-.2-.3-.1-.1.1-.2.2-.1.3zm-2.4 8.5c-.3.1-.4.5-.2.7.1.3.5.4.7.2.3-.1.4-.5.2-.7-.1-.2-.5-.4-.7-.2zm2.1-1.9c-.1-.1-.2-.2-.4-.1-.1.1-.2.2-.1.4.1.1.2.2.4.1s.2-.2.1-.4zm8.9-7.3c-.3.1-.5.1-.8 0-.2-.1-.4-.1-.6.1l-1.6 1.1c-.3.2-.4.5-.3.8.1.4.2.7.3 1.1.1.3.4.6.7.6h.1c.2 0 .3-.1.4-.2.1-.3.4-.4.7-.5.6-.1 1.1.4 1 1 0 .4-.3.8-.7.9-.4.1-.7 0-.9-.3-.1-.1-.3-.2-.4-.1h-.1c-.3.1-.6.3-.6.7 0 .4 0 .8-.1 1.1-.1.3.1.6.4.8l1.8.8c.2.1.4.1.6-.1.2-.1.5-.2.8-.1.6.2.9.8.5 1.4-.2.3-.5.5-.9.5s-.7-.3-.8-.6c-.1-.2-.3-.3-.5-.4l-1.9-.4c-.3-.1-.6.1-.8.4-.2.3-.3.7-.5 1-.2.3-.1.6.1.9l.1.1c.1.1.3.2.4.1.3-.1.6 0 .8.2.5.4.5 1.1 0 1.5-.3.2-.7.2-1 .1-.4-.2-.5-.6-.5-.9 0-.2-.1-.3-.2-.4l-.1-.1c-.3-.2-.6-.1-.9.1-.3.3-.6.5-.9.7-.3.2-.4.5-.2.8l.7 1.8c.1.2.3.3.5.4.3.1.5.2.6.5.3.5 0 1.1-.5 1.3-.4.2-.9 0-1.1-.3-.2-.3-.2-.6-.1-.9.1-.2.1-.4 0-.6l-1.1-1.7c-.2-.3-.5-.4-.8-.3-.4.1-.7.2-1.1.3-.3.1-.6.4-.6.7v.1c0 .2.1.3.2.4.3.1.4.4.5.7.1.6-.4 1.1-1 1-.4 0-.8-.3-.9-.7-.1-.4 0-.7.3-.9.1-.1.2-.3.1-.4v-.1c-.1-.3-.3-.6-.7-.6-.4 0-.8 0-1.1-.1-.3-.1-.6.1-.8.4l-.8 1.8c-.1.2-.1.4.1.6.1.2.2.5.1.8-.2.6-.8.9-1.4.5-.3-.2-.5-.5-.5-.9s.3-.7.6-.8c.2-.1.3-.3.4-.5l.4-1.9c.1-.3-.1-.6-.4-.8-.3-.2-.7-.3-1-.5-.3-.2-.6-.1-.9.1l-.1.1c-.1.1-.2.3-.1.4.1.3 0 .6-.2.8-.4.5-1.1.5-1.5 0-.2-.3-.2-.7-.1-1 .2-.4.6-.5.9-.5.2 0 .3-.1.4-.2l.1-.1c.2-.3.1-.6-.1-.9-.3-.3-.5-.6-.7-.9-.2-.3-.5-.4-.8-.2l-1.8.7c-.2.1-.3.3-.4.5-.1.3-.2.5-.5.6-.5.3-1.1 0-1.3-.5-.2-.4 0-.9.3-1.1.3-.2.6-.2.9-.1.2.1.4.1.6 0l1.7-1.1c.3-.2.4-.5.3-.8-.1-.4-.2-.7-.3-1.1-.1-.3-.4-.6-.7-.6h-.1c-.2 0-.3.1-.4.2-.1.3-.4.4-.7.5-.6.1-1.1-.4-1-1 0-.4.3-.8.7-.9.4-.1.7 0 .9.3.1.1.3.2.4.1h.1c.3-.1.6-.3.6-.7 0-.4 0-.8.1-1.1.1-.3-.1-.6-.4-.8l-1.8-.8c-.2-.1-.4-.1-.6.1-.2.1-.5.2-.8.1-.6-.2-.9-.8-.5-1.4.2-.3.5-.5.9-.5s.7.3.8.6c.1.2.3.3.5.4l1.9.4c.3.1.6-.1.8-.4.2-.3.3-.7.5-1 .2-.3.1-.6-.1-.9l-.1-.1c-.1-.1-.3-.2-.4-.1-.3.1-.6 0-.8-.2-.5-.4-.5-1.1 0-1.5.3-.2.7-.2 1-.1.4.2.5.6.5.9 0 .2.1.3.2.4v.2c.3.2.6.1.9-.1.3-.3.6-.5.9-.7.3-.2.4-.5.2-.8l-.7-1.8c-.1-.2-.3-.3-.5-.4-.3-.1-.5-.2-.6-.5-.3-.5 0-1.1.5-1.3.4-.2.9 0 1.1.3.2.3.2.6.1.9-.1.2-.1.4 0 .6l1.1 1.7c.2.3.5.4.8.3.4-.1.7-.2 1.1-.3.3-.1.6-.4.6-.7v-.1c0-.2-.1-.3-.2-.4-.3-.1-.4-.4-.5-.7-.1-.6.4-1.1 1-1 .4 0 .8.3.9.7.1.4 0 .7-.3.9-.1.1-.2.3-.1.4v.1c.1.3.3.6.7.6.4 0 .8 0 1.1.1.3.1.6-.1.8-.4l.8-1.8c.1-.2.1-.4-.1-.6-.1-.2-.2-.5-.1-.8.2-.6.8-.9 1.4-.5.3.2.5.5.5.9s-.3.7-.6.8c-.2.1-.3.3-.4.5l-.4 1.9c-.1.3.1.6.4.8.3.2.7.3 1 .5.3.2.6.1.9-.1l.1-.1c.1-.1.2-.3.1-.4-.1-.3 0-.6.2-.8.4-.5 1.1-.5 1.5 0 .2.3.2.7.1 1-.2.4-.6.5-.9.5-.2 0-.3.1-.4.2l-.1.1c-.2.3-.1.6.1.9.3.3.5.6.7.9.2.3.5.4.8.2l1.9-.7c.2-.1.3-.3.4-.5.1-.3.3-.6.6-.7.4-.1.9 0 1.1.4.3.3.1.9-.4 1.2zm-5.4 1.8c-1.7-3.2-5.7-4.5-9-2.8s-4.5 5.7-2.8 9c1.7 3.2 5.7 4.5 9 2.8 3.2-1.7 4.5-5.7 2.8-9zm-1.7 3.4c-.4.2-.5.7-.3 1.1.2.4.7.5 1.1.3.4-.2.5-.7.3-1.1-.3-.4-.8-.6-1.1-.3zm-1.1 3.6c-.1 0-.1.1-.1.2s.1.1.2.1.1-.1.1-.2-.2-.2-.2-.1zm-.3-4.3c-.1 0-.1.1-.1.2s.1.1.2.1.1-.1.1-.2-.2-.1-.2-.1zm2.4-.4c.1 0 .1-.1.1-.2s-.1-.1-.2-.1-.1.1-.1.2c.1.2.2.2.2.1z"/></svg>