<svg id="Layer_1" data-name="Layer 1" xmlns="http://www.w3.org/2000/svg" viewBox="0 0 32 32"><defs><style>.cls-1{fill:#c3382a}.cls-2{fill:#333}</style></defs><path class="cls-1" d="M15.71 20a.18.18 0 00.18-.18.18.18 0 00-.36 0 .18.18 0 00.18.18zm-.18-7.45a.46.46 0 00-.46-.47.47.47 0 000 .93.46.46 0 00.46-.46zm2.96-.96a.25.25 0 100 .49.25.25 0 100-.49zm-.56 6.59a.82.82 0 10-.82.82.82.82 0 00.82-.82zM17.06 13a1.17 1.17 0 101.18 1.17A1.17 1.17 0 0017.06 13zm-3.16 1.36a.71.71 0 10.71.71.71.71 0 00-.71-.71zm-.43 6.39a.21.21 0 00.22.21.21.21 0 000-.42.21.21 0 00-.22.21zm.86-2.48a.57.57 0 00-.57-.57.57.57 0 10.57.57z"/><path class="cls-1" d="M10.59 17.37a6.78 6.78 0 0112.89-2.94 10.23 10.23 0 00.08-1.25 10.74 10.74 0 00-.3-2.49 1 1 0 01-.72.09 8 8 0 00-1.3-.84 1 1 0 01-.09-.78L21.2 9a.62.62 0 01.42-.41.93.93 0 00.61-.47 11.77 11.77 0 00-.93-1.37.94.94 0 00-.71 1.41.59.59 0 010 .59l-.09.16a1 1 0 01-.61.5 8.59 8.59 0 00-1.52-.34.93.93 0 01-.48-.72l-.18-1.95a.91.91 0 01.29-.81.93.93 0 00.29-.88.92.92 0 00-.71-.71.94.94 0 00-.85 1.6 1 1 0 01.29.8l-.18 2a.93.93 0 01-.48.72 8.29 8.29 0 00-1.51.34 1 1 0 01-.62-.5l-.09-.16a.6.6 0 010-.58 1 1 0 000-1 1 1 0 00-1-.41.94.94 0 00-.66 1.19.91.91 0 00.64.55.62.62 0 01.42.41l.05.18a1 1 0 01-.08.78 7.7 7.7 0 00-1.31.84.94.94 0 01-.85-.18L9.83 9.35a.93.93 0 01-.35-.76.94.94 0 10-1.6.62.86.86 0 00.7.27.94.94 0 01.76.36l1.25 1.51a.94.94 0 01.18.85 8.57 8.57 0 00-.84 1.31 1 1 0 01-.78.08L9 13.54a.58.58 0 01-.41-.41.94.94 0 00-1.68-.32.93.93 0 001.25 1.34.62.62 0 01.59 0l.17.09a1 1 0 01.49.62 7.52 7.52 0 00-.33 1.51 1 1 0 01-.73.47L6.37 17a.91.91 0 01-.79-.28.93.93 0 00-.88-.29.94.94 0 00.18 1.86.91.91 0 00.69-.29 1 1 0 01.8-.28l2 .18a1 1 0 01.73.47 7.61 7.61 0 00.33 1.52 1 1 0 01-.49.62l-.17.08a.57.57 0 01-.58 0 .95.95 0 00-1.43.7 12.81 12.81 0 001.38.93.91.91 0 00.47-.6.58.58 0 01.39-.42l.18-.06a1 1 0 01.78.09 8.57 8.57 0 00.84 1.31.89.89 0 01-.09.71 10.3 10.3 0 003.75.22 6.76 6.76 0 01-3.87-6.1z"/><path class="cls-1" d="M20.25 13a.38.38 0 00-.38.37.38.38 0 00.75 0 .38.38 0 00-.37-.37zm.37 5.83a1 1 0 00-.41 2 11.91 11.91 0 001.3-1.45 1 1 0 00-.89-.55zm-1.46-2.7a.3.3 0 00-.29.3.3.3 0 00.59 0 .3.3 0 00-.3-.3zm2.09-.35a.63.63 0 10.63.63.63.63 0 00-.63-.63zm-9.41.94a.32.32 0 10.31-.31.31.31 0 00-.31.31zm3.53-.59a.3.3 0 00-.3.3.3.3 0 00.59 0 .3.3 0 00-.29-.3zm6.52-1.95a.24.24 0 10.24.24.24.24 0 00-.24-.24zM15.37 21a.57.57 0 00-.57.57.56.56 0 00.57.57.57.57 0 00.57-.57.58.58 0 00-.57-.57zm2.56-1a.3.3 0 10.3.29.3.3 0 00-.3-.29z"/><path class="cls-2" d="M30.48 23.13l-5.85-5.85a12.2 12.2 0 01-7.33 7.35l5.84 5.84a5.19 5.19 0 007.34-7.34zm-1.69 5.64a2.81 2.81 0 01-4 0l-4.51-4.51a13.28 13.28 0 003.95-4l4.52 4.52a2.78 2.78 0 01.04 3.99z"/><path class="cls-2" d="M13.18 0a13.18 13.18 0 1013.17 13.19A13.18 13.18 0 0013.18 0zm0 24.35a11.18 11.18 0 1111.18-11.16 11.17 11.17 0 01-11.18 11.18z"/></svg>